<svg width="24" height="24" viewBox="0 0 24 24" fill="none" xmlns="http://www.w3.org/2000/svg">
<g id="Direction=Left, Size=24, Theme=Regular">
<path id="Shape" d="M10.7327 19.791C11.0326 20.0766 11.5074 20.0651 11.7931 19.7652C12.0787 19.4652 12.0672 18.9905 11.7673 18.7048L5.51587 12.7502L20.25 12.7502C20.6642 12.7502 21 12.4144 21 12.0002C21 11.586 20.6642 11.2502 20.25 11.2502L5.51577 11.2502L11.7673 5.29551C12.0672 5.00982 12.0787 4.53509 11.7931 4.23516C11.5074 3.93523 11.0326 3.92369 10.7327 4.20938L3.31379 11.2761C3.14486 11.437 3.04491 11.6422 3.01393 11.8556C3.00479 11.9024 3 11.9507 3 12.0002C3 12.0498 3.00481 12.0982 3.01398 12.1451C3.04502 12.3583 3.14496 12.5634 3.31379 12.7243L10.7327 19.791Z" fill="#222222"/>
</g>
</svg>
