<svg width="25" height="24" viewBox="0 0 25 24" fill="none" xmlns="http://www.w3.org/2000/svg">
<path d="M6.60938 3C4.81445 3 3.35938 4.45507 3.35938 6.25V17.75C3.35938 19.5449 4.81445 21 6.60938 21H18.1094C19.9043 21 21.3594 19.5449 21.3594 17.75V6.25C21.3594 4.45507 19.9043 3 18.1094 3H6.60938ZM4.85938 8.5H19.8594V17.75C19.8594 18.7165 19.0759 19.5 18.1094 19.5H6.60938C5.64288 19.5 4.85938 18.7165 4.85938 17.75V8.5ZM16.6094 14.5C15.919 14.5 15.3594 15.0596 15.3594 15.75C15.3594 16.4404 15.919 17 16.6094 17C17.2997 17 17.8594 16.4404 17.8594 15.75C17.8594 15.0596 17.2997 14.5 16.6094 14.5ZM12.3594 14.5C11.669 14.5 11.1094 15.0596 11.1094 15.75C11.1094 16.4404 11.669 17 12.3594 17C13.0497 17 13.6094 16.4404 13.6094 15.75C13.6094 15.0596 13.0497 14.5 12.3594 14.5ZM16.6094 10.5C15.919 10.5 15.3594 11.0596 15.3594 11.75C15.3594 12.4404 15.919 13 16.6094 13C17.2997 13 17.8594 12.4404 17.8594 11.75C17.8594 11.0596 17.2997 10.5 16.6094 10.5ZM12.3594 10.5C11.669 10.5 11.1094 11.0596 11.1094 11.75C11.1094 12.4404 11.669 13 12.3594 13C13.0497 13 13.6094 12.4404 13.6094 11.75C13.6094 11.0596 13.0497 10.5 12.3594 10.5ZM8.10938 10.5C7.41902 10.5 6.85938 11.0596 6.85938 11.75C6.85938 12.4404 7.41902 13 8.10938 13C8.79973 13 9.35938 12.4404 9.35938 11.75C9.35938 11.0596 8.79973 10.5 8.10938 10.5ZM6.60938 4.5H18.1094C19.0759 4.5 19.8594 5.2835 19.8594 6.25V7H4.85938V6.25C4.85938 5.2835 5.64288 4.5 6.60938 4.5Z" fill="#222222"/>
</svg>
