<svg width="25" height="24" viewBox="0 0 25 24" fill="none" xmlns="http://www.w3.org/2000/svg">
<path d="M18.1094 3C19.9043 3 21.3594 4.45507 21.3594 6.25V17.75C21.3594 19.5449 19.9043 21 18.1094 21H6.60938C4.81445 21 3.35938 19.5449 3.35938 17.75V6.25C3.35938 4.45507 4.81445 3 6.60938 3H18.1094ZM19.8594 8.5H4.85938V17.75C4.85938 18.7165 5.64288 19.5 6.60938 19.5H18.1094C19.0759 19.5 19.8594 18.7165 19.8594 17.75V8.5ZM8.10938 14.5C8.79973 14.5 9.35938 15.0596 9.35938 15.75C9.35938 16.4404 8.79973 17 8.10938 17C7.41902 17 6.85938 16.4404 6.85938 15.75C6.85938 15.0596 7.41902 14.5 8.10938 14.5ZM12.3594 14.5C13.0497 14.5 13.6094 15.0596 13.6094 15.75C13.6094 16.4404 13.0497 17 12.3594 17C11.669 17 11.1094 16.4404 11.1094 15.75C11.1094 15.0596 11.669 14.5 12.3594 14.5ZM8.10938 10.5C8.79973 10.5 9.35938 11.0596 9.35938 11.75C9.35938 12.4404 8.79973 13 8.10938 13C7.41902 13 6.85938 12.4404 6.85938 11.75C6.85938 11.0596 7.41902 10.5 8.10938 10.5ZM12.3594 10.5C13.0497 10.5 13.6094 11.0596 13.6094 11.75C13.6094 12.4404 13.0497 13 12.3594 13C11.669 13 11.1094 12.4404 11.1094 11.75C11.1094 11.0596 11.669 10.5 12.3594 10.5ZM16.6094 10.5C17.2997 10.5 17.8594 11.0596 17.8594 11.75C17.8594 12.4404 17.2997 13 16.6094 13C15.919 13 15.3594 12.4404 15.3594 11.75C15.3594 11.0596 15.919 10.5 16.6094 10.5ZM18.1094 4.5H6.60938C5.64288 4.5 4.85938 5.2835 4.85938 6.25V7H19.8594V6.25C19.8594 5.2835 19.0759 4.5 18.1094 4.5Z" fill="#222222"/>
</svg>
