<svg width="25" height="24" viewBox="0 0 25 24" fill="none" xmlns="http://www.w3.org/2000/svg">
<path d="M10.0938 3C5.95161 3 2.59375 6.35786 2.59375 10.5C2.59375 11.6335 2.84568 12.71 3.29711 13.6749C2.99499 14.9 2.73329 16.2085 2.61549 16.8173C2.48219 17.5063 3.08109 18.1099 3.76869 17.9875C4.392 17.8765 5.7469 17.6267 7.00518 17.3363C7.94787 17.7628 8.99402 18 10.0938 18C14.2359 18 17.5937 14.6421 17.5937 10.5C17.5937 6.35786 14.2359 3 10.0938 3ZM10.0557 18.9996C11.3939 20.2411 13.186 21.0002 15.1554 21.0002C16.2548 21.0002 17.3008 20.7631 18.2433 20.3368C19.2871 20.5811 20.4296 20.8249 21.1567 20.9769C22.0492 21.1634 22.8286 20.3624 22.6241 19.4775C22.4616 18.7741 22.2054 17.6822 21.9524 16.6742C22.4036 15.7095 22.6553 14.6333 22.6553 13.5002C22.6553 10.2172 20.546 7.42696 17.6087 6.41064C17.959 7.04768 18.23 7.73448 18.4084 8.45773C20.0613 9.52629 21.1553 11.3855 21.1553 13.5002C21.1553 14.4916 20.9155 15.4248 20.4913 16.247L20.3607 16.5L20.4309 16.7758C20.6587 17.6713 20.8975 18.6758 21.0724 19.4264C20.2983 19.2627 19.2548 19.0362 18.3332 18.8168L18.0687 18.7539L17.8253 18.875C17.0221 19.2749 16.1161 19.5002 15.1554 19.5002C14.0958 19.5002 13.1004 19.2255 12.2365 18.7436C11.5705 18.9112 10.8733 19.0002 10.1554 19.0002C10.1221 19.0002 10.0889 19 10.0557 18.9996Z" fill="#222222"/>
</svg>
