<svg width="25" height="24" viewBox="0 0 25 24" fill="none" xmlns="http://www.w3.org/2000/svg">
<g id="Size=24, Theme=Regular">
<path id="Shape" d="M5.92188 2C4.12695 2 2.67188 3.45507 2.67188 5.25V16.75C2.67188 18.5449 4.12695 20 5.92187 20H12.17C11.9723 19.5258 11.8291 19.0232 11.7483 18.5H5.92187C4.95538 18.5 4.17188 17.7165 4.17188 16.75V5.25C4.17188 4.2835 4.95538 3.5 5.92188 3.5H17.4219C18.3884 3.5 19.1719 4.2835 19.1719 5.25V11.0764C19.6951 11.1572 20.1977 11.3004 20.6719 11.4982V5.25C20.6719 3.45507 19.2168 2 17.4219 2H5.92188ZM16.9519 8.28064C17.245 7.98791 17.2452 7.51304 16.9525 7.21998C16.6598 6.92691 16.1849 6.92664 15.8919 7.21936L9.66845 13.4356L7.45271 11.2197C7.15983 10.9268 6.68495 10.9268 6.39205 11.2196C6.09915 11.5125 6.09913 11.9874 6.39202 12.2803L9.13778 15.0262C9.43055 15.319 9.9052 15.3192 10.1982 15.0266L16.9519 8.28064ZM18.1719 12C21.2094 12 23.6719 14.4624 23.6719 17.5C23.6719 20.5376 21.2094 23 18.1719 23C15.1343 23 12.6719 20.5376 12.6719 17.5C12.6719 14.4624 15.1343 12 18.1719 12ZM15.1719 17C14.8957 17 14.6719 17.2239 14.6719 17.5C14.6719 17.7761 14.8957 18 15.1719 18H19.9648L18.3183 19.6464C18.1231 19.8417 18.1231 20.1583 18.3183 20.3536C18.5136 20.5488 18.8302 20.5488 19.0254 20.3536L21.5254 17.8536C21.7207 17.6583 21.7207 17.3417 21.5254 17.1464L19.0254 14.6464C18.8302 14.4512 18.5136 14.4512 18.3183 14.6464C18.1231 14.8417 18.1231 15.1583 18.3183 15.3536L19.9648 17H15.1719Z" fill="#222222"/>
</g>
</svg>
