<svg width="25" height="24" viewBox="0 0 25 24" fill="none" xmlns="http://www.w3.org/2000/svg">
<path d="M20.0078 4C21.2505 4 22.2578 5.00736 22.2578 6.25V17.7546C22.2578 18.9972 21.2505 20.0046 20.0078 20.0046H4.50781C3.26517 20.0046 2.25781 18.9972 2.25781 17.7546V6.25C2.25781 5.00736 3.26517 4 4.50781 4H20.0078ZM10.0078 12.5H6.50781C6.12812 12.5 5.81432 12.7822 5.76466 13.1482L5.75781 13.25V13.7418L5.76568 13.8501C5.92829 14.9637 6.85995 15.5009 8.25776 15.5009C9.58893 15.5009 10.4973 15.0141 10.7215 14.0064L10.7499 13.8513L10.7578 13.7427V13.25C10.7578 12.8703 10.4757 12.5565 10.1096 12.5068L10.0078 12.5ZM18.0078 12.9961H13.5101L13.4083 13.003C13.0423 13.0526 12.7601 13.3664 12.7601 13.7461C12.7601 14.1258 13.0423 14.4396 13.4083 14.4893L13.5101 14.4961H18.0078L18.1096 14.4893C18.4757 14.4396 18.7578 14.1258 18.7578 13.7461C18.7578 13.3664 18.4757 13.0526 18.1096 13.003L18.0078 12.9961ZM8.25781 8.50218C7.4294 8.50218 6.75784 9.17374 6.75784 10.0022C6.75784 10.8306 7.4294 11.5021 8.25781 11.5021C9.08623 11.5021 9.75779 10.8306 9.75779 10.0022C9.75779 9.17374 9.08623 8.50218 8.25781 8.50218ZM18.0078 9.5H13.5101L13.4083 9.50685C13.0423 9.55651 12.7601 9.8703 12.7601 10.25C12.7601 10.6297 13.0423 10.9435 13.4083 10.9932L13.5101 11H18.0078L18.1096 10.9932C18.4757 10.9435 18.7578 10.6297 18.7578 10.25C18.7578 9.8703 18.4757 9.55651 18.1096 9.50685L18.0078 9.5Z" fill="#222222"/>
</svg>
