<svg width="25" height="24" viewBox="0 0 25 24" fill="none" xmlns="http://www.w3.org/2000/svg">
<path d="M20.0078 4C21.2505 4 22.2578 5.00736 22.2578 6.25V17.7546C22.2578 18.9972 21.2505 20.0046 20.0078 20.0046H4.50781C3.26517 20.0046 2.25781 18.9972 2.25781 17.7546V6.25C2.25781 5.00736 3.26517 4 4.50781 4H20.0078ZM20.0078 5.5H4.50781C4.0936 5.5 3.75781 5.83579 3.75781 6.25V17.7546C3.75781 18.1688 4.0936 18.5046 4.50781 18.5046H20.0078C20.422 18.5046 20.7578 18.1688 20.7578 17.7546V6.25C20.7578 5.83579 20.422 5.5 20.0078 5.5ZM10.0078 12.5C10.422 12.5 10.7578 12.8358 10.7578 13.25V13.7427L10.7499 13.8513C10.5871 14.9642 9.65549 15.5009 8.25776 15.5009C6.85995 15.5009 5.92829 14.9637 5.76568 13.8501L5.75781 13.7418V13.25C5.75781 12.8358 6.0936 12.5 6.50781 12.5H10.0078ZM13.5101 12.9961H18.0078C18.422 12.9961 18.7578 13.3319 18.7578 13.7461C18.7578 14.1258 18.4757 14.4396 18.1096 14.4893L18.0078 14.4961H13.5101C13.0959 14.4961 12.7601 14.1604 12.7601 13.7461C12.7601 13.3664 13.0423 13.0526 13.4083 13.003L13.5101 12.9961H18.0078H13.5101ZM8.25781 8.50218C9.08623 8.50218 9.75779 9.17374 9.75779 10.0022C9.75779 10.8306 9.08623 11.5021 8.25781 11.5021C7.4294 11.5021 6.75784 10.8306 6.75784 10.0022C6.75784 9.17374 7.4294 8.50218 8.25781 8.50218ZM13.5101 9.5H18.0078C18.422 9.5 18.7578 9.83579 18.7578 10.25C18.7578 10.6297 18.4757 10.9435 18.1096 10.9932L18.0078 11H13.5101C13.0959 11 12.7601 10.6642 12.7601 10.25C12.7601 9.8703 13.0423 9.55651 13.4083 9.50685L13.5101 9.5H18.0078H13.5101Z" fill="#222222"/>
</svg>
