<svg width="25" height="24" viewBox="0 0 25 24" fill="none" xmlns="http://www.w3.org/2000/svg">
<g id="Size=24, Theme=Filled">
<path id="Shape" d="M12.0441 2.03849C12.198 1.98717 12.3645 1.98717 12.5184 2.03849L16.2684 3.28849C16.5747 3.39057 16.7812 3.67718 16.7812 4V9C16.7812 9.32282 16.5747 9.60943 16.2684 9.71151L13.0312 10.7906V13H14.7812C16.0239 13 17.0312 14.0074 17.0312 15.25V16.0945C18.3252 16.4275 19.2812 17.6021 19.2812 19C19.2812 20.6569 17.9381 22 16.2812 22C14.6244 22 13.2812 20.6569 13.2812 19C13.2812 17.6021 14.2373 16.4275 15.5312 16.0945V15.25C15.5312 14.8358 15.1955 14.5 14.7812 14.5H9.78125C9.36704 14.5 9.03125 14.8358 9.03125 15.25V16.0945C10.3252 16.4275 11.2812 17.6021 11.2812 19C11.2812 20.6569 9.9381 22 8.28125 22C6.6244 22 5.28125 20.6569 5.28125 19C5.28125 17.6021 6.23733 16.4275 7.53125 16.0945V15.25C7.53125 14.0074 8.53861 13 9.78125 13H11.5312V10.7906L8.29408 9.71151C7.98782 9.60943 7.78125 9.32282 7.78125 9V4C7.78125 3.67718 7.98782 3.39057 8.29408 3.28849L12.0441 2.03849ZM10.0697 5.51283C9.93875 5.90579 10.1511 6.33053 10.5441 6.46151L11.5312 6.79057V7.75C11.5312 8.16421 11.867 8.5 12.2812 8.5C12.6955 8.5 13.0312 8.16421 13.0312 7.75V6.79057L14.0184 6.46151C14.4114 6.33053 14.6237 5.90579 14.4928 5.51283C14.3618 5.11987 13.937 4.9075 13.5441 5.03849L12.2812 5.45943L11.0184 5.03849C10.6255 4.9075 10.2007 5.11987 10.0697 5.51283Z" fill="#222222"/>
</g>
</svg>
