<svg xmlns="http://www.w3.org/2000/svg" width="25" height="24" viewBox="0 0 25 24" fill="none">
    <path d="M10.0697 5.51283C10.2007 5.11987 10.6255 4.9075 11.0184 5.03849L12.2812 5.45943L13.5441 5.03849C13.937 4.9075 14.3618 5.11987 14.4928 5.51283C14.6237 5.90579 14.4114 6.33053 14.0184 6.46151L13.0312 6.79057V7.75C13.0312 8.16421 12.6955 8.5 12.2812 8.5C11.867 8.5 11.5312 8.16421 11.5312 7.75V6.79057L10.5441 6.46151C10.1511 6.33053 9.93875 5.90579 10.0697 5.51283ZM12.5184 2.03849C12.3645 1.98717 12.198 1.98717 12.0441 2.03849L8.29408 3.28849C7.98782 3.39057 7.78125 3.67718 7.78125 4V9C7.78125 9.32282 7.98782 9.60943 8.29408 9.71151L11.5312 10.7906V13H9.78125C8.53861 13 7.53125 14.0074 7.53125 15.25V16.0945C6.23733 16.4275 5.28125 17.6021 5.28125 19C5.28125 20.6569 6.6244 22 8.28125 22C9.9381 22 11.2812 20.6569 11.2812 19C11.2812 17.6021 10.3252 16.4275 9.03125 16.0945V15.25C9.03125 14.8358 9.36704 14.5 9.78125 14.5H14.7812C15.1955 14.5 15.5312 14.8358 15.5312 15.25V16.0945C14.2373 16.4275 13.2812 17.6021 13.2812 19C13.2812 20.6569 14.6244 22 16.2812 22C17.9381 22 19.2812 20.6569 19.2812 19C19.2812 17.6021 18.3252 16.4275 17.0312 16.0945V15.25C17.0312 14.0074 16.0239 13 14.7812 13H13.0312V10.7906L16.2684 9.71151C16.5747 9.60943 16.7812 9.32282 16.7812 9V4C16.7812 3.67718 16.5747 3.39057 16.2684 3.28849L12.5184 2.03849ZM9.28125 8.45943V4.54057L12.2812 3.54057L15.2812 4.54057V8.45943L12.2812 9.45943L9.28125 8.45943ZM8.28125 17.5C9.10968 17.5 9.78125 18.1716 9.78125 19C9.78125 19.8284 9.10968 20.5 8.28125 20.5C7.45282 20.5 6.78125 19.8284 6.78125 19C6.78125 18.1716 7.45282 17.5 8.28125 17.5ZM14.7812 19C14.7812 18.1716 15.4528 17.5 16.2812 17.5C17.1097 17.5 17.7812 18.1716 17.7812 19C17.7812 19.8284 17.1097 20.5 16.2812 20.5C15.4528 20.5 14.7812 19.8284 14.7812 19Z" fill="#222222"/>
</svg>