<svg width="20" height="20" viewBox="0 0 20 20" fill="none" xmlns="http://www.w3.org/2000/svg">
<path d="M15.2084 12.083C16.9343 12.083 18.3334 13.4821 18.3334 15.208C18.3334 16.8782 17.0231 18.2424 15.377 18.3287L15.2113 18.333L14.378 18.3369C14.0328 18.3384 13.7517 18.0599 13.7501 17.7147C13.7486 17.3983 13.9826 17.1357 14.2874 17.0929L14.3722 17.0868L15.2084 17.083C16.2439 17.083 17.0834 16.2435 17.0834 15.208C17.0834 14.2156 16.3124 13.4033 15.3368 13.3373L15.2084 13.333H14.3751C14.0299 13.333 13.7501 13.0532 13.7501 12.708C13.7501 12.3916 13.9852 12.1301 14.2903 12.0887L14.3751 12.083H15.2084ZM11.4584 12.083C11.8036 12.083 12.0834 12.3628 12.0834 12.708C12.0834 13.0244 11.8483 13.2859 11.5432 13.3273L11.4584 13.333H10.6251C9.58955 13.333 8.75008 14.1725 8.75008 15.208C8.75008 16.2004 9.52105 17.0127 10.4967 17.0787L10.6251 17.083H11.4584C11.8036 17.083 12.0834 17.3628 12.0834 17.708C12.0834 18.0244 11.8483 18.2859 11.5432 18.3273L11.4584 18.333H10.6251C8.89919 18.333 7.50008 16.9339 7.50008 15.208C7.50008 13.5378 8.81038 12.1736 10.4591 12.0873L10.6251 12.083H11.4584ZM6.83919 3.33301C7.22299 3.33301 7.59616 3.45075 7.9092 3.6683L8.03953 3.76759L10.0184 5.41634H16.4584C17.4057 5.41634 18.1889 6.11881 18.3155 7.03124L18.3291 7.16297L18.3334 7.29134L18.3341 12.779C17.9966 12.3454 17.5709 11.9838 17.0838 11.7213L17.0834 7.29134C17.0834 6.97493 16.8483 6.71343 16.5432 6.67205L16.4584 6.66634H10.0176L8.03953 8.31509C7.74469 8.56079 7.38263 8.70924 7.00288 8.74252L6.83919 8.74967L2.91675 8.74884V14.7913C2.91675 15.1078 3.15188 15.3693 3.45694 15.4106L3.54175 15.4163L6.67216 15.4168C6.69501 15.8565 6.7896 16.2771 6.94443 16.6673L3.54175 16.6663C2.54936 16.6663 1.73704 15.8954 1.67107 14.9197L1.66675 14.7913V5.20801C1.66675 4.21562 2.43772 3.4033 3.41337 3.33733L3.54175 3.33301H6.83919ZM15.2084 14.583C15.5536 14.583 15.8334 14.8628 15.8334 15.208C15.8334 15.5244 15.5983 15.7859 15.2932 15.8273L15.2084 15.833H10.6251C10.2799 15.833 10.0001 15.5532 10.0001 15.208C10.0001 14.8916 10.2352 14.6301 10.5403 14.5887L10.6251 14.583H15.2084ZM6.83919 4.58301H3.54175C3.22534 4.58301 2.96384 4.81814 2.92245 5.1232L2.91675 5.20801V7.49884L6.83919 7.49967C6.95615 7.49967 7.07016 7.46687 7.16859 7.40582L7.2393 7.35481L8.81508 6.04051L7.2393 4.72787C7.14944 4.65299 7.04086 4.60521 6.92616 4.58909L6.83919 4.58301Z" fill="#72BF44"/>
</svg>
