<svg width="24" height="24" viewBox="0 0 24 24" fill="none" xmlns="http://www.w3.org/2000/svg">
<path d="M10.8834 7.15793C11.3219 5.3873 12.3054 4.08594 13.7988 2.91001C13.9432 4.7413 14.8677 6.06794 15.8245 7.38867C15.8245 7.38877 15.8246 7.38888 15.8247 7.38898L16.377 8.15326C17.3913 9.57752 18.3596 11.1504 18.6036 13.4476L18.6397 13.8726C18.6524 14.0623 18.672 14.3799 18.672 14.5022C18.672 18.2099 15.7836 21.2179 12.2207 21.337L11.9948 21.3406C8.3337 21.3377 5.32923 18.2855 5.32823 14.5041C5.32823 14.5035 5.32823 14.5029 5.32823 14.5022L5.3294 14.3028L5.33657 14.0998L5.33658 14.0998L5.33672 14.095C5.39337 12.0749 5.90537 10.869 6.36598 10.1815C6.59349 9.84196 6.81483 9.61942 6.97625 9.48331C6.99429 9.52416 7.01485 9.569 7.03804 9.61717C7.13807 9.82503 7.29043 10.1025 7.50365 10.3934C7.92527 10.9687 8.62539 11.6495 9.67411 11.8786L10.4735 12.0532L10.4836 11.2351L10.4898 10.7356C10.5104 9.68577 10.5897 8.34775 10.8834 7.15793Z" stroke="#222222" stroke-width="1.33438"/>
<path d="M11.4604 16.0982L11.4581 15.956L11.4585 15.7117L11.469 15.5206C11.484 15.3532 11.5153 15.1809 11.5755 14.9597C11.6101 14.8335 11.7042 14.6514 11.9146 14.4006C12.12 14.1558 12.4123 13.8735 12.8052 13.5429L12.835 13.5211C12.8428 13.5173 12.853 13.5136 12.8656 13.5111C12.9052 13.5032 12.9404 13.5115 12.962 13.5234C12.9656 13.5254 12.9683 13.5272 12.9703 13.5286L13.0157 13.7046L13.0157 13.7046L13.0179 13.7127C13.1142 14.0652 13.2139 14.3701 13.315 14.6202C13.4121 14.8605 13.5251 15.0873 13.6604 15.2562L13.6604 15.2562L13.6641 15.2607L14.0794 15.7685L14.2432 15.9795C14.6139 16.4771 14.7359 16.8048 14.7359 17.1668C14.7359 18.4842 13.5621 19.647 12 19.647C10.4391 19.647 9.26594 18.4862 9.26406 17.17L9.26531 17.059L9.27559 16.8527C9.30026 16.4995 9.36677 16.2931 9.53687 15.9647L9.54868 15.9458C9.55224 15.9431 9.55816 15.9394 9.56718 15.9357C9.5976 15.9233 9.63493 15.922 9.66753 15.9325C9.68717 15.9387 9.69577 15.9458 9.69833 15.9483L9.70283 15.9568L9.70952 15.9682L9.76248 16.0582L9.76973 16.0705L9.77756 16.0825C10.004 16.4286 10.329 16.6329 10.7477 16.6986L10.7676 16.7018L10.7877 16.7036L10.8074 16.7053L11.4709 16.7642L11.4604 16.0982ZM12.9748 13.5325C12.9748 13.5326 12.9745 13.5322 12.974 13.5316C12.9746 13.5322 12.9749 13.5325 12.9748 13.5325Z" stroke="#222222" stroke-width="1.2"/>
</svg>
