<svg width="24" height="24" viewBox="0 0 24 24" fill="none" xmlns="http://www.w3.org/2000/svg">
<path d="M7.94083 2.66038C7.75325 2.14093 7.18008 1.87189 6.66063 2.05947C6.14117 2.24705 5.87214 2.82022 6.05972 3.33967L8.3107 9.57315C8.45169 9.96359 8.213 10.3882 7.80614 10.4706C7.48182 10.5363 7.15727 10.359 7.03733 10.0506L4.93227 4.63758C4.7321 4.12285 4.15255 3.86785 3.63782 4.06802C3.12309 4.26819 2.86809 4.84774 3.06826 5.36247L6.22691 13.4847C4.52529 13.3011 3.30986 13.7343 2.57774 14.153C2.14995 14.3977 1.94983 14.8481 2.01213 15.2892C2.07089 15.7053 2.35063 16.0559 2.73896 16.2259C4.07452 16.8106 7.12544 18.3139 9.73695 20.8052C10.7627 21.7837 12.2588 22.2767 13.6999 21.8454L16.4985 21.0079C17.3299 20.7591 18.0226 20.1218 18.2738 19.2452C18.5738 18.1984 19 16.4252 19 14.7501C19 13.6 18.5966 12.1648 18.2292 11.08C17.5024 8.93428 16.6879 6.81437 15.9451 4.67239C15.7641 4.15059 15.1944 3.87428 14.6726 4.05523C14.1508 4.23618 13.8745 4.80587 14.0555 5.32767L15.0488 8.19197C15.1879 8.5931 14.9415 9.02487 14.5254 9.10918C14.1836 9.17842 13.8429 8.98607 13.7256 8.65767L11.942 3.66369C11.7563 3.14358 11.184 2.87253 10.6639 3.05829C10.1438 3.24404 9.87278 3.81626 10.0585 4.33636L11.6766 8.86698C11.8206 9.2701 11.5738 9.7072 11.1543 9.79221C10.8127 9.86141 10.472 9.66987 10.3537 9.34208L7.94083 2.66038ZM18.6339 2.32237C18.8701 1.9821 19.3375 1.89772 19.6777 2.13392C20.486 2.69494 21.1561 3.67757 21.5758 4.76066C21.9997 5.85479 22.2051 7.14481 21.9888 8.37944C21.9174 8.78744 21.5287 9.06026 21.1207 8.98879C20.7127 8.91732 20.4398 8.52864 20.5113 8.12063C20.6712 7.20789 20.5236 6.19706 20.1771 5.3026C19.8262 4.39711 19.3083 3.70343 18.8224 3.36615C18.4821 3.12996 18.3978 2.66264 18.6339 2.32237ZM18.2987 4.2387C18.0163 3.93568 17.5417 3.91896 17.2387 4.20136C16.9356 4.48377 16.9189 4.95834 17.2013 5.26137C17.6189 5.70948 18 6.25103 18 7.25003C18 7.66425 18.3358 8.00003 18.75 8.00003C19.1642 8.00003 19.5 7.66425 19.5 7.25003C19.5 5.74903 18.8773 4.85962 18.2987 4.2387Z" fill="#222222"/>
</svg>
