<svg width="24" height="24" viewBox="0 0 24 24" fill="none" xmlns="http://www.w3.org/2000/svg">
<g id="Size=24, Theme=Regular">
<path id="Shape" d="M17.3991 3.60329L16.6453 3.01221C15.4027 2.03792 13.6067 2.24915 12.624 3.48515C11.7454 4.59021 11.8 6.16984 12.7527 7.21165L16.9564 11.8085C17.1942 12.0686 17.604 12.0686 17.8419 11.8085L22.0459 7.2111C22.9983 6.16954 23.053 4.59039 22.1749 3.48543C21.1926 2.24928 19.3967 2.03769 18.154 3.01168L17.3991 3.60329ZM19.0556 15.7079L18.0662 13.0761C18.3103 12.979 18.5372 12.8264 18.7275 12.6183L19.0344 12.2827L20.1596 15.2759C20.4104 15.951 20.453 16.6857 20.2819 17.3853C20.1108 18.0848 19.7338 18.7169 19.1996 19.1999L17.7356 20.5199C17.0022 21.17 16.0515 21.5212 15.0716 21.5039C14.4541 21.5008 13.8429 21.3786 13.2716 21.1439C10.6513 20.1294 7.86134 19.6244 5.05162 19.6559C4.79084 19.6634 4.53286 19.6005 4.3048 19.4738C4.07675 19.3471 3.88704 19.1613 3.75562 18.9359C3.6503 18.7535 3.59485 18.5466 3.59485 18.3359C3.59485 18.1253 3.6503 17.9183 3.75562 17.7359C4.14364 17.1947 4.63505 16.7358 5.20147 16.3857C5.76788 16.0355 6.39807 15.8011 7.05562 15.6959L2.90362 11.5559C2.7291 11.382 2.59063 11.1753 2.49615 10.9478C2.40166 10.7202 2.35303 10.4763 2.35303 10.2299C2.35303 9.98353 2.40166 9.73957 2.49615 9.51202C2.59063 9.28448 2.7291 9.07782 2.90362 8.90391C3.06767 8.74385 3.25858 8.61387 3.46762 8.51991C3.17867 8.2141 3.00116 7.81987 2.96373 7.40081C2.92629 6.98176 3.03111 6.5623 3.26128 6.21012C3.49144 5.85794 3.83354 5.59356 4.23238 5.45962C4.63122 5.32569 5.06355 5.33002 5.45962 5.47191C5.54309 5.18445 5.70029 4.92382 5.91562 4.71591C6.08851 4.54175 6.29416 4.40353 6.5207 4.30921C6.74725 4.21489 6.99022 4.16633 7.23562 4.16633C7.48102 4.16633 7.724 4.21489 7.95054 4.30921C8.17709 4.40353 8.38273 4.54175 8.55562 4.71591C8.64945 4.5032 8.77937 4.30833 8.93962 4.13991C9.29393 3.79323 9.76992 3.5991 10.2656 3.5991C10.5505 3.5991 10.8289 3.66322 11.0814 3.78357C10.9271 4.17631 10.8364 4.5873 10.8089 5.00119L10.7996 4.99191C10.666 4.85824 10.4847 4.78314 10.2956 4.78314C10.202 4.78314 10.1093 4.80158 10.0229 4.8374C9.93638 4.87322 9.85781 4.92572 9.79162 4.99191C9.72544 5.05809 9.67294 5.13667 9.63712 5.22314C9.60129 5.30962 9.58286 5.40231 9.58286 5.49591C9.58286 5.68494 9.65795 5.86624 9.79162 5.99991L10.6316 6.77991L12.2196 8.40694L13.7214 10.0492C13.7347 10.0982 13.7414 10.1489 13.7414 10.1999C13.7414 10.2786 13.7253 10.3565 13.694 10.4287C13.6628 10.501 13.617 10.566 13.5596 10.6199C13.5058 10.6773 13.4407 10.7231 13.3685 10.7543C13.2962 10.7856 13.2183 10.8017 13.1396 10.8017C13.0609 10.8017 12.983 10.7856 12.9108 10.7543C12.8386 10.7231 12.7735 10.6773 12.7196 10.6199L9.71962 7.63191L8.87962 6.79191L7.67962 5.51991C7.55021 5.39665 7.37834 5.32791 7.19962 5.32791C7.02091 5.32791 6.84904 5.39665 6.71962 5.51991C6.59357 5.64787 6.52292 5.82029 6.52292 5.99991C6.52292 6.17953 6.59357 6.35194 6.71962 6.47991L10.0196 9.77991C10.131 9.8913 10.1936 10.0424 10.1936 10.1999C10.1936 10.3574 10.131 10.5085 10.0196 10.6199C9.90823 10.7313 9.75715 10.7939 9.59962 10.7939C9.44209 10.7939 9.29101 10.7313 9.17962 10.6199L6.94762 8.39991L5.26762 6.71991C5.1417 6.5946 4.97127 6.52426 4.79362 6.52426C4.61597 6.52426 4.44555 6.5946 4.31962 6.71991C4.19357 6.84787 4.12292 7.02029 4.12292 7.19991C4.12292 7.37953 4.19357 7.55194 4.31962 7.67991L5.60362 8.95191L8.21962 11.5799C8.33101 11.6913 8.39359 11.8424 8.39359 11.9999C8.39359 12.1574 8.33101 12.3085 8.21962 12.4199C8.10823 12.5313 7.95715 12.5939 7.79962 12.5939C7.64209 12.5939 7.49101 12.5313 7.37962 12.4199L5.99962 11.0519L4.75162 9.80391C4.6257 9.6786 4.45527 9.60826 4.27762 9.60826C4.09997 9.60826 3.92955 9.6786 3.80362 9.80391C3.73855 9.86312 3.68673 9.93543 3.65157 10.0161C3.61641 10.0967 3.59871 10.1839 3.59962 10.2719C3.59317 10.3695 3.60808 10.4672 3.64332 10.5584C3.67855 10.6496 3.73326 10.732 3.80362 10.7999L8.83162 15.7799C8.91455 15.8645 8.97057 15.9718 8.99264 16.0881C9.01471 16.2045 9.00184 16.3248 8.95564 16.4339C8.90944 16.543 8.83199 16.636 8.73304 16.7011C8.63409 16.7662 8.51808 16.8006 8.39962 16.7999C8.39962 16.7999 5.81962 16.7999 4.81162 18.4199C4.81162 18.4679 4.90762 18.5519 5.05162 18.5519C5.10744 18.5455 5.16381 18.5455 5.21962 18.5519C8.13206 18.5482 11.0203 19.0811 13.7396 20.1239C14.2547 20.3663 14.828 20.4577 15.3929 20.3877C15.9579 20.3176 16.4914 20.0888 16.9316 19.7279L18.4316 18.3479C18.7898 18.0221 19.041 17.5957 19.1524 17.1245C19.2638 16.6534 19.23 16.1595 19.0556 15.7079ZM11.6676 16.7358C12.1443 16.4982 12.9146 16.3608 13.7012 16.4919C14.474 16.6207 15.2113 16.9987 15.7007 17.7327C15.8845 18.0085 16.257 18.083 16.5327 17.8991C16.8084 17.7153 16.8829 17.3428 16.6991 17.0671C15.9885 16.0012 14.9258 15.4795 13.8986 15.3082C12.8852 15.1393 11.8555 15.3013 11.1322 15.6618C10.8357 15.8097 10.7151 16.1699 10.8629 16.4665C11.0108 16.7631 11.371 16.8836 11.6676 16.7358Z" fill="#222222"/>
</g>
</svg>
