<svg width="24" height="24" viewBox="0 0 24 24" fill="none" xmlns="http://www.w3.org/2000/svg">
<g id="Size=24, Theme=Filled">
<path id="Shape" d="M17.3999 13.2C18.9955 13.2 20.4589 12.6338 21.6 11.6913V17.4C21.6 19.0569 20.2569 20.4 18.6 20.4H5.4C3.74314 20.4 2.3999 19.0569 2.3999 17.4V8.8476L11.6958 14.3172C11.8836 14.4276 12.1164 14.4276 12.3042 14.3172L14.9805 12.7425C15.7297 13.0378 16.5458 13.2 17.3999 13.2ZM5.4 4.8H11.0483C10.8865 5.3722 10.7999 5.97598 10.7999 6.6C10.7999 8.88684 11.963 10.902 13.7298 12.0863L12 13.1039L2.41821 7.46751C2.58364 5.96712 3.85552 4.8 5.4 4.8ZM11.9999 6.6C11.9999 9.58234 14.4176 12 17.3999 12C20.3822 12 22.7999 9.58234 22.7999 6.6C22.7999 3.61766 20.3822 1.2 17.3999 1.2C14.4176 1.2 11.9999 3.61766 11.9999 6.6ZM18.4756 3.47573C18.71 3.24142 19.0899 3.24142 19.3242 3.47573L21.4242 5.57573C21.4817 5.63326 21.5251 5.69956 21.5544 5.77033C21.5837 5.84107 21.5999 5.91864 21.5999 6C21.5999 6.08135 21.5837 6.15892 21.5544 6.22967C21.5255 6.29939 21.483 6.36478 21.4267 6.42171L19.3242 8.52426C19.0899 8.75858 18.71 8.75858 18.4756 8.52426C18.2413 8.28995 18.2413 7.91005 18.4756 7.67573L19.5514 6.6H17.6999C16.5401 6.6 15.5999 7.5402 15.5999 8.7V9C15.5999 9.33137 15.3313 9.6 14.9999 9.6C14.6685 9.6 14.3999 9.33137 14.3999 9V8.7C14.3999 6.87746 15.8774 5.4 17.6999 5.4H19.5514L18.4756 4.32426C18.2413 4.08995 18.2413 3.71005 18.4756 3.47573Z" fill="#222222"/>
</g>
</svg>
