<svg width="24" height="24" viewBox="0 0 24 24" fill="none" xmlns="http://www.w3.org/2000/svg">
<g id="Size=24, Theme=Regular">
<path id="Shape" d="M20.3999 17.4V12.4803C20.8292 12.2609 21.2314 11.9958 21.5999 11.6914V17.4C21.5999 19.0569 20.2568 20.4 18.5999 20.4H5.3999C3.74305 20.4 2.3999 19.0569 2.3999 17.4V7.8C2.3999 6.14314 3.74305 4.8 5.3999 4.8H11.0483C10.939 5.18674 10.8639 5.58791 10.8268 6H5.3999C4.40579 6 3.5999 6.80588 3.5999 7.8V8.1624L11.9999 13.1039L13.7296 12.0861C14.1191 12.3473 14.538 12.568 14.9803 12.7424L12.3041 14.3172C12.1476 14.4092 11.9598 14.4245 11.7929 14.3632L11.6957 14.3172L3.5999 9.5556V17.4C3.5999 18.3941 4.40579 19.2 5.3999 19.2H18.5999C19.594 19.2 20.3999 18.3941 20.3999 17.4ZM11.9999 6.6C11.9999 9.58234 14.4176 12 17.3999 12C20.3822 12 22.7999 9.58234 22.7999 6.6C22.7999 3.61766 20.3822 1.2 17.3999 1.2C14.4176 1.2 11.9999 3.61766 11.9999 6.6ZM18.4756 3.47573C18.71 3.24142 19.0899 3.24142 19.3242 3.47573L21.4242 5.57573C21.4817 5.63326 21.5251 5.69956 21.5544 5.77033C21.5837 5.84107 21.5999 5.91864 21.5999 6C21.5999 6.08135 21.5837 6.15892 21.5544 6.22967C21.5255 6.29939 21.483 6.36478 21.4267 6.42171L19.3242 8.52426C19.0899 8.75858 18.71 8.75858 18.4756 8.52426C18.2413 8.28995 18.2413 7.91005 18.4756 7.67573L19.5514 6.6H17.6999C16.5401 6.6 15.5999 7.5402 15.5999 8.7V9C15.5999 9.33137 15.3313 9.6 14.9999 9.6C14.6685 9.6 14.3999 9.33137 14.3999 9V8.7C14.3999 6.87746 15.8774 5.4 17.6999 5.4H19.5514L18.4756 4.32426C18.2413 4.08995 18.2413 3.71005 18.4756 3.47573Z" fill="#222222"/>
</g>
</svg>
