<svg width="24" height="24" viewBox="0 0 24 24" fill="none" xmlns="http://www.w3.org/2000/svg">
<g id="Size=24, Theme=Regular">
<path id="Shape" d="M11.9942 2.40002C9.34327 2.40002 7.19424 4.54906 7.19424 7.20002C7.19424 9.85099 9.34327 12 11.9942 12C14.6452 12 16.7942 9.85099 16.7942 7.20002C16.7942 4.54906 14.6452 2.40002 11.9942 2.40002ZM8.39424 7.20002C8.39424 5.2118 10.006 3.60002 11.9942 3.60002C13.9825 3.60002 15.5942 5.2118 15.5942 7.20002C15.5942 9.18825 13.9825 10.8 11.9942 10.8C10.006 10.8 8.39424 9.18825 8.39424 7.20002ZM6.00471 13.2C4.67802 13.2 3.59424 14.2643 3.59424 15.6C3.59424 17.6295 4.59361 19.1596 6.15623 20.1559C7.6946 21.1368 9.76855 21.6 11.9942 21.6C12.0966 21.6 12.1987 21.599 12.3004 21.5971C11.9952 21.2271 11.7295 20.8232 11.5098 20.392C9.62936 20.3293 7.98543 19.8991 6.80138 19.1441C5.54096 18.3405 4.79424 17.1706 4.79424 15.6C4.79424 14.9361 5.33167 14.4 6.00471 14.4L11.5139 14.4C11.7334 13.9707 11.9985 13.5686 12.3028 13.2L6.00471 13.2ZM22.7942 17.4C22.7942 20.3824 20.3766 22.8 17.3942 22.8C14.4119 22.8 11.9942 20.3824 11.9942 17.4C11.9942 14.4177 14.4119 12 17.3942 12C20.3766 12 22.7942 14.4177 22.7942 17.4ZM14.3942 17.4C14.3942 17.7314 14.6629 18 14.9942 18H19.7942C20.1256 18 20.3942 17.7314 20.3942 17.4C20.3942 17.0687 20.1256 16.8 19.7942 16.8H14.9942C14.6629 16.8 14.3942 17.0687 14.3942 17.4Z" fill="#222222"/>
</g>
</svg>
