<svg width="24" height="24" viewBox="0 0 24 24" fill="none" xmlns="http://www.w3.org/2000/svg">
<g id="Size=24, Theme=Regular">
<path id="Shape" d="M11.3079 15.4992C11.4803 14.9657 11.7198 14.4624 12.0165 13.9992H5.24692C4.0049 13.9992 2.99805 15.0061 2.99805 16.2481V16.8258C2.99805 17.7185 3.31657 18.582 3.89633 19.2609C5.46263 21.0952 7.84864 22.0004 10.9945 22.0004C11.5944 22.0004 12.1667 21.9674 12.7111 21.9014C12.32 21.4767 11.9848 20.9997 11.7171 20.4821C11.4825 20.4943 11.2416 20.5004 10.9945 20.5004C8.2562 20.5004 6.29032 19.7546 5.03701 18.2869C4.68916 17.8795 4.49805 17.3614 4.49805 16.8258V16.2481C4.49805 15.8345 4.83333 15.4992 5.24692 15.4992H11.3079ZM10.9945 2.00391C13.7559 2.00391 15.9945 4.24248 15.9945 7.00391C15.9945 9.76533 13.7559 12.0039 10.9945 12.0039C8.23308 12.0039 5.99451 9.76533 5.99451 7.00391C5.99451 4.24248 8.23308 2.00391 10.9945 2.00391ZM10.9945 3.50391C9.06151 3.50391 7.49451 5.07091 7.49451 7.00391C7.49451 8.9369 9.06151 10.5039 10.9945 10.5039C12.9275 10.5039 14.4945 8.9369 14.4945 7.00391C14.4945 5.07091 12.9275 3.50391 10.9945 3.50391ZM22.9941 17.5C22.9941 20.5376 20.5317 23 17.4941 23C14.4566 23 11.9941 20.5376 11.9941 17.5C11.9941 14.4624 14.4566 12 17.4941 12C20.5317 12 22.9941 14.4624 22.9941 17.5ZM18.0495 14.4206C17.8747 13.8598 17.1136 13.8598 16.9388 14.4206L16.3818 16.2077H14.5792C14.0135 16.2077 13.7783 16.9623 14.236 17.3089L15.6943 18.4134L15.1372 20.2004C14.9624 20.7612 15.5782 21.2276 16.0358 20.881L17.4941 19.7766L18.9524 20.881C19.4101 21.2276 20.0258 20.7612 19.851 20.2004L19.294 18.4134L20.7523 17.3089C21.21 16.9623 20.9748 16.2077 20.4091 16.2077H18.6065L18.0495 14.4206Z" fill="#222222"/>
</g>
</svg>
