<svg width="24" height="24" viewBox="0 0 24 24" fill="none" xmlns="http://www.w3.org/2000/svg">
<g id="Size=24, Theme=Regular">
<path id="Shape" d="M17.5004 12C20.5379 12 23.0004 14.4624 23.0004 17.5C23.0004 20.5376 20.5379 23 17.5004 23C14.4628 23 12.0004 20.5376 12.0004 17.5C12.0004 14.4624 14.4628 12 17.5004 12ZM12.0226 13.9993C11.7259 14.4626 11.4864 14.966 11.314 15.4996L4.25278 15.4999C3.83919 15.4999 3.50391 15.8352 3.50391 16.2488V16.8265C3.50391 17.3622 3.69502 17.8802 4.04287 18.2876C5.29618 19.7553 7.26206 20.5011 10.0004 20.5011C10.5968 20.5011 11.1567 20.4657 11.6806 20.3952C11.9258 20.8901 12.2333 21.3486 12.5921 21.7615C11.7966 21.9217 10.9317 22.0011 10.0004 22.0011C6.8545 22.0011 4.46849 21.0959 2.90219 19.2617C2.32242 18.5828 2.00391 17.7193 2.00391 16.8265V16.2488C2.00391 15.0068 3.01076 13.9999 4.25278 13.9999L12.0226 13.9993ZM17.5004 14L17.4105 14.0081C17.2064 14.0451 17.0455 14.206 17.0084 14.4101L17.0004 14.5L16.9994 17H14.5043L14.4144 17.0081C14.2103 17.0451 14.0494 17.206 14.0123 17.4101L14.0043 17.5L14.0123 17.5899C14.0494 17.794 14.2103 17.9549 14.4144 17.992L14.5043 18H16.9994L17.0004 20.5L17.0084 20.5899C17.0455 20.794 17.2064 20.9549 17.4105 20.9919L17.5004 21L17.5902 20.9919C17.7943 20.9549 17.9553 20.794 17.9923 20.5899L18.0004 20.5L17.9994 18H20.5043L20.5941 17.992C20.7982 17.9549 20.9592 17.794 20.9962 17.5899L21.0043 17.5L20.9962 17.4101C20.9592 17.206 20.7982 17.0451 20.5941 17.0081L20.5043 17H17.9994L18.0004 14.5L17.9923 14.4101C17.9553 14.206 17.7943 14.0451 17.5902 14.0081L17.5004 14ZM10.0004 2.00464C12.7618 2.00464 15.0004 4.24321 15.0004 7.00464C15.0004 9.76606 12.7618 12.0046 10.0004 12.0046C7.23894 12.0046 5.00036 9.76606 5.00036 7.00464C5.00036 4.24321 7.23894 2.00464 10.0004 2.00464ZM10.0004 3.50464C8.06737 3.50464 6.50036 5.07164 6.50036 7.00464C6.50036 8.93764 8.06737 10.5046 10.0004 10.5046C11.9334 10.5046 13.5004 8.93764 13.5004 7.00464C13.5004 5.07164 11.9334 3.50464 10.0004 3.50464Z" fill="#222222"/>
</g>
</svg>
