<svg width="24" height="24" viewBox="0 0 24 24" fill="none" xmlns="http://www.w3.org/2000/svg">
<g id="Size=24, Theme=Filled">
<path id="Shape" d="M15.7441 2C16.9868 2 17.9941 3.00736 17.9941 4.25V19.75C17.9941 20.9926 16.9868 22 15.7441 22H8.24414C7.0015 22 5.99414 20.9926 5.99414 19.75V4.25C5.99414 3.00736 7.0015 2 8.24414 2H15.7441ZM13.2441 18H10.7441C10.3299 18 9.99414 18.3358 9.99414 18.75C9.99414 19.1642 10.3299 19.5 10.7441 19.5H13.2441C13.6584 19.5 13.9941 19.1642 13.9941 18.75C13.9941 18.3358 13.6584 18 13.2441 18Z" fill="#222222"/>
</g>
</svg>
