<svg width="24" height="24" viewBox="0 0 24 24" fill="none" xmlns="http://www.w3.org/2000/svg">
<g id="Theme=Filled">
<path id="Shape" fill-rule="evenodd" clip-rule="evenodd" d="M14.9212 3.38397H9.07847L9.07847 10.664H14.9212V3.38397ZM9.07847 2C8.31412 2 7.6945 2.61962 7.6945 3.38397V4.23949H7.00995C6.24565 4.23949 5.62598 4.85913 5.62598 5.62346V20.616C5.62598 21.3804 6.24565 22 7.00995 22H16.9904C17.7546 22 18.3743 21.3804 18.3743 20.616V5.62346C18.3743 4.85913 17.7546 4.23949 16.9904 4.23949H16.3051V3.38397C16.3051 2.61962 15.6855 2 14.9212 2H9.07847ZM9.22714 15.7519C9.6108 15.7519 9.92183 15.4408 9.92183 15.0572C9.92183 14.6735 9.6108 14.3625 9.22714 14.3625C8.84347 14.3625 8.53245 14.6735 8.53245 15.0572C8.53245 15.4408 8.84347 15.7519 9.22714 15.7519ZM12.6952 15.0572C12.6952 15.4408 12.3842 15.7519 12.0005 15.7519C11.6168 15.7519 11.3058 15.4408 11.3058 15.0572C11.3058 14.6735 11.6168 14.3625 12.0005 14.3625C12.3842 14.3625 12.6952 14.6735 12.6952 15.0572ZM12.0005 18.2799C12.3842 18.2799 12.6952 17.9689 12.6952 17.5852C12.6952 17.2015 12.3842 16.8905 12.0005 16.8905C11.6168 16.8905 11.3058 17.2015 11.3058 17.5852C11.3058 17.9689 11.6168 18.2799 12.0005 18.2799ZM14.7738 15.7519C15.1575 15.7519 15.4685 15.4408 15.4685 15.0572C15.4685 14.6735 15.1575 14.3625 14.7738 14.3625C14.3902 14.3625 14.0791 14.6735 14.0791 15.0572C14.0791 15.4408 14.3902 15.7519 14.7738 15.7519ZM14.7738 18.2799C15.1575 18.2799 15.4685 17.9689 15.4685 17.5852C15.4685 17.2015 15.1575 16.8905 14.7738 16.8905C14.3902 16.8905 14.0791 17.2015 14.0791 17.5852C14.0791 17.9689 14.3902 18.2799 14.7738 18.2799ZM9.22714 18.2799C9.6108 18.2799 9.92183 17.9689 9.92183 17.5852C9.92183 17.2015 9.6108 16.8905 9.22714 16.8905C8.84347 16.8905 8.53245 17.2015 8.53245 17.5852C8.53245 17.9689 8.84347 18.2799 9.22714 18.2799Z" fill="#222222"/>
</g>
</svg>
