<svg width="24" height="24" viewBox="0 0 24 24" fill="none" xmlns="http://www.w3.org/2000/svg">
<g id="Theme=Line">
<path id="Shape" fill-rule="evenodd" clip-rule="evenodd" d="M9.07847 3.38397H14.9212V10.664H9.07847L9.07847 3.38397ZM7.6945 3.38397C7.6945 2.61962 8.31412 2 9.07847 2H14.9212C15.6855 2 16.3051 2.61962 16.3051 3.38397V4.23949H16.9904C17.7546 4.23949 18.3743 4.85913 18.3743 5.62346V20.616C18.3743 21.3804 17.7546 22 16.9904 22H7.00995C6.24565 22 5.62598 21.3804 5.62598 20.616V5.62346C5.62598 4.85913 6.24565 4.23949 7.00995 4.23949H7.6945V3.38397ZM7.6945 5.62346H7.00995V20.616H16.9904V5.62346H16.3051V10.664C16.3051 11.4284 15.6855 12.048 14.9212 12.048H9.07847C8.31412 12.048 7.6945 11.4284 7.6945 10.664V5.62346ZM12.6952 15.0288C12.6952 15.4125 12.3842 15.7235 12.0005 15.7235C11.6168 15.7235 11.3058 15.4125 11.3058 15.0288C11.3058 14.6451 11.6168 14.3341 12.0005 14.3341C12.3842 14.3341 12.6952 14.6451 12.6952 15.0288ZM12.0005 18.2515C12.3842 18.2515 12.6952 17.9405 12.6952 17.5568C12.6952 17.1732 12.3842 16.8621 12.0005 16.8621C11.6168 16.8621 11.3058 17.1732 11.3058 17.5568C11.3058 17.9405 11.6168 18.2515 12.0005 18.2515ZM15.4685 15.0288C15.4685 15.4125 15.1575 15.7235 14.7738 15.7235C14.3902 15.7235 14.0791 15.4125 14.0791 15.0288C14.0791 14.6451 14.3902 14.3341 14.7738 14.3341C15.1575 14.3341 15.4685 14.6451 15.4685 15.0288ZM14.7738 18.2515C15.1575 18.2515 15.4685 17.9405 15.4685 17.5568C15.4685 17.1732 15.1575 16.8621 14.7738 16.8621C14.3902 16.8621 14.0791 17.1732 14.0791 17.5568C14.0791 17.9405 14.3902 18.2515 14.7738 18.2515ZM9.92183 15.0288C9.92183 15.4125 9.6108 15.7235 9.22714 15.7235C8.84347 15.7235 8.53245 15.4125 8.53245 15.0288C8.53245 14.6451 8.84347 14.3341 9.22714 14.3341C9.6108 14.3341 9.92183 14.6451 9.92183 15.0288ZM9.22714 18.2515C9.6108 18.2515 9.92183 17.9405 9.92183 17.5568C9.92183 17.1732 9.6108 16.8621 9.22714 16.8621C8.84347 16.8621 8.53245 17.1732 8.53245 17.5568C8.53245 17.9405 8.84347 18.2515 9.22714 18.2515Z" fill="#222222"/>
</g>
</svg>
