<svg width="25" height="24" viewBox="0 0 25 24" fill="none" xmlns="http://www.w3.org/2000/svg">
<path d="M11.471 2.06803C10.9763 2.17677 10.65 2.39968 10.4597 2.75852C10.3782 2.90532 10.3564 3.09562 10.3401 3.70456L10.3184 4.46573L9.90517 4.61797C9.67138 4.69952 9.31798 4.84632 9.10593 4.94963L8.72534 5.12905L8.17621 4.59622C7.74669 4.18301 7.5727 4.05252 7.38785 4.00359C6.89308 3.86767 6.43094 4.04165 5.75675 4.61797C4.96839 5.29216 4.51712 5.92828 4.46819 6.45023C4.43013 6.85257 4.59867 7.16791 5.15868 7.72249L5.64258 8.20094L5.43597 8.64677C5.32179 8.886 5.16956 9.25028 5.10431 9.45145L4.97926 9.81029L4.21265 9.83204C3.49497 9.84835 3.43516 9.85922 3.19593 10.0006C2.69573 10.2942 2.5 10.8488 2.5 11.996C2.5 13.1432 2.69573 13.6977 3.19593 13.9913C3.43516 14.1327 3.49497 14.1436 4.21265 14.1599L4.97383 14.1816L5.12606 14.5948C5.20762 14.8286 5.35442 15.182 5.45772 15.3941L5.63714 15.7747L5.10431 16.3238C4.6911 16.7533 4.56062 16.9273 4.51168 17.1122C4.37576 17.6124 4.54974 18.0691 5.1315 18.7541C5.55015 19.238 6.11016 19.7219 6.46356 19.8905C6.99095 20.146 7.54008 20.0427 7.9696 19.6023C8.08378 19.4881 8.19796 19.3902 8.2197 19.3902C8.24145 19.3902 8.2632 19.9285 8.2632 20.5809V21.7771L8.40456 21.8858C8.54592 22 8.58398 22 12.504 22C16.4241 22 16.4622 22 16.6035 21.8858L16.7449 21.7771V20.5483V19.325L17.0657 19.6186C17.7344 20.2439 18.3162 20.1732 19.2622 19.3685C20.0288 18.7052 20.491 18.0528 20.5399 17.5417C20.578 17.1393 20.4094 16.824 19.8494 16.2694L19.3655 15.791L19.5721 15.3451C19.6863 15.1059 19.8385 14.7416 19.9038 14.5405L20.0288 14.1816L20.7954 14.1599C21.4805 14.1436 21.5784 14.1327 21.785 14.0131C22.2852 13.7249 22.4592 13.2845 22.4972 12.2352C22.5407 10.9357 22.3504 10.3159 21.8176 10.0006C21.5729 9.85922 21.5131 9.84835 20.7954 9.83204L20.0343 9.81029L19.882 9.39708C19.8005 9.16329 19.6537 8.80445 19.5504 8.59784L19.371 8.21725L19.8929 7.67355C20.3224 7.23316 20.4366 7.08092 20.491 6.87432C20.578 6.56985 20.5399 6.25994 20.3822 5.94459C20.1539 5.49332 19.4525 4.71584 18.9414 4.35156C18.0933 3.74262 17.5931 3.8133 16.7503 4.67234L16.2991 5.13448L15.8532 4.92788C15.614 4.8137 15.2497 4.66147 15.0486 4.59622L14.6897 4.47117L14.668 3.70456C14.6517 2.98688 14.6408 2.92707 14.4994 2.68784C14.32 2.37793 13.9775 2.16045 13.5153 2.06259C13.1021 1.9756 11.8679 1.98103 11.471 2.06803ZM13.5697 2.98688C13.6621 3.03581 13.7546 3.11736 13.7763 3.16086C13.7926 3.20979 13.8089 3.63388 13.8089 4.10146C13.8144 4.74302 13.8307 4.98225 13.885 5.05293C13.9285 5.1073 14.2548 5.24866 14.6082 5.36827C14.9616 5.48789 15.4889 5.7108 15.7771 5.86304C16.1958 6.08052 16.3317 6.12945 16.4567 6.09683C16.5437 6.07508 16.8645 5.80867 17.2342 5.43895C17.6257 5.05293 17.9084 4.81914 17.9791 4.81914C18.3162 4.81914 19.5449 6.02615 19.6537 6.46654C19.6917 6.60247 19.6319 6.67315 19.0665 7.25491C18.7022 7.63006 18.4195 7.96171 18.3977 8.04871C18.3705 8.16832 18.4195 8.30968 18.637 8.72289C18.7892 9.01105 19.0121 9.53844 19.1317 9.89184C19.2513 10.2452 19.3927 10.5715 19.4471 10.615C19.5178 10.6693 19.7624 10.6856 20.404 10.6911C20.877 10.6911 21.3065 10.7128 21.3609 10.7454C21.5566 10.8488 21.611 11.1097 21.611 11.996C21.611 12.8822 21.5566 13.1432 21.3609 13.2465C21.3065 13.2791 20.877 13.3008 20.404 13.3008C19.7624 13.3063 19.5178 13.3226 19.4471 13.3769C19.3927 13.4204 19.2513 13.7467 19.1317 14.1001C19.0121 14.4535 18.7892 14.9809 18.637 15.269C18.4195 15.6877 18.3705 15.8236 18.4032 15.9486C18.4249 16.0356 18.6913 16.3564 19.061 16.7261C19.4471 17.1176 19.6809 17.4003 19.6809 17.471C19.6809 17.8081 18.4739 19.0368 18.0335 19.1456C17.8975 19.1836 17.8269 19.1293 17.3158 18.6291C17.0059 18.3192 16.7612 18.0473 16.7775 18.0256C16.8319 17.9331 16.6796 17.2263 16.5328 16.9055C16.4459 16.7261 16.2556 16.4488 16.1088 16.2966L15.8424 16.0193L16.136 15.7366C16.8047 15.0787 17.3375 14.1381 17.5713 13.2138C17.7399 12.5451 17.7399 11.3544 17.5713 10.7291C17.2614 9.58737 16.5709 8.55978 15.6412 7.85841C13.8252 6.48285 11.4547 6.42848 9.54089 7.71705C8.83408 8.1955 8.08378 9.08717 7.73581 9.86466C7.54552 10.2996 7.34979 11.0825 7.30629 11.6208C7.19212 13.0725 7.79562 14.6764 8.84496 15.7094L9.16574 16.0193L8.89933 16.2966C8.75253 16.4488 8.56223 16.7261 8.47524 16.9055C8.32844 17.2263 8.17077 17.9549 8.23602 18.0201C8.29582 18.0799 7.15406 19.1728 7.03444 19.1728C6.65929 19.1728 5.32723 17.8135 5.32723 17.4275C5.32723 17.3949 5.60452 17.0795 5.94705 16.7316C6.30589 16.3619 6.58861 16.0302 6.61036 15.9432C6.63754 15.8236 6.58861 15.6822 6.37113 15.269C6.2189 14.9809 5.99598 14.4535 5.87637 14.1001C5.75675 13.7467 5.61539 13.4204 5.56102 13.3769C5.49034 13.3226 5.24568 13.3063 4.59324 13.3008C3.57109 13.3008 3.51672 13.2791 3.42972 12.8659C3.35361 12.507 3.35361 11.4849 3.42972 11.126C3.51672 10.7128 3.57109 10.6911 4.59324 10.6911C5.24568 10.6856 5.49034 10.6693 5.56102 10.615C5.61539 10.5715 5.75675 10.2452 5.87637 9.89184C5.99598 9.53844 6.2189 9.01105 6.37113 8.72289C6.58861 8.30424 6.63754 8.16832 6.60492 8.04327C6.58317 7.95628 6.31676 7.6355 5.94705 7.26578C5.56646 6.87975 5.32723 6.59159 5.32723 6.52635C5.32723 6.14576 6.68648 4.81914 7.0725 4.81914C7.10512 4.81914 7.42047 5.09642 7.76844 5.43895C8.13815 5.79779 8.46981 6.08052 8.5568 6.10227C8.67641 6.12945 8.81777 6.08052 9.23098 5.86304C9.51914 5.7108 10.0465 5.48789 10.3999 5.36827C10.7533 5.24866 11.0796 5.1073 11.1231 5.05293C11.1774 4.98225 11.1937 4.73758 11.1992 4.07971C11.1992 3.0793 11.2264 3.01406 11.6069 2.92163C11.7266 2.88901 12.1778 2.8727 12.6128 2.87814C13.2272 2.88901 13.4392 2.91619 13.5697 2.98688ZM13.2652 7.72249C14.1406 7.88016 14.8746 8.27162 15.5542 8.94581C16.6688 10.055 17.082 11.5175 16.7123 13.0181C16.5111 13.8282 16.0707 14.5731 15.4183 15.1875C14.9887 15.5952 14.88 15.6442 14.532 15.5517C14.4124 15.5191 14.4179 15.5082 14.6245 15.269C15.141 14.6873 15.402 13.8173 15.2932 13.0562C15.0486 11.3598 13.2978 10.2344 11.6831 10.74C10.3673 11.1532 9.4974 12.5342 9.72031 13.8608C9.80187 14.3284 10.0792 14.9265 10.3836 15.269C10.5902 15.5082 10.5957 15.5191 10.4761 15.5517C10.1879 15.6279 10.0302 15.5844 9.7475 15.3506C8.93195 14.6873 8.40456 13.7467 8.22514 12.643C8.11096 11.947 8.17621 11.213 8.41544 10.5443C8.64379 9.89184 8.88302 9.52756 9.45934 8.94581C9.91604 8.4891 10.0411 8.39667 10.5467 8.14657C11.5091 7.67899 12.3083 7.55394 13.2652 7.72249ZM13.3033 11.6697C14.1678 12.0666 14.6408 13.0453 14.3852 13.9206C14.2656 14.3339 14.1025 14.5785 13.76 14.8939C12.727 15.8182 11.0741 15.3397 10.6446 13.9968C10.3619 13.1105 10.7914 12.1264 11.6396 11.6969C12.1833 11.4196 12.7324 11.4142 13.3033 11.6697ZM14.4559 16.4217C14.7115 16.476 15.0051 16.563 15.1084 16.6174C15.3748 16.7533 15.6303 17.0306 15.7608 17.3242C15.8641 17.5525 15.875 17.6776 15.875 19.3468V21.1301H12.504H9.13312V19.3468C9.13312 17.6776 9.14399 17.5525 9.24729 17.3242C9.37778 17.0306 9.63332 16.7533 9.89973 16.6174C10.0683 16.5304 10.5848 16.4108 11.172 16.3238C11.2644 16.3129 11.9332 16.3075 12.6672 16.3129C13.673 16.3238 14.1134 16.351 14.4559 16.4217Z" fill="#555555"/>
</svg>
