<svg width="24" height="24" viewBox="0 0 24 24" fill="none" xmlns="http://www.w3.org/2000/svg">
<path d="M6.55042 9.83908C6.58356 9.83908 6.61042 9.81222 6.61042 9.77908V3.68231C6.61042 3.23442 6.97351 2.87134 7.42139 2.87134H14.3891C15.5282 2.87134 16.6206 3.32383 17.426 4.12927C18.2315 4.93471 18.684 6.02711 18.684 7.16618C18.684 8.30524 18.2315 9.39765 17.426 10.2031C16.6206 11.0085 15.5282 11.461 14.3891 11.461H8.29236C8.25922 11.461 8.23236 11.4879 8.23236 11.521V14.4243C8.23236 14.4575 8.25922 14.4843 8.29236 14.4843H14.3891C14.837 14.4843 15.2001 14.8474 15.2001 15.2953C15.2001 15.7432 14.837 16.1063 14.3891 16.1063H8.29236C8.25922 16.1063 8.23236 16.1331 8.23236 16.1663V19.9404C8.23236 20.3883 7.86928 20.7513 7.42139 20.7513C6.97351 20.7513 6.61042 20.3883 6.61042 19.9404V16.1663C6.61042 16.1331 6.58356 16.1063 6.55042 16.1063H5.09881C4.65092 16.1063 4.28784 15.7432 4.28784 15.2953C4.28784 14.8474 4.65092 14.4843 5.09881 14.4843H6.55042C6.58356 14.4843 6.61042 14.4575 6.61042 14.4243V11.521C6.61042 11.4879 6.58356 11.461 6.55042 11.461H5.09881C4.65092 11.461 4.28784 11.0979 4.28784 10.65C4.28784 10.2022 4.65092 9.83908 5.09881 9.83908H6.55042ZM8.23236 9.77908C8.23236 9.81222 8.25922 9.83908 8.29236 9.83908H14.3891C15.098 9.83908 15.7779 9.55747 16.2792 9.05621C16.7804 8.55494 17.062 7.87507 17.062 7.16618C17.062 6.45728 16.7804 5.77742 16.2792 5.27615C15.7779 4.77488 15.098 4.49327 14.3891 4.49327H8.29236C8.25922 4.49327 8.23236 4.52014 8.23236 4.55327V9.77908Z" fill="#222222"/>
</svg>
