<svg width="24" height="24" viewBox="0 0 24 24" fill="none" xmlns="http://www.w3.org/2000/svg">
<path d="M5.99961 3.6001C4.67413 3.6001 3.59961 4.67461 3.59961 6.0001V18.0001C3.59961 19.3256 4.67413 20.4001 5.99961 20.4001H12.2364C11.9541 19.4884 11.8316 18.3649 12.3596 17.5201C12.5208 17.238 12.7362 16.9965 12.9875 16.8001H11.3996C11.0682 16.8001 10.7996 16.5315 10.7996 16.2001C10.7996 15.8687 11.0682 15.6001 11.3996 15.6001H14.8886C14.5763 15.0865 14.3996 14.4728 14.3996 13.8001C14.3996 13.5949 14.4154 13.3945 14.4458 13.2001H11.3996C11.0682 13.2001 10.7996 12.9315 10.7996 12.6001C10.7996 12.2687 11.0682 12.0001 11.3996 12.0001H14.8569C15.4644 10.9108 16.6227 10.2001 17.9996 10.2001C18.5996 10.2001 19.1996 10.3201 19.7996 10.6801C20.0148 10.7997 20.2158 10.9431 20.3996 11.1066V6.0001C20.3996 4.67461 19.3251 3.6001 17.9996 3.6001H5.99961ZM8.99961 8.7001C8.99961 9.19715 8.59667 9.6001 8.09961 9.6001C7.60255 9.6001 7.19961 9.19715 7.19961 8.7001C7.19961 8.20304 7.60255 7.8001 8.09961 7.8001C8.59667 7.8001 8.99961 8.20304 8.99961 8.7001ZM8.09961 13.2001C7.60255 13.2001 7.19961 12.7972 7.19961 12.3001C7.19961 11.803 7.60255 11.4001 8.09961 11.4001C8.59667 11.4001 8.99961 11.803 8.99961 12.3001C8.99961 12.7972 8.59667 13.2001 8.09961 13.2001ZM8.99961 15.9001C8.99961 16.3972 8.59667 16.8001 8.09961 16.8001C7.60255 16.8001 7.19961 16.3972 7.19961 15.9001C7.19961 15.403 7.60255 15.0001 8.09961 15.0001C8.59667 15.0001 8.99961 15.403 8.99961 15.9001ZM11.3996 8.4001H16.1996C16.531 8.4001 16.7996 8.66873 16.7996 9.0001C16.7996 9.33147 16.531 9.6001 16.1996 9.6001H11.3996C11.0682 9.6001 10.7996 9.33147 10.7996 9.0001C10.7996 8.66873 11.0682 8.4001 11.3996 8.4001ZM19.1996 11.7212C18.8466 11.517 18.4368 11.4001 17.9996 11.4001C16.6741 11.4001 15.5996 12.4746 15.5996 13.8001C15.5996 15.1256 16.6741 16.2001 17.9996 16.2001C18.4368 16.2001 18.8466 16.0832 19.1996 15.879C19.917 15.464 20.3996 14.6884 20.3996 13.8001C20.3996 12.9118 19.917 12.1361 19.1996 11.7212ZM13.1996 18.9001C13.1996 18.0717 13.8712 17.4001 14.6996 17.4001H21.2996C22.128 17.4001 22.7996 18.0717 22.7996 18.9001C22.7996 18.9352 22.7999 18.9704 22.8003 19.0056C22.8011 19.091 22.8019 19.1766 22.7979 19.2618C22.7964 19.2936 22.7936 19.3365 22.7884 19.3887C22.778 19.493 22.7577 19.6361 22.7183 19.8052C22.6397 20.1422 22.4824 20.5924 22.1661 21.0442C21.5111 21.98 20.2622 22.8001 17.9996 22.8001C16.0662 22.8001 14.8729 22.2012 14.1579 21.443C14.0362 21.314 13.9284 21.1803 13.8331 21.0442C13.6607 20.7979 13.5355 20.5521 13.4446 20.3248C13.3687 20.1352 13.3167 19.9585 13.2809 19.8052C13.2415 19.6361 13.2212 19.493 13.2108 19.3887C13.2056 19.3365 13.2028 19.2936 13.2013 19.2618C13.1996 19.1041 13.1996 19.0153 13.1996 18.9035V18.9001Z" fill="#222222"/>
</svg>
