<svg width="24" height="24" viewBox="0 0 24 24" fill="none" xmlns="http://www.w3.org/2000/svg">
<path d="M6.93806 16.804H5.42606V21.97C5.42606 22.321 5.14706 22.609 4.78706 22.609C4.43606 22.609 4.14806 22.321 4.14806 21.97V16.804H2.60906C2.30306 16.804 2.06006 16.552 2.06006 16.255C2.06006 15.958 2.30306 15.706 2.60906 15.706H6.93806C7.23506 15.706 7.47806 15.958 7.47806 16.255C7.47806 16.552 7.23506 16.804 6.93806 16.804Z" fill="#222222"/>
<path d="M9.26775 16.219V21.97C9.26775 22.33 8.97975 22.609 8.62875 22.609C8.26875 22.609 7.98975 22.33 7.98975 21.97V16.219C7.98975 15.868 8.26875 15.58 8.62875 15.58C8.97975 15.58 9.26775 15.868 9.26775 16.219Z" fill="#222222"/>
<path d="M14.3739 22.141L11.6109 17.776L11.6289 19.927V21.97C11.6289 22.321 11.3679 22.609 11.0169 22.609C10.6569 22.609 10.4319 22.321 10.4319 21.97V16.219C10.4319 15.904 10.6479 15.58 11.0799 15.58C11.4219 15.58 11.6289 15.742 11.8179 16.039L14.5809 20.35L14.5719 18.091V16.219C14.5719 15.868 14.8059 15.58 15.1569 15.58C15.5169 15.58 15.7689 15.868 15.7689 16.219V21.97C15.7689 22.285 15.5439 22.609 15.1029 22.609C14.7609 22.609 14.5719 22.438 14.3739 22.141Z" fill="#222222"/>
<path d="M12 8V2H6C4.89543 2 4 2.89543 4 4V14.7061H6.93806C7.20397 14.7061 7.45111 14.7734 7.66615 14.8904C7.93444 14.6957 8.26577 14.5801 8.62875 14.5801C9.10985 14.5801 9.54342 14.7888 9.84361 15.1204L9.8496 15.1136C10.1558 14.7724 10.5929 14.5801 11.0799 14.5801C11.4227 14.5801 11.7558 14.6655 12.0555 14.8625C12.3367 15.0473 12.5263 15.2899 12.6607 15.5008L12.6616 15.5022L13.5719 16.9226V16.2191C13.5719 15.4358 14.1408 14.5801 15.1569 14.5801C16.1343 14.5801 16.7689 15.3832 16.7689 16.2191V21.9701C16.7689 21.98 16.7688 21.99 16.7687 22H18C19.1046 22 20 21.1046 20 20V10H14C12.8954 10 12 9.10457 12 8Z" fill="#222222"/>
<path d="M13.5 8V2.5L19.5 8.5H14C13.7239 8.5 13.5 8.27614 13.5 8Z" fill="#222222"/>
</svg>
