<svg width="25" height="24" viewBox="0 0 25 24" fill="none" xmlns="http://www.w3.org/2000/svg">
<path fill-rule="evenodd" clip-rule="evenodd" d="M19 20C19 20.275 18.776 20.5 18.5 20.5H18.2418C17.8221 20.5 17.4895 20.8559 17.4962 21.2755C17.5025 21.6758 17.8245 22 18.2248 22H18.5C19.604 22 20.5 21.104 20.5 20V9.828C20.5 9.298 20.289 8.789 19.914 8.414L14.085 2.586C14.07 2.57105 14.0531 2.55808 14.0363 2.5452C14.0238 2.53567 14.0115 2.5262 14 2.516C13.929 2.452 13.859 2.389 13.781 2.336C13.7557 2.31894 13.7281 2.30548 13.7005 2.29207C13.6845 2.28426 13.6685 2.27647 13.653 2.268C13.6363 2.25859 13.6197 2.24897 13.603 2.23933C13.5488 2.20797 13.4944 2.17648 13.437 2.152C13.24 2.07 13.028 2.029 12.813 2.014C12.7933 2.01274 12.7738 2.01008 12.7542 2.00741C12.7271 2.00371 12.6999 2 12.672 2H6.5C5.396 2 4.5 2.896 4.5 4V13.8773C4.5 14.2916 4.83579 14.6273 5.25 14.6273C5.66421 14.6273 6 14.2916 6 13.8773V4C6 3.725 6.224 3.5 6.5 3.5H12.5V8C12.5 9.104 13.396 10 14.5 10H19V20ZM14 4.621L17.878 8.5H14.5C14.224 8.5 14 8.275 14 8V4.621Z" fill="#555555"/>
<path d="M9.91562 16.3351V21.8611C9.91562 22.2841 9.57362 22.6261 9.15962 22.6261C8.73662 22.6261 8.40362 22.2841 8.40362 21.8611V16.3351C8.40362 15.9121 8.73662 15.5791 9.15962 15.5791C9.57362 15.5791 9.91562 15.9121 9.91562 16.3351Z" fill="#555555"/>
<path d="M7.43498 16.9651H6.08498V21.8611C6.08498 22.2841 5.75198 22.6171 5.32898 22.6171C4.91498 22.6171 4.57298 22.2841 4.57298 21.8611V16.9651H3.21398C2.86298 16.9651 2.58398 16.6771 2.58398 16.3351C2.58398 15.9841 2.86298 15.7051 3.21398 15.7051H7.43498C7.78598 15.7051 8.06498 15.9841 8.06498 16.3351C8.06498 16.6771 7.78598 16.9651 7.43498 16.9651Z" fill="#555555"/>
<path d="M12.2639 18.1081L14.7839 22.0951C14.9999 22.4191 15.2339 22.6171 15.6299 22.6171C16.1789 22.6171 16.4219 22.2211 16.4219 21.8611V16.3351C16.4219 15.9121 16.1249 15.5791 15.7109 15.5791C15.2879 15.5791 15.0179 15.9121 15.0179 16.3351V18.0001L15.0269 20.0071L12.5069 16.1011C12.2909 15.7771 12.0479 15.5791 11.6519 15.5791C11.0939 15.5791 10.8689 15.9751 10.8689 16.3351V21.8611C10.8689 22.2841 11.1389 22.6171 11.5619 22.6171C11.9849 22.6171 12.2819 22.2841 12.2819 21.8611V20.0431L12.2639 18.1081Z" fill="#555555"/>
</svg>
