<svg width="24" height="24" viewBox="0 0 24 24" fill="none" xmlns="http://www.w3.org/2000/svg">
<path d="M12.7699 3.13324C12.7699 2.70841 12.4255 2.36401 12.0007 2.36401C11.5758 2.36401 11.2314 2.70841 11.2314 3.13324V5.44116H9.94869C8.92863 5.44116 7.95035 5.84638 7.22905 6.56767C6.50776 7.28897 6.10254 8.26725 6.10254 9.28732C6.10254 10.3074 6.50776 11.2857 7.22905 12.007C7.95035 12.7283 8.92863 13.1335 9.94869 13.1335H14.0513C14.6633 13.1335 15.2503 13.3766 15.683 13.8094C16.1158 14.2422 16.3589 14.8291 16.3589 15.4412C16.3589 16.0532 16.1158 16.6402 15.683 17.0729C15.2503 17.5057 14.6633 17.7489 14.0513 17.7489H12.0195C12.0132 17.7487 12.007 17.7486 12.0007 17.7486C11.9944 17.7486 11.9881 17.7487 11.9819 17.7489H9.96648C9.51179 17.7262 9.07383 17.5695 8.70782 17.2984C8.33768 17.0242 8.05807 16.6455 7.90495 16.2111C7.76374 15.8104 7.32445 15.6001 6.92377 15.7413C6.52309 15.8825 6.31276 16.3218 6.45397 16.7225C6.70916 17.4466 7.17519 18.0777 7.79209 18.5346C8.40898 18.9916 9.14852 19.2535 9.91551 19.2866C9.92656 19.2871 9.93763 19.2873 9.94869 19.2873H11.2314V21.5948C11.2314 22.0196 11.5758 22.364 12.0007 22.364C12.4255 22.364 12.7699 22.0196 12.7699 21.5948V19.2873H14.0513C15.0713 19.2873 16.0496 18.8821 16.7709 18.1608C17.4922 17.4395 17.8974 16.4612 17.8974 15.4412C17.8974 14.4211 17.4922 13.4428 16.7709 12.7215C16.0496 12.0002 15.0713 11.595 14.0513 11.595H9.94869C9.33665 11.595 8.74968 11.3519 8.31691 10.9191C7.88413 10.4863 7.641 9.89935 7.641 9.28732C7.641 8.67528 7.88413 8.08831 8.31691 7.65553C8.74968 7.22275 9.33666 6.97962 9.94869 6.97962H14.0335C14.4882 7.0023 14.9261 7.15897 15.2921 7.43009C15.6623 7.70427 15.9419 8.08294 16.095 8.51737C16.2362 8.91805 16.6755 9.12838 17.0762 8.98717C17.4769 8.84595 17.6872 8.40666 17.546 8.00598C17.2908 7.28193 16.8248 6.65081 16.2079 6.19385C15.591 5.73689 14.8514 5.475 14.0844 5.44188C14.0734 5.4414 14.0623 5.44116 14.0513 5.44116H12.7699V3.13324Z" fill="#222222"/>
</svg>
