<svg width="26" height="8" viewBox="0 0 26 8" fill="none" xmlns="http://www.w3.org/2000/svg">
<path d="M6.12372 7.20345H7.4123C7.3766 7.14612 7.33509 7.09003 7.29364 7.03401C7.20305 6.91162 7.11273 6.78957 7.08384 6.65566C7.02702 6.37552 7.0094 6.08868 6.99177 5.80165C6.98523 5.69516 6.97869 5.58864 6.97014 5.48243C6.91672 4.80711 6.86399 4.13145 6.81125 3.45572L6.81118 3.45489L6.81113 3.45425L6.81109 3.45367C6.73292 2.45213 6.65474 1.45044 6.57431 0.449494C6.54904 0.153563 6.41428 0.0213368 6.1153 0.00874402C5.95532 0.00244908 5.79481 0.00349767 5.63404 0.00454797C5.47319 0.00559878 5.31208 0.0066513 5.15097 0.000353409C4.96358 -0.00594301 4.90042 0.0717112 4.86883 0.248011C4.80672 0.583819 4.73829 0.918577 4.66986 1.25333L4.66986 1.25334C4.60143 1.5881 4.533 1.92285 4.47089 2.25866C4.44836 2.37912 4.42183 2.49931 4.39529 2.61956C4.29279 3.08388 4.19009 3.54913 4.31719 4.03425C4.34147 4.12652 4.34825 4.22315 4.35329 4.29507C4.35525 4.32295 4.35694 4.34711 4.35929 4.36586C4.31112 4.40006 4.26143 4.4282 4.2161 4.45387L4.2161 4.45388L4.2161 4.45388C4.13066 4.50226 4.06071 4.54188 4.04557 4.59673C3.97938 4.85145 3.93345 5.11178 3.88638 5.37853C3.86906 5.47664 3.8516 5.57562 3.83291 5.67552C3.92926 5.68214 4.01396 5.68876 4.09866 5.69539L4.0988 5.6954L4.09883 5.6954C4.1751 5.70136 4.25136 5.70733 4.33614 5.71329C4.33614 5.81953 4.33578 5.92402 4.33544 6.02725V6.02726V6.02726V6.02727V6.02727C4.33458 6.28094 4.33375 6.52707 4.33824 6.77319C4.34455 7.10061 4.4372 7.19506 4.77197 7.20135C5.09377 7.20585 5.41556 7.20499 5.73735 7.20413C5.86614 7.20379 5.99493 7.20345 6.12372 7.20345ZM19.0225 5.47835L19.0327 5.43411C18.97 5.45654 18.9083 5.48382 18.8475 5.51073C18.7205 5.56692 18.5971 5.62152 18.4747 5.6272C17.9504 5.65448 17.4262 5.65448 16.904 5.6314C16.4724 5.61251 16.2723 5.34176 16.3671 4.922C16.5734 3.99643 16.7924 3.07085 17.0219 2.14948C17.1356 1.69194 17.4072 1.50304 17.8831 1.49675C18.1798 1.4936 18.4753 1.494 18.7714 1.49439H18.7716H18.7717H18.7719H18.772C18.8707 1.49452 18.9695 1.49465 19.0685 1.49465C19.3485 1.49465 19.5464 1.37502 19.6222 1.09798C19.6955 0.826874 19.7625 0.553263 19.8339 0.261601L19.834 0.261202L19.8346 0.258776L19.8347 0.258511C19.8553 0.174084 19.8764 0.088141 19.8981 0.000305911H19.5654H16.5061C15.468 0.000305911 14.7353 0.493521 14.3795 1.46527C14.2447 1.83256 14.1605 2.21874 14.0784 2.60282C14.0304 2.82411 13.981 3.04529 13.9316 3.26654C13.7621 4.02524 13.5924 4.78466 13.4783 5.55164C13.3352 6.51079 13.771 7.07537 14.7353 7.14044C15.5148 7.19412 16.2985 7.19059 17.0819 7.18706H17.0819H17.0819H17.082H17.082H17.0821C17.4012 7.18562 17.7202 7.18418 18.0389 7.18661C18.0598 7.18661 18.0806 7.18161 18.1015 7.17661C18.1164 7.17304 18.1314 7.16947 18.1463 7.16772C18.5021 7.12365 18.6979 6.91167 18.7737 6.57166C18.8546 6.20474 18.9394 5.83782 19.0225 5.47835ZM10.8823 7.20127C10.6048 7.20127 10.3322 7.20185 10.0629 7.20242H10.0628H10.0628H10.0627C9.44538 7.20374 8.84579 7.20502 8.2462 7.19917C7.98511 7.19707 7.99986 7.00398 8.04197 6.82139C8.10227 6.5631 8.163 6.30481 8.22377 6.04633C8.29879 5.72721 8.37388 5.40781 8.44833 5.08777C8.51432 4.80382 8.5797 4.51946 8.6451 4.23502L8.64511 4.23498L8.64512 4.23494L8.64513 4.2349L8.64513 4.23489L8.64513 4.23487L8.64514 4.23486C8.79049 3.60269 8.93594 2.97007 9.0884 2.34044C9.15578 2.0613 9.11999 1.83462 8.82943 1.64153C8.86502 1.63752 8.89589 1.6335 8.92362 1.6299C8.98286 1.62219 9.02778 1.61635 9.07367 1.61635H11.0571C11.5603 1.61635 11.6445 1.72129 11.5329 2.20402C11.5224 2.24809 11.5119 2.29007 11.4971 2.34463C11.695 2.42439 11.834 2.38661 11.933 2.19772C11.9411 2.18205 11.9492 2.16611 11.9573 2.15005C12.0125 2.04131 12.0705 1.9272 12.1604 1.85771C12.3183 1.73388 12.4994 1.60375 12.6889 1.56807C12.8723 1.53469 13.0639 1.54146 13.2718 1.54881C13.3645 1.55209 13.4605 1.55548 13.5605 1.55548C13.526 1.69461 13.4943 1.8318 13.4631 1.96711C13.3916 2.27677 13.3225 2.57658 13.2258 2.86723C13.1415 3.11699 12.8741 3.17366 12.6299 3.19255C12.4966 3.20277 12.3626 3.20211 12.2282 3.20144C12.1418 3.20101 12.0553 3.20058 11.9688 3.20304C11.5329 3.21564 11.3582 3.36046 11.2613 3.77812L11.261 3.77925L11.2608 3.78016L11.2606 3.78101C11.0587 4.64265 10.8568 5.50429 10.6528 6.36384C10.5539 6.77731 10.5707 6.85707 10.8823 7.20127ZM22.5491 1.6125C22.1828 1.61341 21.8145 1.61433 21.4435 1.61433C21.4181 1.71435 21.3926 1.81225 21.3675 1.90869L21.3674 1.90917L21.3673 1.90942C21.3219 2.08388 21.2778 2.25356 21.2372 2.42237C21.1508 2.77077 21.2309 2.8862 21.5888 2.8946C21.889 2.90223 22.1904 2.90098 22.4912 2.89974C22.6039 2.89927 22.7165 2.8988 22.8289 2.8988C23.3385 2.8988 23.4438 3.03522 23.3406 3.53474C23.1323 4.53458 22.9275 5.53617 22.723 6.5363L22.7229 6.53688L22.6668 6.81097C22.6142 7.06912 22.7174 7.19295 23.0142 7.19715C23.3933 7.20345 23.7723 7.20266 24.1514 7.20187C24.2777 7.20161 24.4039 7.20135 24.5302 7.20135H25.3366C25.0461 7.02505 25.0776 6.77949 25.1345 6.52973C25.191 6.28874 25.2482 6.04775 25.3055 5.80669L25.3059 5.80499C25.4385 5.24677 25.5711 4.68825 25.6946 4.1287C25.7122 4.04843 25.7303 3.96817 25.7483 3.88789C25.8504 3.43283 25.9527 2.9771 25.9956 2.51682C26.0441 1.98582 25.684 1.62483 25.1429 1.61853C24.2828 1.60818 23.4216 1.61033 22.5491 1.6125ZM2.98033 0.0213373H4.51104C4.35312 0.772709 4.19942 1.50309 4.04572 2.23138C4.03659 2.27459 4.02669 2.3178 4.01678 2.3611L4.01677 2.36111C3.99008 2.47763 3.96325 2.59475 3.95097 2.71411C3.88843 3.28462 3.61266 3.76841 3.32788 4.26802C3.29626 4.32348 3.26454 4.37913 3.23299 4.43512C3.28351 4.44093 3.3291 4.44585 3.37596 4.45091L3.37602 4.45091L3.37608 4.45092C3.43074 4.45682 3.48714 4.4629 3.55513 4.47081C3.53621 4.56162 3.51777 4.6522 3.49937 4.74251L3.49937 4.74252C3.43997 5.03418 3.38113 5.3231 3.30879 5.60835C3.29826 5.65243 3.15298 5.69231 3.07507 5.68392C2.87505 5.66293 2.77398 5.75317 2.7024 5.92528C2.65449 6.03989 2.59679 6.15095 2.53914 6.26193C2.50811 6.32166 2.4771 6.38136 2.44763 6.44158C2.25603 6.82776 2.26445 6.89493 2.57396 7.19925C2.35503 7.19925 2.13807 7.20007 1.92258 7.20089L1.92225 7.20089H1.9222C1.36688 7.20299 0.821315 7.20505 0.276839 7.19296C0.00101568 7.18876 -0.0705743 6.99987 0.0704955 6.72283C0.500022 5.8854 0.931652 5.05008 1.36539 4.21475C1.65274 3.65868 1.94061 3.10313 2.22848 2.54758L2.22864 2.54727L2.22881 2.54696C2.51669 1.9914 2.80457 1.43583 3.09192 0.879748C3.31089 0.451592 3.30247 0.378134 2.98033 0.0213373ZM22.8327 3.86529C22.8482 3.79631 22.8637 3.72736 22.8796 3.65858C22.6908 3.65858 22.5042 3.65604 22.3192 3.65353C21.8975 3.64779 21.4843 3.64217 21.0731 3.66697C20.6941 3.68796 20.3782 3.90624 20.1635 4.22316C19.696 4.91577 19.5255 5.68603 19.6097 6.51296C19.6476 6.87395 19.8645 7.11531 20.2245 7.15099C20.6225 7.19296 21.0309 7.21185 21.4289 7.17617C22.0647 7.11741 22.448 6.63468 22.4374 5.97566C22.05 5.9043 21.9826 5.80146 22.0647 5.41318L22.0648 5.41293C22.0879 5.29758 22.1111 5.18223 22.1405 5.06688C22.2079 4.80243 22.3069 4.56317 22.6101 4.47921C22.6522 4.46662 22.7027 4.41415 22.7133 4.37007C22.7566 4.20318 22.7946 4.03416 22.8327 3.86529Z" fill="#2755A5"/>
</svg>
