<svg width="60" height="60" viewBox="0 0 60 60" fill="none" xmlns="http://www.w3.org/2000/svg">
<path d="M32.0591 56.1931C46.845 56.1931 58.836 44.2923 58.836 29.5966C58.836 14.9008 46.845 3 32.0591 3C17.2732 3 5.28223 14.9008 5.28223 29.5966C5.28223 44.2923 17.2732 56.1931 32.0591 56.1931Z" fill="#F1F3F9" stroke="#D6DCE8" stroke-width="0.901578" stroke-miterlimit="10"/>
<path d="M58.1517 16.8843C59.1725 16.8843 59.9999 16.0568 59.9999 15.036C59.9999 14.0153 59.1725 13.1878 58.1517 13.1878C57.1309 13.1878 56.3035 14.0153 56.3035 15.036C56.3035 16.0568 57.1309 16.8843 58.1517 16.8843Z" fill="#F1F3F9"/>
<path d="M56.3036 10.8888C57.0007 10.8888 57.5658 10.3237 57.5658 9.62662C57.5658 8.92952 57.0007 8.36441 56.3036 8.36441C55.6065 8.36441 55.0414 8.92952 55.0414 9.62662C55.0414 10.3237 55.6065 10.8888 56.3036 10.8888Z" fill="#F1F3F9"/>
<path d="M5.18408 15.036C5.88118 15.036 6.44629 14.4709 6.44629 13.7738C6.44629 13.0767 5.88118 12.5116 5.18408 12.5116C4.48699 12.5116 3.92188 13.0767 3.92188 13.7738C3.92188 14.4709 4.48699 15.036 5.18408 15.036Z" fill="#F1F3F9"/>
<path d="M2.3441 42.8047C3.63872 42.8047 4.68821 41.7552 4.68821 40.4606C4.68821 39.166 3.63872 38.1165 2.3441 38.1165C1.04949 38.1165 0 39.166 0 40.4606C0 41.7552 1.04949 42.8047 2.3441 42.8047Z" fill="#F1F3F9"/>
<path d="M56.7287 22.5611V46.9671C56.7287 47.0677 56.7287 47.1181 56.7287 47.2187C56.6783 48.6277 56.0242 49.8354 55.0177 50.6909C54.1623 51.4457 53.0049 51.949 51.7468 51.949H12.3449C11.4895 51.949 10.6843 51.7477 9.97983 51.3451C9.6779 51.1941 9.37597 50.9928 9.12436 50.7412C8.57082 50.2883 8.06761 49.6342 7.816 48.9296C7.61471 48.4264 7.46375 47.8729 7.46375 47.3194V22.5611C7.46375 22.5611 9.52693 20.7998 12.4959 18.3844C15.5655 15.818 19.5913 12.4968 23.1138 9.5781C25.1267 7.86717 24.9254 8.06845 28.0453 5.45173C30.4104 3.43886 33.8826 3.43886 36.2477 5.45173C36.8516 5.95494 37.5058 6.5588 38.1096 7.06202C39.418 8.11878 40.827 9.3265 42.3367 10.5845C45.5069 13.2013 48.9791 16.1199 51.6965 18.3844C54.4642 20.6489 56.4771 22.3598 56.7287 22.5611Z" fill="#F1F3F9" stroke="#D6DCE8" stroke-width="0.901578" stroke-miterlimit="10"/>
<path opacity="0.14" d="M51.6965 18.7848V27.5408L43.0915 32.7239L40.5251 34.2839L35.0903 37.5548L32.5239 39.1148L31.4169 39.769L30.3601 39.1148L27.9447 37.5548L22.7615 34.2839L20.3461 32.7239L12.3953 27.7421V18.8352C15.4649 16.2688 19.4906 12.9475 23.0131 10.0289L42.2863 10.985C45.5069 13.652 48.9791 16.5204 51.6965 18.7848Z" fill="#989FB0"/>
<path d="M49.9855 11.8405V27.2389L42.1353 31.9188L39.8205 33.3278L34.8387 36.2465L32.5239 37.6555L31.5175 38.209L30.5614 37.6555L28.3472 36.2465L23.617 33.3278L21.4028 31.9188L14.1565 27.3899V11.8405C14.1565 10.2302 15.4649 8.92183 17.1255 8.92183H47.0165C48.6268 8.8715 49.9855 10.2302 49.9855 11.8405Z" fill="white" stroke="#D6DCE8" stroke-width="0.901578" stroke-miterlimit="10"/>
<path d="M55.068 51.1417C54.2126 51.8965 53.0552 52.3997 51.7971 52.3997H12.3449C11.4895 52.3997 10.6843 52.1984 9.97983 51.7959C9.6779 51.6449 9.37597 51.4436 9.12436 51.192C8.57082 50.7391 8.0676 50.0849 7.816 49.3804C7.61471 48.8772 7.46375 48.3237 7.46375 47.7701V47.7198V23.0119L10.0301 24.5718L32.071 37.6052L32.6749 37.9574L32.7252 38.0077L52.5016 49.6824L55.068 51.1417Z" fill="white" stroke="#D6DCE8" stroke-width="0.901578" stroke-miterlimit="10"/>
<path d="M56.7287 23.0119V47.6695C56.6784 49.0785 56.0242 50.2862 55.0177 51.1417C54.1623 51.8965 53.0049 52.3997 51.7468 52.3997H12.345C11.4895 52.3997 10.6844 52.1984 9.97986 51.7959C9.67793 51.6449 9.376 51.4436 9.12439 51.192L11.6405 49.6824L31.4169 38.0077L32.0711 37.6052L32.6749 37.2529L54.112 24.5215L56.7287 23.0119Z" fill="white" stroke="#D6DCE8" stroke-width="0.901578" stroke-miterlimit="10"/>
<path d="M50.7907 40.2722H37.7071C37.4052 40.2722 37.1536 40.0206 37.1536 39.7187C37.1536 39.4167 37.4052 39.1651 37.7071 39.1651H50.7907C51.0927 39.1651 51.3443 39.4167 51.3443 39.7187C51.3946 40.0206 51.143 40.2722 50.7907 40.2722Z" fill="#D6DCE8"/>
<path d="M50.7907 44.0463H37.7071C37.4052 44.0463 37.1536 43.7947 37.1536 43.4928C37.1536 43.1908 37.4052 42.9392 37.7071 42.9392H50.7907C51.0927 42.9392 51.3443 43.1908 51.3443 43.4928C51.3946 43.7947 51.143 44.0463 50.7907 44.0463Z" fill="#D6DCE8"/>
<path d="M31.0028 28.6728C30.6225 28.6728 30.2645 28.533 29.9737 28.2302L25.0296 23.0818C24.4703 22.4994 24.4703 21.521 25.0296 20.9386C25.5889 20.3562 26.5285 20.3562 27.0878 20.9386L31.0028 25.0154L40.2199 15.4409C40.7792 14.8585 41.7188 14.8585 42.2781 15.4409C42.8374 16.0232 42.8374 17.0017 42.2781 17.5841L32.0319 28.2302C31.7634 28.533 31.3831 28.6728 31.0028 28.6728Z" fill="#72BF44"/>
</svg>
