<svg width="84" height="95" viewBox="0 0 84 95" fill="none" xmlns="http://www.w3.org/2000/svg">
<path d="M41.9297 66C57.3671 66 69.8824 53.4882 69.8824 38C69.8824 22.5118 57.3119 10 41.9297 10C26.4923 10 13.9771 22.5118 13.9771 38C13.9771 53.4882 26.4923 66 41.9297 66Z" fill="#EAEEF9"/>
<path d="M68.0632 19.6457C69.3116 19.6457 70.3237 18.6339 70.3237 17.3858C70.3237 16.1377 69.3116 15.126 68.0632 15.126C66.8148 15.126 65.8027 16.1377 65.8027 17.3858C65.8027 18.6339 66.8148 19.6457 68.0632 19.6457Z" fill="#EAEEF9"/>
<path d="M71.9773 26.26C72.8299 26.26 73.5211 25.569 73.5211 24.7166C73.5211 23.8643 72.8299 23.1733 71.9773 23.1733C71.1247 23.1733 70.4336 23.8643 70.4336 24.7166C70.4336 25.569 71.1247 26.26 71.9773 26.26Z" fill="#EAEEF9"/>
<path d="M15.4656 19.5905C16.3182 19.5905 17.0093 18.8996 17.0093 18.0472C17.0093 17.1949 16.3182 16.5039 15.4656 16.5039C14.613 16.5039 13.9219 17.1949 13.9219 18.0472C13.9219 18.8996 14.613 19.5905 15.4656 19.5905Z" fill="#EAEEF9"/>
<path d="M9.34594 49.3544C10.9293 49.3544 12.2129 48.0711 12.2129 46.4882C12.2129 44.9053 10.9293 43.6221 9.34594 43.6221C7.76258 43.6221 6.479 44.9053 6.479 46.4882C6.479 48.0711 7.76258 49.3544 9.34594 49.3544Z" fill="#EAEEF9"/>
<g filter="url(#filter0_d_2331_2339)">
<path d="M57.0887 11.709C59.287 11.709 61.0733 13.483 61.0886 15.6813L61.3919 59.4964C61.3919 60.709 60.3995 61.646 59.1866 61.646H24.5628C23.3498 61.646 22.3574 60.6539 22.3574 59.4964V13.8586C22.3574 12.646 23.3498 11.709 24.5628 11.709H49.6485H57.0887Z" fill="url(#paint0_linear_2331_2339)"/>
</g>
<path d="M39.2281 54.5354H37.9601C37.6844 54.5354 37.4639 54.2598 37.4639 53.9291C37.4639 53.5983 37.6844 53.3228 37.9601 53.3228H39.2281C39.5038 53.3228 39.7243 53.5983 39.7243 53.9291C39.7243 54.3149 39.5038 54.5354 39.2281 54.5354Z" fill="#CED7E2"/>
<path d="M35.3689 54.5354H27.9811C27.7054 54.5354 27.4849 54.2598 27.4849 53.9291C27.4849 53.5983 27.7054 53.3228 27.9811 53.3228H35.3689C35.6446 53.3228 35.8651 53.5983 35.8651 53.9291C35.8651 54.3149 35.6446 54.5354 35.3689 54.5354Z" fill="#D5DDEA"/>
<path d="M44.7968 19.1494H28.2016C27.8157 19.1494 27.4849 18.8187 27.4849 18.4328C27.4849 18.047 27.8157 17.7163 28.2016 17.7163H44.7968C45.1827 17.7163 45.5135 18.047 45.5135 18.4328C45.5135 18.8187 45.1827 19.1494 44.7968 19.1494Z" fill="#D5DDEA"/>
<path d="M34.5971 23.1181H28.2016C27.8157 23.1181 27.4849 22.7874 27.4849 22.4016C27.4849 22.0158 27.8157 21.6851 28.2016 21.6851H34.5419C34.9279 21.6851 35.2587 22.0158 35.2587 22.4016C35.2587 22.7874 34.9279 23.1181 34.5971 23.1181Z" fill="#D5DDEA"/>
<path d="M63.5974 62.4726C63.0461 62.4726 62.4947 62.2521 62.0537 61.756L52.8464 52.5513L52.5156 52.7718C49.5384 54.9765 46.065 56.134 42.5364 56.134C38.2912 56.134 34.0459 54.4253 30.9033 51.449C27.5953 48.3072 25.7759 44.0631 25.7759 39.4332C25.7759 30.2285 33.274 22.7324 42.4813 22.7324C48.7665 22.7324 54.2799 26.0395 57.2571 31.6616C60.1791 37.2285 59.7932 43.7324 56.2095 48.9686L55.989 49.2994L65.2514 58.5592C66.1887 59.4962 65.9682 60.4332 65.8027 60.9293C65.3617 61.8112 64.4795 62.4726 63.5974 62.4726ZM42.4813 27.3072C35.755 27.3072 30.352 32.7639 30.352 39.4332C30.352 47.0395 36.582 51.6143 42.6467 51.6143C46.3406 51.6143 49.7038 49.9608 52.0745 46.9844C54.9966 43.3466 55.4928 38.4411 53.4529 34.197C51.3578 29.9529 47.1677 27.3072 42.4813 27.3072Z" fill="#989FB0"/>
<path d="M37.2431 41.4172C37.9599 41.4172 38.5663 40.8109 38.5663 40.0943C38.5663 39.3778 37.9599 38.7715 37.2431 38.7715C36.5264 38.7715 35.9199 39.3778 35.9199 40.0943C35.9199 40.8109 36.5264 41.4172 37.2431 41.4172Z" fill="#989FB0"/>
<path d="M47.3877 41.4172C48.1044 41.4172 48.7109 40.8109 48.7109 40.0943C48.7109 39.3778 48.1044 38.7715 47.3877 38.7715C46.6709 38.7715 46.0645 39.3778 46.0645 40.0943C46.0645 40.866 46.6709 41.4172 47.3877 41.4172Z" fill="#989FB0"/>
<path d="M37.1915 35.7179L34.2808 37.2891L34.6737 38.0165L37.5844 36.4454L37.1915 35.7179Z" fill="#989FB0"/>
<path d="M47.2078 35.6968L46.8149 36.4243L49.726 37.9952L50.1188 37.2676L47.2078 35.6968Z" fill="#989FB0"/>
<path d="M42.3152 44.5029C43.1678 44.5029 43.859 43.9847 43.859 43.3455C43.859 42.7062 43.1678 42.188 42.3152 42.188C41.4626 42.188 40.7715 42.7062 40.7715 43.3455C40.7715 43.9847 41.4626 44.5029 42.3152 44.5029Z" fill="#989FB0"/>
<defs>
<filter id="filter0_d_2331_2339" x="0.357422" y="0.708984" width="83.0347" height="93.937" filterUnits="userSpaceOnUse" color-interpolation-filters="sRGB">
<feFlood flood-opacity="0" result="BackgroundImageFix"/>
<feColorMatrix in="SourceAlpha" type="matrix" values="0 0 0 0 0 0 0 0 0 0 0 0 0 0 0 0 0 0 127 0" result="hardAlpha"/>
<feOffset dy="11"/>
<feGaussianBlur stdDeviation="11"/>
<feColorMatrix type="matrix" values="0 0 0 0 0.397708 0 0 0 0 0.47749 0 0 0 0 0.575 0 0 0 0.27 0"/>
<feBlend mode="normal" in2="BackgroundImageFix" result="effect1_dropShadow_2331_2339"/>
<feBlend mode="normal" in="SourceGraphic" in2="effect1_dropShadow_2331_2339" result="shape"/>
</filter>
<linearGradient id="paint0_linear_2331_2339" x1="41.8619" y1="10.5539" x2="41.8619" y2="62.1843" gradientUnits="userSpaceOnUse">
<stop stop-color="#FDFEFF"/>
<stop offset="0.9964" stop-color="#ECF0F5"/>
</linearGradient>
</defs>
</svg>
