<svg width="20" height="20" viewBox="0 0 20 20" fill="none" xmlns="http://www.w3.org/2000/svg">
<g clip-path="url(#clip0_3366_14680)">
<path d="M10 20C15.5228 20 20 15.5228 20 10C20 4.47715 15.5228 0 10 0C4.47715 0 0 4.47715 0 10C0 15.5228 4.47715 20 10 20Z" fill="#F0F0F0"/>
<path d="M0.0847168 11.3044C0.317373 13.0901 1.02136 14.7274 2.06733 16.0882L7.39132 11.3044H0.0847168Z" fill="#D80027"/>
<path d="M8.69574 19.9155V12.6089L3.91199 17.9329C5.27281 18.9789 6.91007 19.6829 8.69574 19.9155Z" fill="#D80027"/>
<path d="M8.69574 0.0847168C6.91007 0.317373 5.27281 1.02136 3.91199 2.06733L8.69574 7.3914V0.0847168Z" fill="#D80027"/>
<path d="M0.0847168 8.69562H7.39132L2.06729 3.91187C1.02132 5.27265 0.317334 6.90995 0.0847168 8.69562Z" fill="#D80027"/>
<path d="M11.3043 0.0847168V7.39136L16.0881 2.06733C14.7273 1.02144 13.09 0.317334 11.3043 0.0847168Z" fill="#D80027"/>
<path d="M19.9154 8.69565C19.6827 6.90999 18.9788 5.27269 17.9328 3.91187L12.6088 8.69565H19.9154Z" fill="#D80027"/>
<path d="M12.6088 11.3044L17.9328 16.0882C18.9788 14.7274 19.6828 13.0901 19.9154 11.3044H12.6088Z" fill="#D80027"/>
<path d="M11.3043 19.9155C13.09 19.6829 14.7273 18.9789 16.0881 17.9329L11.3043 12.6089V19.9155Z" fill="#D80027"/>
<path d="M17.9336 16.0888L11.8447 9.99996L11.8447 9.99992L17.9336 3.91102C17.671 3.56977 17.3837 3.24148 17.0711 2.92883C16.7586 2.61625 16.4302 2.32895 16.089 2.06641L10.0001 8.15527H10L3.91118 2.06641C3.56993 2.32898 3.24161 2.61621 2.92895 2.92883C2.61637 3.24148 2.32907 3.56977 2.06653 3.91105L8.1554 9.99988L8.15543 9.99992L2.06657 16.0888C2.32915 16.43 2.61641 16.7584 2.92899 17.071C3.24161 17.3836 3.56993 17.6709 3.91122 17.9334L10 11.8446L16.089 17.9334C16.4302 17.6709 16.7585 17.3836 17.0711 17.071C17.3838 16.7584 17.671 16.43 17.9336 16.0888Z" fill="#496E2D"/>
<path d="M11.3043 19.9154V11.3045V11.3044H19.9154C19.971 10.8774 20 10.4421 20 10C20 9.55797 19.971 9.12266 19.9154 8.6957H11.3044L11.3044 8.69566V0.0846875C10.8774 0.0291016 10.4421 0 10 0C9.55793 3.90625e-05 9.12262 0.0291016 8.69566 0.0846875L8.6957 8.69559V8.69566H0.0846875C0.0290625 9.12262 0 9.55793 0 10C3.90625e-05 10.4421 0.0290625 10.8774 0.0846875 11.3043H8.69563L8.69566 19.9154C9.12266 19.9709 9.55785 20 10 20C10.4421 20 10.8774 19.9709 11.3043 19.9154Z" fill="#F0F0F0"/>
</g>
<defs>
<clipPath id="clip0_3366_14680">
<rect width="20" height="20" fill="white"/>
</clipPath>
</defs>
</svg>
