<svg width="20" height="20" viewBox="0 0 20 20" fill="none" xmlns="http://www.w3.org/2000/svg">
<g clip-path="url(#clip0_3366_14704)">
<path d="M13.4783 0.621992C12.395 0.220039 11.2232 0 10 0C8.77683 0 7.60511 0.220039 6.52179 0.621992L5.65222 10L6.52179 19.378C7.60511 19.78 8.77683 20 10 20C11.2232 20 12.395 19.78 13.4783 19.378L14.3478 10L13.4783 0.621992Z" fill="#FFDA44"/>
<path d="M20 10C20 5.70043 17.2863 2.03496 13.4783 0.62207V19.3781C17.2863 17.9651 20 14.2997 20 10Z" fill="#D80027"/>
<path d="M0 10C0 14.2997 2.71375 17.9651 6.52176 19.3781V0.62207C2.71375 2.03496 0 5.70043 0 10Z" fill="black"/>
</g>
<defs>
<clipPath id="clip0_3366_14704">
<rect width="20" height="20" fill="white"/>
</clipPath>
</defs>
</svg>
