<svg width="20" height="20" viewBox="0 0 20 20" fill="none" xmlns="http://www.w3.org/2000/svg">
<g clip-path="url(#clip0_3366_14738)">
<path d="M17.0711 17.0711C13.1658 20.9763 6.83418 20.9763 2.92891 17.0711C-0.976324 13.1658 -0.976324 6.83415 2.92891 2.92888C2.93032 2.92888 11.9156 0.273916 15.8208 4.17915C19.7261 8.08438 17.0738 17.0683 17.0711 17.0711Z" fill="#FFDA44"/>
<path d="M17.0711 17.0711C20.9763 13.1659 20.9763 6.83421 17.0711 2.92894C13.1658 -0.976333 6.83418 -0.976294 2.92891 2.92894L17.0711 17.0711Z" fill="#D80027"/>
<path d="M12.6139 12.615C12.2031 12.7763 11.7258 12.7592 11.3117 12.5268C10.5801 12.1162 10.3189 11.1868 10.7296 10.455L10.605 10.3851C11.8577 10.083 12.7846 8.9459 12.7683 7.60402C12.7582 6.76977 12.3855 6.0234 11.8024 5.5127L10.8894 6.44809C11.2345 6.72316 11.4583 7.14512 11.4641 7.61984C11.4742 8.45891 10.7999 9.1498 9.96089 9.15992L9.96265 9.30277C9.07464 8.36895 7.62652 8.13484 6.47257 8.81984C5.75515 9.24578 5.29523 9.94172 5.14441 10.7021L6.41097 11.0251C6.47664 10.5886 6.73011 10.1839 7.13835 9.94148C7.85988 9.51316 8.79535 9.75176 9.22367 10.4732L9.34664 10.4003C8.98187 11.6362 9.50316 13.0074 10.6734 13.6643C11.401 14.0726 12.2337 14.123 12.9676 13.8734L12.6139 12.615ZM9.9714 10.0293L9.97132 10.0293L9.9714 10.0293Z" fill="#FF9811"/>
<path d="M13.7026 6.77276L12.9958 9.29507L10.8751 8.90347L9.51 6.0896L5.82222 7.39823L5.5314 6.5787L4.56656 6.45983L5.29355 8.50862L7.8314 7.85956L8.55261 9.89194L6.79824 12.481L9.77547 15.0203L9.21113 15.6819L9.59062 16.5771L11.0015 14.923L9.17047 13.0497L10.57 11.4089L13.6894 11.6337L14.3999 7.78565L15.255 7.94358L15.8405 7.16741L13.7026 6.77276ZM9.99925 10.0681V10.0682V10.0681Z" fill="#FFEACF"/>
</g>
<defs>
<clipPath id="clip0_3366_14738">
<rect width="20" height="20" fill="white"/>
</clipPath>
</defs>
</svg>
