<svg width="20" height="20" viewBox="0 0 20 20" fill="none" xmlns="http://www.w3.org/2000/svg">
<g clip-path="url(#clip0_3366_14880)">
<path d="M10 20C15.5228 20 20 15.5228 20 10C20 4.47715 15.5228 0 10 0C4.47715 0 0 4.47715 0 10C0 15.5228 4.47715 20 10 20Z" fill="#F0F0F0"/>
<path d="M18.3333 11.1968C17.4999 11.1968 17.4999 10.4348 16.6666 10.4348C15.8333 10.4348 15.8333 11.1968 15 11.1968C14.1667 11.1968 14.1667 10.4348 13.3334 10.4348C12.5001 10.4348 12.5001 11.1968 11.6667 11.1968C10.8333 11.1968 10.8333 10.4348 9.9999 10.4348C9.16658 10.4348 9.16658 11.1968 8.3333 11.1968C7.50009 11.1968 7.50009 10.4348 6.66677 10.4348C5.83337 10.4348 5.83337 11.1968 4.99998 11.1968C4.16658 11.1968 4.16658 10.4348 3.33318 10.4348C2.49998 10.4348 2.49998 11.1968 1.66666 11.1968C0.837827 11.1968 0.833022 10.4432 0.0130615 10.4352C0.0361475 10.8925 0.0907568 11.3416 0.173335 11.7808C0.837554 11.8784 0.895718 12.53 1.66673 12.53C2.50005 12.53 2.50005 11.7682 3.33326 11.7682C4.16666 11.7682 4.16666 12.53 5.00005 12.53C5.83345 12.53 5.83345 11.7682 6.66685 11.7682C7.50017 11.7682 7.50017 12.53 8.33337 12.53C9.16669 12.53 9.16669 11.7682 9.99998 11.7682C10.8334 11.7682 10.8334 12.53 11.6668 12.53C12.5002 12.53 12.5002 11.7682 13.3335 11.7682C14.1668 11.7682 14.1668 12.53 15.0001 12.53C15.8334 12.53 15.8334 11.7682 16.6667 11.7682C17.5001 11.7682 17.5001 12.53 18.3333 12.53C19.1044 12.53 19.1626 11.8784 19.8268 11.7808C19.9094 11.3416 19.964 10.8926 19.9872 10.4352C19.167 10.4433 19.1621 11.1968 18.3333 11.1968Z" fill="#0052B4"/>
<path d="M16.6665 13.0435C15.8332 13.0435 15.8332 13.8054 14.9999 13.8054C14.1666 13.8054 14.1666 13.0435 13.3333 13.0435C12.5 13.0435 12.5 13.8054 11.6666 13.8054C10.8332 13.8054 10.8332 13.0435 9.99985 13.0435C9.16653 13.0435 9.16653 13.8054 8.33325 13.8054C7.50004 13.8054 7.50004 13.0435 6.66672 13.0435C5.83333 13.0435 5.83333 13.8054 4.99993 13.8054C4.16653 13.8054 4.16653 13.0435 3.33313 13.0435C2.49993 13.0435 2.49993 13.8054 1.66661 13.8054C1.05274 13.8054 0.890669 13.3922 0.514771 13.1746C0.742427 13.855 1.04145 14.5026 1.40258 15.109C1.48079 15.1279 1.56774 15.1387 1.66657 15.1387C2.49989 15.1387 2.49989 14.3769 3.33309 14.3769C4.16649 14.3769 4.16649 15.1387 4.99989 15.1387C5.83329 15.1387 5.83329 14.3769 6.66669 14.3769C7.50001 14.3769 7.50001 15.1387 8.33321 15.1387C9.16653 15.1387 9.16653 14.3769 9.99981 14.3769C10.8332 14.3769 10.8332 15.1387 11.6666 15.1387C12.5 15.1387 12.5 14.3769 13.3333 14.3769C14.1666 14.3769 14.1666 15.1387 14.9999 15.1387C15.8332 15.1387 15.8332 14.3769 16.6665 14.3769C17.4999 14.3769 17.4999 15.1387 18.3332 15.1387C18.4321 15.1387 18.5191 15.1279 18.5974 15.109C18.9585 14.5026 19.2575 13.855 19.4851 13.1746C19.1092 13.3922 18.9471 13.8054 18.3332 13.8054C17.4999 13.8054 17.4999 13.0435 16.6665 13.0435Z" fill="#0052B4"/>
<path d="M19.7674 7.84934C19.1582 7.97578 19.0806 8.58812 18.3332 8.58812C17.4999 8.58812 17.4999 7.82617 16.6666 7.82617C15.8332 7.82617 15.8332 8.58812 15 8.58812C14.1667 8.58812 14.1666 7.82617 13.3334 7.82617C12.5 7.82617 12.5 8.58812 11.6667 8.58812C10.8333 8.58812 10.8333 7.82617 9.99987 7.82617C9.5496 7.82617 9.34257 8.04859 9.11597 8.25312V9.58644C9.34257 9.38195 9.54956 9.15957 9.99987 9.15957C10.8333 9.15957 10.8333 9.92144 11.6667 9.92144C12.5001 9.92144 12.5001 9.15957 13.3334 9.15957C14.1667 9.15957 14.1667 9.92144 15 9.92144C15.8332 9.92144 15.8333 9.15957 16.6666 9.15957C17.5 9.15957 17.5 9.92144 18.3332 9.92144C19.1043 9.92144 19.1625 9.2698 19.8267 9.17223C19.8693 9.17223 19.9169 9.1718 19.9656 9.17121C19.9287 8.72148 19.8619 8.28023 19.7674 7.84934Z" fill="#0052B4"/>
<path d="M19.037 5.71373C18.8643 5.85877 18.6647 5.97924 18.3334 5.97924C17.5 5.97924 17.5 5.21729 16.6667 5.21729C15.8334 5.21729 15.8334 5.97924 15.0001 5.97924C14.1668 5.97924 14.1668 5.21729 13.3335 5.21729C12.5002 5.21729 12.5002 5.97924 11.6668 5.97924C10.8334 5.97924 10.8334 5.21729 9.99999 5.21729C9.54972 5.21729 9.34269 5.43971 9.11609 5.64424V6.97756C9.34269 6.77307 9.54968 6.55068 9.99999 6.55068C10.8334 6.55068 10.8334 7.31256 11.6668 7.31256C12.5001 7.31256 12.5001 6.55068 13.3334 6.55068C14.1668 6.55068 14.1668 7.31256 15 7.31256C15.8333 7.31256 15.8333 6.55068 16.6666 6.55068C17.5 6.55068 17.5 7.31256 18.3333 7.31256C18.9246 7.31256 19.0968 6.92955 19.4445 6.70682C19.326 6.36709 19.19 6.03564 19.037 5.71373Z" fill="#0052B4"/>
<path d="M16.7378 2.61067C16.7146 2.60942 16.6911 2.60864 16.6666 2.60864C15.8333 2.60864 15.8333 3.3706 15 3.3706C14.1667 3.3706 14.1667 2.60864 13.3334 2.60864C12.5001 2.60864 12.5001 3.3706 11.6667 3.3706C10.8333 3.3706 10.8333 2.60864 9.99987 2.60864C9.5496 2.60864 9.34257 2.83106 9.11597 3.0356V4.36892C9.34257 4.16442 9.54956 3.94204 9.99987 3.94204C10.8333 3.94204 10.8333 4.70392 11.6667 4.70392C12.5001 4.70392 12.5001 3.94204 13.3333 3.94204C14.1667 3.94204 14.1667 4.70392 15 4.70392C15.8332 4.70392 15.8333 3.94204 16.6666 3.94204C17.4999 3.94204 17.5 4.70392 18.3332 4.70392C18.3846 4.70392 18.4325 4.70087 18.4779 4.69544C17.9939 3.92341 17.4078 3.22196 16.7378 2.61067Z" fill="#0052B4"/>
<path d="M12.556 0.330156C12.3273 0.535938 12.1206 0.761953 11.6667 0.761953C10.8333 0.761953 10.8333 7.8125e-05 9.99994 0H9.99979C9.56885 3.90625e-05 9.3608 0.203828 9.14502 0.400664V1.73402C9.36076 1.53719 9.56889 1.33336 9.99994 1.33336C10.8333 1.33336 10.8333 2.09523 11.6667 2.09523C12.5001 2.09523 12.5001 1.33336 13.3334 1.33336C14.1667 1.33336 14.1667 2.09523 15 2.09523C15.3497 2.09523 15.5525 1.96102 15.7319 1.80531C14.7812 1.1391 13.7094 0.63418 12.556 0.330156Z" fill="#0052B4"/>
<path d="M11.6667 19.0227C10.8333 19.0227 10.8333 18.2608 9.99991 18.2608C9.16659 18.2608 9.16659 19.0227 8.33331 19.0227C7.5001 19.0227 7.5001 18.2608 6.66678 18.2608C6.02846 18.2608 5.87874 18.7074 5.46936 18.9167C6.59827 19.4915 7.85088 19.8579 9.17666 19.9659C9.3817 19.7786 9.58998 19.5941 9.99991 19.5941C10.4099 19.5941 10.6182 19.7786 10.8233 19.966C12.1491 19.8579 13.4018 19.4915 14.5308 18.9168C14.1213 18.7075 13.9716 18.2607 13.3334 18.2607C12.5001 18.2608 12.5001 19.0227 11.6667 19.0227Z" fill="#0052B4"/>
<path d="M14.9999 16.4141C14.1666 16.4141 14.1666 15.6521 13.3333 15.6521C12.5 15.6521 12.5 16.4141 11.6667 16.4141C10.8333 16.4141 10.8333 15.6521 9.99986 15.6521C9.16654 15.6521 9.16654 16.4141 8.33326 16.4141C7.50005 16.4141 7.50005 15.6521 6.66673 15.6521C5.83334 15.6521 5.83334 16.4141 4.99994 16.4141C4.16654 16.4141 4.16654 15.6521 3.33314 15.6521C2.73388 15.6521 2.5656 16.0462 2.20837 16.2675C2.43228 16.5456 2.67033 16.8117 2.92224 17.0641C3.03509 17.0159 3.16751 16.9855 3.3331 16.9855C4.1665 16.9855 4.1665 17.7473 4.9999 17.7473C5.8333 17.7473 5.8333 16.9855 6.66669 16.9855C7.50002 16.9855 7.50001 17.7473 8.33322 17.7473C9.16654 17.7473 9.16654 16.9855 9.99982 16.9855C10.8332 16.9855 10.8332 17.7473 11.6666 17.7473C12.5 17.7473 12.5 16.9855 13.3333 16.9855C14.1666 16.9855 14.1666 17.7473 14.9999 17.7473C15.8332 17.7473 15.8332 16.9855 16.6665 16.9855C16.8323 16.9855 16.9647 17.0159 17.0776 17.0642C17.3296 16.8118 17.5676 16.5456 17.7915 16.2676C17.4343 16.0463 17.266 15.6521 16.6665 15.6521C15.8332 15.6521 15.8332 16.4141 14.9999 16.4141Z" fill="#0052B4"/>
<path d="M9.97327 9.9999H10C10 9.99092 10 9.98217 10 9.97314C9.99112 9.98209 9.98221 9.991 9.97327 9.9999Z" fill="#F0F0F0"/>
<path d="M9.99997 5.21748V8.15549L6.52173 4.78271L9.99997 5.21748Z" fill="#0052B4"/>
<path d="M5.2174 10.0002H8.15529L5.21736 6.08716L4.78259 9.13063L5.2174 10.0002Z" fill="#0052B4"/>
<path d="M10 5.21738C10 3.45781 10 2.30488 10 0H9.99832C4.47625 0.0009375 0 4.4777 0 10H5.21742V7.06207L8.15531 10H9.97328C9.98219 9.99109 9.99109 9.98219 10 9.97324C10 9.29953 10 8.6984 10 8.15539L7.06203 5.21738H10Z" fill="#F0F0F0"/>
<path d="M5.05917 1.30444C3.49514 2.19503 2.19491 3.49526 1.30432 5.05929V10.0001H3.91303V3.91323V3.91315H9.99999C9.99999 3.09038 9.99999 2.30655 9.99999 1.30444H5.05917Z" fill="#D80027"/>
<path d="M10 8.77038L6.44709 5.21753H5.21741V5.21761L9.99995 10.0001H10C10 10.0001 10 9.15218 10 8.77038Z" fill="#D80027"/>
<path d="M13.0435 5.21729H16.9565L15 7.17381L13.0435 5.21729Z" fill="#6DA544"/>
<path d="M14.5652 6.73926H15.4348V9.13055H14.5652V6.73926Z" fill="#A2001D"/>
<path d="M14.5652 13.0437H15.4348V15.435H14.5652V13.0437Z" fill="#A2001D"/>
<path d="M17.6087 11.739C17.6087 11.0187 17.0248 10.4347 16.3044 10.4347C15.9703 10.4347 15.6657 10.5605 15.4348 10.7671V9.99989H15.8696V9.13032H15.4348V8.69556H14.5653V9.13032H14.1305V9.99989H14.5653V10.7671C14.3344 10.5605 14.0298 10.4347 13.6957 10.4347C12.9753 10.4347 12.3914 11.0187 12.3914 11.739C12.3914 12.1252 12.5594 12.4721 12.8261 12.711V13.4782H17.1739V12.711C17.4407 12.4721 17.6087 12.1252 17.6087 11.739Z" fill="#FFDA44"/>
<path d="M16.3043 11.3044C16.1672 11.3044 16.0711 11.3647 16.0147 11.4151L15.4347 11.9343H14.5652L13.9852 11.4151C13.9288 11.3647 13.8328 11.3044 13.6956 11.3044C13.4559 11.3044 13.2609 11.4995 13.2609 11.7392C13.2609 11.9081 13.3519 12.0148 13.4062 12.0634L13.6957 12.3226V12.6088H16.3044V12.3226L16.5939 12.0634C16.6481 12.0148 16.7392 11.9081 16.7392 11.7392C16.7391 11.4995 16.5441 11.3044 16.3043 11.3044Z" fill="#D80027"/>
</g>
<defs>
<clipPath id="clip0_3366_14880">
<rect width="20" height="20" fill="white"/>
</clipPath>
</defs>
</svg>
