<svg width="20" height="20" viewBox="0 0 20 20" fill="none" xmlns="http://www.w3.org/2000/svg">
<g clip-path="url(#clip0_3366_14931)">
<path d="M10.0001 19.9985C15.5222 19.9985 19.9987 15.522 19.9987 10C19.9987 4.47796 15.5222 0.00146484 10.0001 0.00146484C4.47808 0.00146484 0.00158691 4.47796 0.00158691 10C0.00158691 15.522 4.47808 19.9985 10.0001 19.9985Z" fill="#F0F0F0"/>
<path d="M1.34109 5.00073C0.889787 5.78231 0.55689 6.59944 0.335205 7.43176L17.0566 17.0859C17.6666 16.4777 18.2078 15.7808 18.659 14.9993L1.34109 5.00073Z" fill="black"/>
<path d="M14.9993 1.341C10.9986 -0.968773 6.0657 -0.198951 2.94348 2.91408L19.6649 12.5682C20.7998 8.30783 19 3.65082 14.9993 1.341Z" fill="#FFDA44"/>
<path d="M5.00074 18.6589C9.00137 20.9686 13.9344 20.1988 17.0565 17.0858L0.335133 7.43164C-0.799696 11.6921 1.00003 16.3491 5.00074 18.6589Z" fill="#FFDA44"/>
<path d="M12.8257 8.91326C12.8257 10.4738 11.5606 11.7389 9.99999 11.7389C8.43941 11.7389 7.1743 10.4738 7.1743 8.91326C7.1743 8.42669 7.29731 7.96883 7.51396 7.56909C6.90078 8.19618 6.52222 9.05369 6.52222 10C6.52222 11.9207 8.07924 13.4778 9.99999 13.4778C11.9207 13.4778 13.4778 11.9208 13.4778 10C13.4778 9.05369 13.0992 8.19618 12.486 7.56909C12.7027 7.96891 12.8257 8.42669 12.8257 8.91326Z" fill="#D80027"/>
<path d="M9.34802 5.65283H10.6522V12.1736H9.34802V5.65283Z" fill="#D80027"/>
<path d="M12.1736 6.95703H7.82642C7.82642 7.25715 8.08787 7.50044 8.38795 7.50044H8.36983C8.36983 7.80056 8.61315 8.04385 8.91324 8.04385C8.91324 8.34398 9.15656 8.58726 9.45665 8.58726H10.5434C10.8436 8.58726 11.0868 8.34398 11.0868 8.04385C11.387 8.04385 11.6302 7.80056 11.6302 7.50044H11.6122C11.9122 7.5004 12.1736 7.25719 12.1736 6.95703Z" fill="#D80027"/>
<path d="M6.95703 12.6084H13.0431V13.9126H6.95703V12.6084Z" fill="#D80027"/>
<path d="M11.3042 13.043H13.9125V14.3471H11.3042V13.043Z" fill="#D80027"/>
<path d="M6.08765 13.043H8.69594V14.3471H6.08765V13.043Z" fill="#D80027"/>
</g>
<defs>
<clipPath id="clip0_3366_14931">
<rect width="20" height="20" fill="white"/>
</clipPath>
</defs>
</svg>
