<svg width="20" height="20" viewBox="0 0 20 20" fill="none" xmlns="http://www.w3.org/2000/svg">
<g clip-path="url(#clip0_3366_14948)">
<path d="M0 10C0 4.47719 4.47719 0 10 0C15.5228 0 20 4.47719 20 10C19.5652 10 10 11.3043 10 11.3043L0 10Z" fill="#D80027"/>
<path d="M20 10C20 15.5228 15.5228 20 10 20C4.47719 20 0 15.5228 0 10" fill="#6DA544"/>
<path d="M9.99997 6.52173L10.7553 8.84665H13.2001L11.2223 10.2836L11.9777 12.6087L9.99997 11.1718L8.02219 12.6087L8.7777 10.2836L6.79985 8.84665H9.24454L9.99997 6.52173Z" fill="#FFDA44"/>
</g>
<defs>
<clipPath id="clip0_3366_14948">
<rect width="20" height="20" fill="white"/>
</clipPath>
</defs>
</svg>
