<svg width="20" height="20" viewBox="0 0 20 20" fill="none" xmlns="http://www.w3.org/2000/svg">
<g clip-path="url(#clip0_3366_15088)">
<path d="M20 10C20 15.5228 15.5228 20 10 20C4.47719 20 0 15.5228 0 10C0 10.0024 10 0.00109375 10 0C15.5228 0 20 4.47719 20 10Z" fill="#0052B4"/>
<path d="M9.97327 9.9999H10C10 9.99092 10 9.98217 10 9.97314C9.99112 9.98209 9.98221 9.991 9.97327 9.9999Z" fill="#F0F0F0"/>
<path d="M10 5.21738C10 3.45781 10 2.30488 10 0H9.99832C4.47621 0.0009375 0 4.4777 0 10H5.21738V7.06207L8.15531 10H9.97328C9.98219 9.99109 9.99109 9.98219 10 9.97324C10 9.29953 10 8.6984 10 8.15539L7.06203 5.21738H10Z" fill="#F0F0F0"/>
<path d="M14.3478 7.39137C15.3083 7.39137 16.0869 6.61273 16.0869 5.65223C16.0869 4.69173 15.3083 3.91309 14.3478 3.91309C13.3873 3.91309 12.6086 4.69173 12.6086 5.65223C12.6086 6.61273 13.3873 7.39137 14.3478 7.39137Z" fill="#6DA544"/>
<path d="M5.05917 1.30444C3.49514 2.19503 2.19487 3.49526 1.30432 5.05929V10.0001H3.91303V3.91323V3.91315H9.99999C9.99999 3.09038 9.99999 2.30655 9.99999 1.30444H5.05917Z" fill="#D80027"/>
<path d="M9.99996 8.77038L6.44703 5.21753H5.21735V5.21761L9.99989 10.0001H9.99996C9.99996 10.0001 9.99996 9.15218 9.99996 8.77038Z" fill="#D80027"/>
<path d="M11.3043 5.21753H17.3913V7.82624H11.3043V5.21753Z" fill="#D80027"/>
<path d="M11.3043 11.7393V13.4784H12.2193C12.768 14.0161 13.5189 14.348 14.3478 14.348C15.1767 14.348 15.9276 14.0161 16.4763 13.4784H16.5217H17.3913V11.7393H11.3043Z" fill="#FFDA44"/>
<path d="M11.3043 7.39136V10.0001C11.3043 12.3297 14.3478 13.0435 14.3478 13.0435C14.3478 13.0435 17.3913 12.3297 17.3913 10.0001V7.39136H11.3043Z" fill="#338AF3"/>
<path d="M14.3477 8.78491C13.5868 8.78491 13.5868 9.48058 12.826 9.48058C12.0652 9.48058 12.0652 8.78491 11.3044 8.78491V10.0023C12.0652 10.0023 12.0652 10.698 12.826 10.698C13.5868 10.698 13.5868 10.0023 14.3477 10.0023C15.1086 10.0023 15.1086 10.698 15.8695 10.698C16.6304 10.698 16.6304 10.0023 17.3913 10.0023V8.78491C16.6304 8.78491 16.6304 9.48058 15.8695 9.48058C15.1086 9.48058 15.1086 8.78491 14.3477 8.78491Z" fill="#F3F3F3"/>
<path d="M14.3477 6.3479C13.5868 6.3479 13.5868 7.04356 12.826 7.04356C12.0652 7.04356 12.0652 6.3479 11.3044 6.3479V7.56528C12.0652 7.56528 12.0652 8.26095 12.826 8.26095C13.5868 8.26095 13.5868 7.56528 14.3477 7.56528C15.1086 7.56528 15.1086 8.26095 15.8695 8.26095C16.6304 8.26095 16.6304 7.56528 17.3913 7.56528V6.3479C16.6304 6.3479 16.6304 7.04356 15.8695 7.04356C15.1086 7.04356 15.1086 6.3479 14.3477 6.3479Z" fill="#F3F3F3"/>
</g>
<defs>
<clipPath id="clip0_3366_15088">
<rect width="20" height="20" fill="white"/>
</clipPath>
</defs>
</svg>
