<svg width="20" height="20" viewBox="0 0 20 20" fill="none" xmlns="http://www.w3.org/2000/svg">
<g clip-path="url(#clip0_3366_15407)">
<path d="M10 20C15.5228 20 20 15.5228 20 10C20 4.47715 15.5228 0 10 0C4.47715 0 0 4.47715 0 10C0 15.5228 4.47715 20 10 20Z" fill="#F0F0F0"/>
<path d="M9.13042 10C9.13042 10 2.93475 17.0725 2.92889 17.0711C4.7385 18.8807 7.23854 20 9.99999 20C15.5228 20 20 15.5228 20 10H9.13042Z" fill="#D80027"/>
<path d="M2.92893 2.92896C-0.976309 6.83419 -0.976309 13.1659 2.92893 17.0711C4.54271 15.4574 6.09478 13.9053 10 10L2.92893 2.92896Z" fill="#0052B4"/>
</g>
<defs>
<clipPath id="clip0_3366_15407">
<rect width="20" height="20" fill="white"/>
</clipPath>
</defs>
</svg>
