<svg width="20" height="20" viewBox="0 0 20 20" fill="none" xmlns="http://www.w3.org/2000/svg">
<g clip-path="url(#clip0_3366_15747)">
<path d="M20 9.99996C20 8.77676 19.78 7.605 19.378 6.52172L10 6.08691L0.621992 6.52168C0.220039 7.605 0 8.77676 0 9.99996C0 11.2232 0.220039 12.3949 0.621992 13.4782L10 13.913L19.378 13.4782C19.78 12.3949 20 11.2232 20 9.99996Z" fill="#F0F0F0"/>
<path d="M9.99999 20C14.2996 20 17.9651 17.2863 19.378 13.4783H0.621979C2.03491 17.2863 5.70034 20 9.99999 20Z" fill="#0052B4"/>
<path d="M0.621979 6.52176H19.378C17.9651 2.71375 14.2996 0 9.99999 0C5.70034 0 2.03491 2.71375 0.621979 6.52176Z" fill="#6DA544"/>
</g>
<defs>
<clipPath id="clip0_3366_15747">
<rect width="20" height="20" fill="white"/>
</clipPath>
</defs>
</svg>
