<svg width="20" height="20" viewBox="0 0 20 20" fill="none" xmlns="http://www.w3.org/2000/svg">
<g clip-path="url(#clip0_3366_15880)">
<path d="M10 20C15.5228 20 20 15.5228 20 10C20 4.47715 15.5228 0 10 0C4.47715 0 0 4.47715 0 10C0 15.5228 4.47715 20 10 20Z" fill="#FFDA44"/>
<path d="M4.36378 1.73914C5.96867 0.642031 7.90921 0 10 0C12.0908 0 14.0313 0.642031 15.6362 1.73914L10 2.17391L4.36378 1.73914Z" fill="#A2001D"/>
<path d="M10 10L9.36181 9.36182L9.19235 9.66537L10 10Z" fill="#0052B4"/>
<path d="M2.92891 2.92896C-0.976324 6.83419 -0.976324 13.1659 2.92891 17.0711C4.5427 15.4574 6.09477 13.9053 10 10L2.92891 2.92896Z" fill="#496E2D"/>
<path d="M17.0711 2.92896C20.9763 6.83419 20.9763 13.1659 17.0711 17.0711C15.4573 15.4574 13.9052 13.9053 10 10L17.0711 2.92896Z" fill="#496E2D"/>
<path d="M10 13.4782C11.921 13.4782 13.4782 11.921 13.4782 9.99997C13.4782 8.07899 11.921 6.52173 10 6.52173C8.07902 6.52173 6.52176 8.07899 6.52176 9.99997C6.52176 11.921 8.07902 13.4782 10 13.4782Z" fill="#A2001D"/>
<path d="M9.99997 6.52173L10.7796 8.9213H13.303L11.2616 10.4046L12.0413 12.8043L9.99997 11.3213L7.95856 12.8043L8.73836 10.4046L6.69704 8.9213H9.22024L9.99997 6.52173Z" fill="#FFDA44"/>
<path d="M10.0034 0H9.99669C7.2368 0.000898438 4.73833 1.11977 2.92946 2.92844H17.0706C15.2617 1.11977 12.7632 0.000898438 10.0034 0Z" fill="#A2001D"/>
<path d="M2.9295 17.0715C4.73911 18.8809 7.23888 19.9999 10 19.9999C12.7611 19.9999 15.2609 18.8809 17.0705 17.0715H2.9295Z" fill="#A2001D"/>
<path d="M10 1.08691L10.1619 1.58512H10.6857L10.2619 1.89305L10.4239 2.39125L10 2.08336L9.57621 2.39125L9.73812 1.89305L9.31425 1.58512H9.83808L10 1.08691Z" fill="#FFDA44"/>
<path d="M7.57512 1.08691L7.73703 1.58512H8.26086L7.83707 1.89305L7.99898 2.39125L7.57512 2.08336L7.15137 2.39125L7.31324 1.89305L6.88937 1.58512H7.4132L7.57512 1.08691Z" fill="#FFDA44"/>
<path d="M12.4249 1.08691L12.5868 1.58512H13.1106L12.6868 1.89305L12.8487 2.39125L12.4249 2.08336L12.0011 2.39125L12.163 1.89305L11.7391 1.58512H12.263L12.4249 1.08691Z" fill="#FFDA44"/>
<path d="M10 17.6086L10.1619 18.1068H10.6857L10.2619 18.4148L10.4239 18.913L10 18.605L9.57621 18.913L9.73812 18.4148L9.31425 18.1068H9.83808L10 17.6086Z" fill="#FFDA44"/>
<path d="M7.57512 17.6086L7.73703 18.1068H8.26086L7.83707 18.4148L7.99898 18.913L7.57512 18.605L7.15137 18.913L7.31324 18.4148L6.88937 18.1068H7.4132L7.57512 17.6086Z" fill="#FFDA44"/>
<path d="M12.4249 17.6086L12.5868 18.1068H13.1106L12.6868 18.4148L12.8487 18.913L12.4249 18.605L12.0011 18.913L12.163 18.4148L11.7391 18.1068H12.263L12.4249 17.6086Z" fill="#FFDA44"/>
<path d="M3.04699 9.8347C3.30383 10.2405 3.18313 10.7777 2.7773 11.0345C2.37152 11.2914 1.83434 11.1707 1.57746 10.7649C1.11242 10.0302 1.38207 8.83032 1.38207 8.83032C1.38207 8.83032 2.58191 9.09997 3.04699 9.8347Z" fill="#FFDA44"/>
<path d="M2.54477 11.1022C2.78488 11.1022 2.97953 10.9075 2.97953 10.6674C2.97953 10.4273 2.78488 10.2327 2.54477 10.2327C2.30465 10.2327 2.11 10.4273 2.11 10.6674C2.11 10.9075 2.30465 11.1022 2.54477 11.1022Z" fill="#A2001D"/>
</g>
<defs>
<clipPath id="clip0_3366_15880">
<rect width="20" height="20" fill="white"/>
</clipPath>
</defs>
</svg>
