<svg width="20" height="20" viewBox="0 0 20 20" fill="none" xmlns="http://www.w3.org/2000/svg">
<g clip-path="url(#clip0_3366_16323)">
<path d="M10 20C15.5228 20 20 15.5228 20 10C20 4.47715 15.5228 0 10 0C4.47715 0 0 4.47715 0 10C0 15.5228 4.47715 20 10 20Z" fill="#F0F0F0"/>
<path d="M9.99998 0C6.03537 0 2.60975 2.30723 0.992249 5.65219H19.0077C17.3902 2.30723 13.9646 0 9.99998 0Z" fill="black"/>
<path d="M9.99998 20.0001C6.03537 20.0001 2.60975 17.6929 0.992249 14.3479H19.0077C17.3902 17.6929 13.9646 20.0001 9.99998 20.0001Z" fill="#496E2D"/>
<path d="M19.5278 6.95654H0.472227C0.165898 7.91627 0 8.93873 0 10C0 11.0613 0.165898 12.0838 0.472227 13.0435H19.5277C19.8341 12.0838 20 11.0613 20 10C20 8.93873 19.8341 7.91627 19.5278 6.95654Z" fill="#A2001D"/>
<path d="M13.1138 4.62106L11.9296 4.07446L9.99998 8.44364L8.07037 4.07446L6.88611 4.62106L9.28173 9.99993L6.88611 15.3788L8.07037 15.9254L9.99998 11.5562L11.9296 15.9254L13.1138 15.3788L10.7182 9.99993L13.1138 4.62106Z" fill="#F0F0F0"/>
<path d="M10.8043 5.13613C10.3459 4.63547 9.99995 4.34766 9.99995 4.34766C9.99995 4.34766 9.65406 4.63543 9.19562 5.13613V14.8635C9.65406 15.3642 9.99995 15.652 9.99995 15.652C9.99995 15.652 10.3459 15.3643 10.8043 14.8635V5.13613Z" fill="#F0F0F0"/>
<path d="M7.82611 7.00158V12.9981C8.31056 13.8565 8.90349 14.5601 9.34787 15.0266V4.97314C8.90349 5.43959 8.31052 6.14322 7.82611 7.00158Z" fill="#A2001D"/>
<path d="M12.1739 7.00158C11.6894 6.14318 11.0965 5.43959 10.6522 4.97314V15.0266C11.0965 14.5601 11.6894 13.8565 12.1739 12.9981V7.00158Z" fill="#A2001D"/>
<path d="M12.1739 7.00171V12.9983C12.6643 12.1292 13.0435 11.1015 13.0435 10C13.0435 8.89858 12.6643 7.87085 12.1739 7.00171Z" fill="black"/>
<path d="M7.82611 7.00171V12.9983C7.33568 12.1292 6.95654 11.1015 6.95654 10C6.95654 8.89858 7.33568 7.87085 7.82611 7.00171Z" fill="black"/>
</g>
<defs>
<clipPath id="clip0_3366_16323">
<rect width="20" height="20" fill="white"/>
</clipPath>
</defs>
</svg>
