<svg width="20" height="20" viewBox="0 0 20 20" fill="none" xmlns="http://www.w3.org/2000/svg">
<g clip-path="url(#clip0_3366_16336)">
<path d="M0 10C0 4.47719 4.47719 0 10 0C15.5228 0 20 4.47719 20 10" fill="#D80027"/>
<path d="M13.4782 9.3L12.0569 9.96848L12.8138 11.345L11.2705 11.0497L11.0749 12.6088L9.99997 11.4621L8.92497 12.6088L8.72946 11.0497L7.18614 11.3449L7.94298 9.96848L6.52173 9.3L7.94298 8.63141L7.18614 7.25504L8.72942 7.5502L8.92501 5.99121L9.99997 7.13781L11.075 5.99121L11.2705 7.5502L12.8138 7.25504L12.057 8.63152L13.4782 9.3Z" fill="#FFDA44"/>
<path d="M12.6087 3.26083H10.6521C10.6521 2.90071 10.3601 2.60864 9.99995 2.60864C9.63979 2.60864 9.34776 2.90067 9.34776 3.26083H7.39124C7.39124 3.62099 7.70499 3.91302 8.06514 3.91302H8.04338C8.04338 4.27317 8.33534 4.56521 8.69557 4.56521C8.69557 4.92536 8.98752 5.21739 9.34776 5.21739H10.6521C11.0122 5.21739 11.3043 4.9254 11.3043 4.56521C11.6644 4.56521 11.9565 4.27321 11.9565 3.91302H11.9347C12.2949 3.91302 12.6087 3.62103 12.6087 3.26083Z" fill="#FFDA44"/>
<path d="M20 10C20 15.5228 15.5228 20 10 20C4.47719 20 0 15.5228 0 10H20Z" fill="#F0F0F0"/>
<path d="M10 19.9999C13.1259 19.9999 15.9163 18.5654 17.7501 16.3191C17.4202 16.0942 17.2422 15.7307 16.6665 15.7307C15.8332 15.7307 15.8332 16.4927 14.9999 16.4927C14.1667 16.4927 14.1666 15.7307 13.3333 15.7307C12.5 15.7307 12.5 16.4927 11.6667 16.4927C10.8333 16.4927 10.8333 15.7307 9.99986 15.7307C9.16654 15.7307 9.16654 16.4927 8.33325 16.4927C7.50005 16.4927 7.50005 15.7307 6.66673 15.7307C5.83333 15.7307 5.83333 16.4927 4.99993 16.4927C4.16654 16.4927 4.16654 15.7307 3.33314 15.7307C2.75759 15.7307 2.5795 16.0941 2.24982 16.319C4.08357 18.5654 6.87411 19.9999 10 19.9999Z" fill="#0052B4"/>
<path d="M18.3332 11.2754C17.4999 11.2754 17.4999 10.5134 16.6665 10.5134C15.8332 10.5134 15.8332 11.2754 14.9999 11.2754C14.1666 11.2754 14.1666 10.5134 13.3333 10.5134C12.5 10.5134 12.5 11.2754 11.6666 11.2754C10.8333 11.2754 10.8332 10.5134 9.99984 10.5134C9.16652 10.5134 9.16652 11.2754 8.33324 11.2754C7.50003 11.2754 7.50003 10.5134 6.66671 10.5134C5.83331 10.5134 5.83331 11.2754 4.99992 11.2754C4.16652 11.2754 4.16652 10.5134 3.33312 10.5134C2.49991 10.5134 2.49991 11.2754 1.66659 11.2754C0.837766 11.2754 0.832961 10.5218 0.0130005 10.5138C0.0360864 10.9712 0.0906958 11.4203 0.173274 11.8594C0.837493 11.957 0.895657 12.6087 1.66663 12.6087C2.49995 12.6087 2.49995 11.8468 3.33316 11.8468C4.16656 11.8468 4.16656 12.6087 4.99995 12.6087C5.83335 12.6087 5.83335 11.8468 6.66675 11.8468C7.50007 11.8468 7.50007 12.6087 8.33327 12.6087C9.1666 12.6087 9.1666 11.8468 9.99988 11.8468C10.8333 11.8468 10.8333 12.6087 11.6667 12.6087C12.5001 12.6087 12.5001 11.8468 13.3334 11.8468C14.1667 11.8468 14.1667 12.6087 15 12.6087C15.8332 12.6087 15.8333 11.8468 16.6666 11.8468C17.5 11.8468 17.5 12.6087 18.3332 12.6087C19.1043 12.6087 19.1625 11.9571 19.8267 11.8594C19.9093 11.4203 19.9639 10.9712 19.9871 10.5138C19.1669 10.5219 19.1621 11.2754 18.3332 11.2754Z" fill="#0052B4"/>
<path d="M16.6665 13.1221C15.8332 13.1221 15.8332 13.884 14.9999 13.884C14.1666 13.884 14.1666 13.1221 13.3333 13.1221C12.5 13.1221 12.5 13.884 11.6666 13.884C10.8332 13.884 10.8332 13.1221 9.99981 13.1221C9.16649 13.1221 9.16649 13.884 8.33321 13.884C7.50001 13.884 7.50001 13.1221 6.66669 13.1221C5.83329 13.1221 5.83329 13.884 4.99989 13.884C4.16649 13.884 4.16649 13.1221 3.33309 13.1221C2.49989 13.1221 2.49989 13.884 1.66657 13.884C1.07114 13.884 0.901062 13.4951 0.548523 13.2729C0.78321 13.951 1.08852 14.5961 1.45622 15.199C1.52016 15.2108 1.58977 15.2173 1.66657 15.2173C2.49989 15.2173 2.49989 14.4555 3.33309 14.4555C4.16649 14.4555 4.16649 15.2173 4.99989 15.2173C5.83329 15.2173 5.83329 14.4555 6.66669 14.4555C7.50001 14.4555 7.50001 15.2173 8.33321 15.2173C9.16653 15.2173 9.16653 14.4555 9.99981 14.4555C10.8332 14.4555 10.8332 15.2173 11.6666 15.2173C12.5 15.2173 12.5 14.4555 13.3333 14.4555C14.1666 14.4555 14.1666 15.2173 14.9999 15.2173C15.8332 15.2173 15.8332 14.4555 16.6665 14.4555C17.4999 14.4555 17.4999 15.2173 18.3332 15.2173C18.41 15.2173 18.4797 15.2108 18.5436 15.199C18.9113 14.5961 19.2166 13.951 19.4514 13.273C19.0988 13.495 18.9287 13.884 18.3332 13.884C17.4999 13.884 17.4999 13.1221 16.6665 13.1221Z" fill="#0052B4"/>
<path d="M19.969 9.20984C19.167 9.22879 19.156 9.97094 18.3332 9.97094C17.4999 9.97094 17.4999 9.20898 16.6665 9.20898C15.8332 9.20898 15.8332 9.97094 14.9999 9.97094C14.1666 9.97094 14.1666 9.20898 13.3333 9.20898C12.5 9.20898 12.5 9.97094 11.6666 9.97094C10.8333 9.97094 10.8332 9.20898 9.99984 9.20898C9.16652 9.20898 9.16652 9.97094 8.33324 9.97094C7.50004 9.97094 7.50004 9.20898 6.66672 9.20898C5.83332 9.20898 5.83332 9.97094 4.99992 9.97094C4.16652 9.97094 4.16652 9.20898 3.33313 9.20898C2.49992 9.20898 2.49992 9.97094 1.6666 9.97094C0.843984 9.97094 0.832852 9.22887 0.0309766 9.20984C0.010625 9.47055 0 9.73398 0 9.99988C0 10.182 0.00515625 10.363 0.0148828 10.5427C0.832969 10.5519 0.838398 11.3042 1.66664 11.3042C2.49996 11.3042 2.49996 10.5423 3.33316 10.5423C4.16656 10.5423 4.16656 11.3042 4.99996 11.3042C5.83336 11.3042 5.83336 10.5423 6.66676 10.5423C7.50008 10.5423 7.50008 11.3042 8.33328 11.3042C9.1666 11.3042 9.1666 10.5423 9.99988 10.5423C10.8333 10.5423 10.8333 11.3042 11.6667 11.3042C12.5001 11.3042 12.5001 10.5423 13.3334 10.5423C14.1667 10.5423 14.1667 11.3042 15 11.3042C15.8332 11.3042 15.8333 10.5423 16.6666 10.5423C17.5 10.5423 17.5 11.3042 18.3332 11.3042C19.1616 11.3042 19.167 10.5519 19.9852 10.5427C19.9948 10.363 20 10.182 20 9.99988C20 9.73398 19.9894 9.47055 19.969 9.20984Z" fill="#F0F0F0"/>
</g>
<defs>
<clipPath id="clip0_3366_16336">
<rect width="20" height="20" fill="white"/>
</clipPath>
</defs>
</svg>
