<svg width="20" height="20" viewBox="0 0 20 20" fill="none" xmlns="http://www.w3.org/2000/svg">
<g clip-path="url(#clip0_3366_16377)">
<path d="M10 20C15.5228 20 20 15.5228 20 10C20 4.47715 15.5228 0 10 0C4.47715 0 0 4.47715 0 10C0 15.5228 4.47715 20 10 20Z" fill="#F0F0F0"/>
<path d="M9.99999 0C5.37972 0 1.49198 3.13363 0.344482 7.39129H19.6555C18.508 3.13363 14.6203 0 9.99999 0Z" fill="#A2001D"/>
<path d="M9.99999 19.9999C14.6203 19.9999 18.508 16.8663 19.6555 12.6086H0.344482C1.49198 16.8663 5.37972 19.9999 9.99999 19.9999Z" fill="#A2001D"/>
</g>
<defs>
<clipPath id="clip0_3366_16377">
<rect width="20" height="20" fill="white"/>
</clipPath>
</defs>
</svg>
