<svg width="20" height="20" viewBox="0 0 20 20" fill="none" xmlns="http://www.w3.org/2000/svg">
<g clip-path="url(#clip0_3366_14770)">
<path d="M10 20C15.5228 20 20 15.5228 20 10C20 4.47715 15.5228 0 10 0C4.47715 0 0 4.47715 0 10C0 15.5228 4.47715 20 10 20Z" fill="#FFDA44"/>
<path d="M20 10.0001C20 6.56805 18.2707 3.54016 15.6362 1.73926H4.36379C1.7293 3.54016 0 6.56805 0 10.0001C0 13.4323 1.7293 16.4601 4.36379 18.261H15.6362C18.2707 16.4601 20 13.4323 20 10.0001Z" fill="#A2001D"/>
<path d="M7.82611 7.39139H12.1739V5.65229L11.3044 6.08705L10 4.78271L8.69568 6.08705L7.82611 5.65229V7.39139Z" fill="#FFDA44"/>
<path d="M13.9131 10.0002H11.74C11.8252 9.85278 11.8747 9.6822 11.8747 9.4997C11.8747 8.94552 11.4255 8.49634 10.8714 8.49634C10.4885 8.49634 10.156 8.71087 9.98684 9.0261C9.81766 8.71083 9.48516 8.49634 9.10231 8.49634C8.54821 8.49634 8.09895 8.94552 8.09895 9.4997C8.09895 9.68224 8.14856 9.85282 8.23372 10.0002H6.08688C6.08688 10.6652 6.66606 11.2042 7.33099 11.2042H7.29091C7.29091 11.7496 7.65368 12.2102 8.15106 12.3581L7.17384 13.3354L8.09614 14.2577L9.40446 12.9494C9.45571 12.9682 9.50872 12.9832 9.56352 12.9935L8.77298 14.7784C9.15181 14.9325 9.56583 15.018 10 15.018C10.4341 15.018 10.8482 14.9325 11.227 14.7784L10.4365 12.9935C10.4913 12.9832 10.5443 12.9682 10.5955 12.9494L11.9038 14.2577L12.8261 13.3354L11.8488 12.3581C12.3461 12.2101 12.709 11.7497 12.709 11.2042H12.6688C13.3338 11.2042 13.9131 10.6652 13.9131 10.0002Z" fill="#FFDA44"/>
<path d="M9.99999 10.6521L8.58694 11.3042V12.6086L9.99999 13.4782L11.413 12.6086V11.3042L9.99999 10.6521Z" fill="#6DA544"/>
<path d="M8.58694 10H11.413V11.7391H8.58694V10Z" fill="#0052B4"/>
</g>
<defs>
<clipPath id="clip0_3366_14770">
<rect width="20" height="20" fill="white"/>
</clipPath>
</defs>
</svg>
