<svg width="20" height="20" viewBox="0 0 20 20" fill="none" xmlns="http://www.w3.org/2000/svg">
<g clip-path="url(#clip0_3366_14973)">
<path d="M20 10C20 15.5228 15.5228 20 10 20C4.47719 20 0 15.5228 0 10C0 10.0024 10 0.00109375 10 0C15.5228 0 20 4.47719 20 10Z" fill="#0052B4"/>
<path d="M9.97324 9.9999H9.99999C9.99999 9.99092 9.99999 9.98217 9.99999 9.97314C9.99109 9.98209 9.98218 9.991 9.97324 9.9999Z" fill="#F0F0F0"/>
<path d="M10 5.21738C10 3.45781 10 2.30488 10 0H9.99832C4.47625 0.0009375 0 4.4777 0 10H5.21738V7.06207L8.15535 10H9.97328C9.98219 9.99109 9.99113 9.98219 10 9.97324C10 9.29953 10 8.6984 10 8.15539L7.06203 5.21738H10Z" fill="#F0F0F0"/>
<path d="M5.05917 1.30444C3.49514 2.19503 2.19491 3.49526 1.30432 5.05929V10.0001H3.91303V3.91323V3.91315H9.99999C9.99999 3.09038 9.99999 2.30655 9.99999 1.30444H5.05917Z" fill="#D80027"/>
<path d="M9.99999 8.77038L6.44713 5.21753C6.44713 5.21753 5.21741 5.21761 5.21741 5.21753V5.21761L9.99995 10.0001H9.99999C9.99999 10.0001 9.99999 9.15218 9.99999 8.77038Z" fill="#D80027"/>
<path d="M17.3176 7.42041L17.5334 8.08471H18.2319L17.6668 8.49525L17.8827 9.15951L17.3176 8.749L16.7525 9.15951L16.9683 8.49525L16.4032 8.08471H17.1017L17.3176 7.42041Z" fill="#D80027"/>
<path d="M14.8207 12.2029L15.1445 13.1994H16.1922L15.3446 13.8151L15.6684 14.8116L14.8207 14.1958L13.9731 14.8116L14.2969 13.8151L13.4492 13.1994H14.4969L14.8207 12.2029Z" fill="#D80027"/>
<path d="M14.915 4.37695L15.1849 5.20738H16.058L15.3516 5.72047L15.6214 6.55086L14.915 6.03762L14.2087 6.55086L14.4785 5.72047L13.7722 5.20738H14.6452L14.915 4.37695Z" fill="#D80027"/>
<path d="M12.5126 7.39136L12.8363 8.38784H13.8841L13.0364 9.00362L13.3602 10.0001L12.5126 9.38425L11.6649 10.0001L11.9887 9.00362L11.1411 8.38784H12.1888L12.5126 7.39136Z" fill="#D80027"/>
</g>
<defs>
<clipPath id="clip0_3366_14973">
<rect width="20" height="20" fill="white"/>
</clipPath>
</defs>
</svg>
