<svg width="20" height="20" viewBox="0 0 20 20" fill="none" xmlns="http://www.w3.org/2000/svg">
<g clip-path="url(#clip0_3366_15023)">
<path d="M14.3478 0.992266C13.0331 0.356562 11.5582 0 9.99998 0C8.44173 0 6.96685 0.356562 5.65216 0.992266L4.78259 10L5.65216 19.0077C6.96685 19.6434 8.44173 20 9.99998 20C11.5582 20 13.0331 19.6434 14.3478 19.0077L15.2174 10L14.3478 0.992266Z" fill="#F0F0F0"/>
<path d="M5.65219 0.992676C2.30723 2.6101 0 6.03545 0 10.0001C0 13.9647 2.30723 17.39 5.65219 19.0074V0.992676Z" fill="#6DA544"/>
<path d="M14.3478 0.992676V19.0074C17.6928 17.39 20 13.9646 20 10.0001C20 6.03549 17.6928 2.6101 14.3478 0.992676Z" fill="#6DA544"/>
<path d="M12.6087 13.0436L10 4.78271L7.3913 13.0436H9.34782V15.2175H10.6522V13.0436H12.6087Z" fill="#6DA544"/>
</g>
<defs>
<clipPath id="clip0_3366_15023">
<rect width="20" height="20" fill="white"/>
</clipPath>
</defs>
</svg>
