<svg width="20" height="20" viewBox="0 0 20 20" fill="none" xmlns="http://www.w3.org/2000/svg">
<g clip-path="url(#clip0_3366_15336)">
<path d="M10 20C15.5228 20 20 15.5228 20 10C20 4.47715 15.5228 0 10 0C4.47715 0 0 4.47715 0 10C0 15.5228 4.47715 20 10 20Z" fill="#F0F0F0"/>
<path d="M20 10C20 5.70043 17.2863 2.03496 13.4783 0.62207V19.3781C17.2863 17.9651 20 14.2997 20 10Z" fill="#D80027"/>
<path d="M0 10C0 14.2997 2.71375 17.9651 6.52176 19.3781V0.62207C2.71375 2.03496 0 5.70043 0 10Z" fill="#D80027"/>
</g>
<defs>
<clipPath id="clip0_3366_15336">
<rect width="20" height="20" fill="white"/>
</clipPath>
</defs>
</svg>
