<svg width="20" height="20" viewBox="0 0 20 20" fill="none" xmlns="http://www.w3.org/2000/svg">
<g clip-path="url(#clip0_3366_15491)">
<path d="M13.4782 0.621953C12.3949 0.220039 11.2232 5.19912e-09 9.99997 5.19912e-09C8.77677 -3.90573e-05 7.60505 0.220039 6.52173 0.621953L5.65216 9.99996L6.52173 19.378C7.60501 19.78 8.77673 20 9.99997 20C11.2231 20 12.3949 19.78 13.4782 19.378L14.3477 10L13.4782 0.621953Z" fill="#FFDA44"/>
<path d="M20 10.0001C20 5.70047 17.2863 2.03496 13.4783 0.62207V19.3782C17.2863 17.9651 20 14.2998 20 10.0001Z" fill="#D80027"/>
<path d="M0 10C0 14.2997 2.71375 17.9651 6.52168 19.3781L6.52172 0.62207C2.71375 2.03496 0 5.70035 0 10H0Z" fill="#0052B4"/>
</g>
<defs>
<clipPath id="clip0_3366_15491">
<rect width="20" height="20" fill="white"/>
</clipPath>
</defs>
</svg>
