<svg width="20" height="20" viewBox="0 0 20 20" fill="none" xmlns="http://www.w3.org/2000/svg">
<g clip-path="url(#clip0_3366_15536)">
<path d="M20 9.99989C20 15.5227 15.5228 19.9999 10 19.9999C4.47719 19.9999 0 15.5227 0 9.99989C0.434766 9.99989 10 8.69556 10 8.69556L20 9.99989Z" fill="#338AF3"/>
<path d="M0 10C0 4.47719 4.47719 0 10 0C15.5228 0 20 4.47719 20 10" fill="#F0F0F0"/>
<path d="M13.9694 6.90015L10 10.8696L6.03063 6.90015C5.51731 7.66214 5.21742 8.57929 5.21742 9.56519V10.8695C5.21742 12.9639 6.57074 14.748 8.44875 15.3937C8.19809 15.885 8.24035 16.4981 8.60766 16.9565C9.09547 16.5655 9.60051 16.1608 10.0289 15.8175C10.4574 16.1608 10.9625 16.5655 11.4502 16.9565C11.8218 16.4927 11.8611 15.8705 11.6005 15.3763C13.4529 14.7166 14.7826 12.9455 14.7826 10.8695V9.56522C14.7826 8.57929 14.4827 7.66218 13.9694 6.90015Z" fill="#6DA544"/>
<path d="M10 14.3477C8.08207 14.3477 6.52176 12.7874 6.52176 10.8695V9.56516C6.52176 7.64723 8.08211 6.08691 10 6.08691C11.9179 6.08691 13.4782 7.64727 13.4782 9.56516V10.8695C13.4782 12.7874 11.9179 14.3477 10 14.3477Z" fill="#FFDA44"/>
<path d="M12.1739 10.8696V9.56526C12.1739 8.36655 11.1987 7.39136 10 7.39136C8.80133 7.39136 7.8261 8.36659 7.8261 9.56526V10.8696L10 11.3044L12.1739 10.8696Z" fill="#338AF3"/>
<path d="M7.8261 10.8696C7.8261 12.0683 8.80133 13.0435 10 13.0435C11.1987 13.0435 12.1739 12.0683 12.1739 10.8696H7.8261Z" fill="#6DA544"/>
<path d="M12.6087 6.08693C12.6087 5.36658 12.0247 4.7826 11.3044 4.7826C10.9702 4.7826 10.6656 4.90838 10.4348 5.11498V4.34779H10.8696V3.47822H10.4348V3.04346H9.56523V3.47822H9.13047V4.34779H9.56523V5.11498C9.33441 4.90838 9.0298 4.7826 8.69566 4.7826C7.97531 4.7826 7.39133 5.36658 7.39133 6.08693C7.39133 6.47314 7.55933 6.82002 7.82609 7.05889V7.82607H12.1739V7.05889C12.4407 6.82002 12.6087 6.47314 12.6087 6.08693Z" fill="#FFDA44"/>
</g>
<defs>
<clipPath id="clip0_3366_15536">
<rect width="20" height="20" fill="white"/>
</clipPath>
</defs>
</svg>
