<svg width="20" height="20" viewBox="0 0 20 20" fill="none" xmlns="http://www.w3.org/2000/svg">
<g clip-path="url(#clip0_3366_15662)">
<path d="M10 20C15.5228 20 20 15.5228 20 10C20 4.47715 15.5228 0 10 0C4.47715 0 0 4.47715 0 10C0 15.5228 4.47715 20 10 20Z" fill="#F0F0F0"/>
<path d="M10 0C4.47719 0 0 4.47719 0 10C0 11.2232 0.220039 12.395 0.621992 13.4782H19.378C19.78 12.395 20 11.2232 20 10C20 4.47719 15.5228 0 10 0Z" fill="#0052B4"/>
<path d="M10 0C5.70037 0 2.03494 2.71375 0.622009 6.52176H19.3781C17.9651 2.71375 14.2997 0 10 0Z" fill="#D80027"/>
<path d="M2.58588 5.6521V10.6406C2.58588 13.4783 6.29295 14.3478 6.29295 14.3478C6.29295 14.3478 9.99998 13.4783 9.99998 10.6406V5.6521H2.58588Z" fill="#D80027"/>
<path d="M4.11902 6.5218H8.46687V4.78266L7.5973 5.21742L6.29296 3.91309L4.98859 5.21742L4.11902 4.78266V6.5218Z" fill="#FFDA44"/>
<path d="M9.13046 11.3354L6.30437 8.50928L3.47827 11.3354L4.40058 12.2577L6.30437 10.3539L8.20816 12.2577L9.13046 11.3354Z" fill="#FFDA44"/>
<path d="M9.13046 8.69561H7.81187C7.88601 8.56765 7.92913 8.41944 7.92913 8.26093C7.92913 7.78062 7.5398 7.39136 7.05956 7.39136C6.72773 7.39136 6.43956 7.57722 6.29296 7.85046C6.14636 7.57726 5.85819 7.39136 5.52636 7.39136C5.04612 7.39136 4.65679 7.78062 4.65679 8.26093C4.65679 8.41944 4.69991 8.56769 4.77405 8.69561H3.47827C3.47827 9.17589 3.89659 9.56519 4.37679 9.56519H4.34784C4.34784 10.0455 4.73714 10.4348 5.21741 10.4348C5.21741 10.86 5.5228 11.2133 5.92612 11.2889L5.24097 12.8358C5.56933 12.9693 5.92815 13.0435 6.3044 13.0435C6.68065 13.0435 7.03948 12.9693 7.36784 12.8358L6.68269 11.2889C7.08601 11.2133 7.3914 10.86 7.3914 10.4348C7.87167 10.4348 8.26097 10.0455 8.26097 9.56519H8.23202C8.71218 9.56519 9.13046 9.17585 9.13046 8.69561Z" fill="#F0F0F0"/>
</g>
<defs>
<clipPath id="clip0_3366_15662">
<rect width="20" height="20" fill="white"/>
</clipPath>
</defs>
</svg>
