<svg width="20" height="20" viewBox="0 0 20 20" fill="none" xmlns="http://www.w3.org/2000/svg">
<g clip-path="url(#clip0_3366_15692)">
<path d="M4.36377 18.2609C5.96869 19.358 7.9092 20.0001 9.99998 20.0001C12.0908 20.0001 14.0313 19.358 15.6362 18.2609L9.99998 17.3914L4.36377 18.2609Z" fill="#D80027"/>
<path d="M15.6362 1.73914C14.0313 0.64207 12.0908 0 9.99998 0C7.9092 0 5.96861 0.64207 4.36377 1.73914L9.99998 2.60871L15.6362 1.73914Z" fill="#D80027"/>
<path d="M4.36377 18.2609C5.96869 19.358 7.9092 20.0001 9.99998 20.0001C12.0908 20.0001 14.0313 19.358 15.6362 18.2609L9.99998 17.3914L4.36377 18.2609Z" fill="#D80027"/>
<path d="M15.6362 1.73914C14.0313 0.64207 12.0908 0 9.99998 0C7.9092 0 5.96861 0.64207 4.36377 1.73914L9.99998 2.60871L15.6362 1.73914Z" fill="#D80027"/>
<path d="M19.9745 9.34772C19.7376 6.2614 17.8623 3.26077 15.6362 1.73901H4.36377C1.89752 3.42499 0.22459 6.18624 0.0209961 9.34772L9.99998 9.99991L19.9745 9.34772Z" fill="#0052B4"/>
<path d="M0.0209961 10.6522C0.22459 13.8137 1.89748 16.5749 4.36373 18.2609H15.6362C18.1025 16.575 19.7753 13.8137 19.9789 10.6522L9.99998 10L0.0209961 10.6522Z" fill="#0052B4"/>
<path d="M19.9745 9.34788H10.6522V1.30444H9.34785V9.34788H0.0210547C0.0071875 9.56351 0 9.78097 0 10.0001C0 10.2192 0.00714844 10.4366 0.0210156 10.6523H9.34785V18.6958H10.6522V10.6523H19.979C19.9929 10.4366 20 10.2192 20 10.0001C20 9.78257 19.9912 9.56503 19.9745 9.34788Z" fill="#D80027"/>
<path d="M3.91309 9.99993L10 6.17407L16.087 9.99993L10 13.8258L3.91309 9.99993Z" fill="#F0F0F0"/>
<path d="M6.52173 11.7391H14.3478L12.6087 9.13037L11.7391 9.99994L10.8695 9.56518L9.99997 10.8695H8.26083L7.39126 9.99994L6.52173 11.7391Z" fill="#6DA544"/>
<path d="M9.99995 7.39136L10.2158 8.05562H10.9142L10.3492 8.4662L10.565 9.1305L9.99995 8.71995L9.43487 9.1305L9.65073 8.4662L9.08569 8.05562H9.78409L9.99995 7.39136Z" fill="#FFDA44"/>
<path d="M10 5.08105L2.17395 10L10 14.919L17.8261 10L10 5.08105ZM4.62504 10L10 6.62164L15.375 10L10 13.3784L4.62504 10Z" fill="#D80027"/>
</g>
<defs>
<clipPath id="clip0_3366_15692">
<rect width="20" height="20" fill="white"/>
</clipPath>
</defs>
</svg>
