<svg width="20" height="20" viewBox="0 0 20 20" fill="none" xmlns="http://www.w3.org/2000/svg">
<g clip-path="url(#clip0_3366_15965)">
<path d="M0.992266 5.65229C0.356562 6.96697 0 8.44186 0 10.0001C0 11.5583 0.356562 13.0332 0.992266 14.3479L10 15.2175L19.0077 14.3479C19.6434 13.0332 20 11.5583 20 10.0001C20 8.44186 19.6434 6.96697 19.0077 5.65229L10 4.78271L0.992266 5.65229Z" fill="#F0F0F0"/>
<path d="M0.992615 14.3479C2.61004 17.6929 6.03539 20.0001 10 20.0001C13.9646 20.0001 17.39 17.6929 19.0074 14.3479H0.992615Z" fill="black"/>
<path d="M0.992615 5.65219H19.0074C17.39 2.30723 13.9646 0 10 0C6.03539 0 2.61004 2.30723 0.992615 5.65219Z" fill="#D80027"/>
<path d="M2.92893 2.92896C-0.976309 6.83419 -0.976309 13.1659 2.92893 17.0711C4.54271 15.4574 6.09478 13.9053 10 10L2.92893 2.92896Z" fill="#496E2D"/>
</g>
<defs>
<clipPath id="clip0_3366_15965">
<rect width="20" height="20" fill="white"/>
</clipPath>
</defs>
</svg>
