<svg width="20" height="20" viewBox="0 0 20 20" fill="none" xmlns="http://www.w3.org/2000/svg">
<g clip-path="url(#clip0_3366_15992)">
<path d="M10 20C15.5228 20 20 15.5228 20 10C20 4.47715 15.5228 0 10 0C4.47715 0 0 4.47715 0 10C0 15.5228 4.47715 20 10 20Z" fill="#FFDA44"/>
<path d="M7.82615 8.69566H19.9154C19.2762 3.78914 15.0808 0 10 0C9.25338 0 8.52607 0.0825391 7.82611 0.237695V8.69566H7.82615Z" fill="#0052B4"/>
<path d="M5.21739 8.69555V1.21582C2.47153 2.71402 0.505867 5.46211 0.0846558 8.69559H5.21739V8.69555Z" fill="#0052B4"/>
<path d="M5.21735 11.3044H0.0846558C0.505867 14.5379 2.47153 17.286 5.21739 18.7842L5.21735 11.3044Z" fill="#0052B4"/>
<path d="M7.82611 11.3045V19.7624C8.52607 19.9176 9.25338 20.0001 10 20.0001C15.0808 20.0001 19.2762 16.211 19.9154 11.3044H7.82611V11.3045Z" fill="#0052B4"/>
</g>
<defs>
<clipPath id="clip0_3366_15992">
<rect width="20" height="20" fill="white"/>
</clipPath>
</defs>
</svg>
