<svg width="20" height="20" viewBox="0 0 20 20" fill="none" xmlns="http://www.w3.org/2000/svg">
<g clip-path="url(#clip0_3366_16084)">
<path d="M0.992266 5.65229C0.356562 6.96697 0 8.44189 0 10.0001C0 11.5583 0.356562 13.0332 0.992266 14.3479L10 15.2175L19.0077 14.3479C19.6434 13.0332 20 11.5583 20 10.0001C20 8.44189 19.6434 6.96697 19.0077 5.65229L10 4.78271L0.992266 5.65229Z" fill="#F0F0F0"/>
<path d="M0.992615 14.3479C2.61008 17.6928 6.03543 20.0001 10 20.0001C13.9646 20.0001 17.39 17.6928 19.0074 14.3479H0.992615Z" fill="#6DA544"/>
<path d="M0.992615 5.65219H19.0074C17.39 2.30727 13.9646 0 10 0C6.03543 0 2.61008 2.30727 0.992615 5.65219Z" fill="#D80027"/>
<path d="M8.26086 12.6088H11.7391V11.1305L11.0435 11.4783L10 10.4348L8.95653 11.4783L8.26086 11.1305V12.6088Z" fill="#FFDA44"/>
<path d="M6.27079 10.8696L6.43271 11.3678H6.95654L6.53271 11.6758L6.69462 12.174L6.27079 11.8661L5.84697 12.174L6.00888 11.6758L5.58505 11.3678H6.10888L6.27079 10.8696Z" fill="#FFDA44"/>
<path d="M6.77272 9.13037L6.93463 9.62857H7.45846L7.03463 9.9365L7.19651 10.4347L6.77272 10.1268L6.34889 10.4347L6.5108 9.9365L6.08698 9.62857H6.6108L6.77272 9.13037Z" fill="#FFDA44"/>
<path d="M8.20756 7.82617L8.36948 8.32437H8.89327L8.46952 8.6323L8.63135 9.13051L8.20756 8.82262L7.78377 9.13051L7.94565 8.6323L7.52182 8.32437H8.04569L8.20756 7.82617Z" fill="#FFDA44"/>
<path d="M13.7292 10.8696L13.5673 11.3678H13.0435L13.4673 11.6758L13.3054 12.174L13.7292 11.8661L14.153 12.174L13.9911 11.6758L14.415 11.3678H13.8911L13.7292 10.8696Z" fill="#FFDA44"/>
<path d="M13.2273 9.13037L13.0654 9.62857H12.5416L12.9654 9.9365L12.8035 10.4347L13.2273 10.1268L13.6511 10.4347L13.4892 9.9365L13.913 9.62857H13.3892L13.2273 9.13037Z" fill="#FFDA44"/>
<path d="M11.7925 7.82617L11.6306 8.32437H11.1068L11.5305 8.6323L11.3687 9.13051L11.7925 8.82262L12.2163 9.13051L12.0544 8.6323L12.4782 8.32437H11.9544L11.7925 7.82617Z" fill="#FFDA44"/>
<path d="M10 7.17383L10.1619 7.67203H10.6858L10.2619 7.97996L10.4238 8.47816L10 8.17027L9.57618 8.47816L9.7381 7.97996L9.31427 7.67203H9.8381L10 7.17383Z" fill="#FFDA44"/>
</g>
<defs>
<clipPath id="clip0_3366_16084">
<rect width="20" height="20" fill="white"/>
</clipPath>
</defs>
</svg>
