<svg width="20" height="20" viewBox="0 0 20 20" fill="none" xmlns="http://www.w3.org/2000/svg">
<g clip-path="url(#clip0_3366_16258)">
<path d="M20 10C20 15.5228 15.5228 20 10 20C4.47719 20 0 15.5228 0 10C0 10.0024 10 0.00109375 10 0C15.5228 0 20 4.47719 20 10Z" fill="#338AF3"/>
<path d="M4.78262 10.0002H8.15536L5.21739 6.52197L4.78262 7.82631V10.0002Z" fill="#0052B4"/>
<path d="M10 8.15549L6.52176 4.78271H10L10 8.15549Z" fill="#0052B4"/>
<path d="M9.97324 9.9999H9.99999C9.99999 9.99092 9.99999 9.98217 9.99999 9.97314C9.99109 9.98209 9.98218 9.991 9.97324 9.9999Z" fill="#F0F0F0"/>
<path d="M10 5.21738C10 3.45781 10 2.30484 10 0H9.99836C4.47625 0.0009375 0 4.4777 0 10H5.21742V7.06207L8.15535 10H9.97332C9.98223 9.99109 9.99113 9.98219 10.0001 9.97324C10.0001 9.29953 10.0001 8.6984 10.0001 8.15539L7.06203 5.21738H10Z" fill="#F0F0F0"/>
<path d="M5.05917 1.30444C3.49514 2.19503 2.19491 3.49526 1.30432 5.05929V10.0001H3.91303V3.91323V3.91315H9.99999C9.99999 3.09038 9.99999 2.30655 9.99999 1.30444H5.05917Z" fill="#D80027"/>
<path d="M10 8.77038L6.4471 5.21753H5.21741V5.21761L9.99995 10.0001H10C10 10.0001 10 9.15218 10 8.77038Z" fill="#D80027"/>
<path d="M10.9143 16.5217L11.1302 17.186H11.8286L11.2636 17.5966L11.4795 18.2608L10.9143 17.8503L10.3493 18.2608L10.5651 17.5966L10 17.186H10.6984L10.9143 16.5217Z" fill="#FFDA44"/>
<path d="M16.477 12.1738L16.6928 12.8381H17.3913L16.8262 13.2487L17.0421 13.913L16.477 13.5025L15.912 13.913L16.1278 13.2487L15.5627 12.8381H16.2611L16.477 12.1738Z" fill="#FFDA44"/>
<path d="M17.8708 5.6521L18.0867 6.3164H18.7851L18.2201 6.72694L18.4359 7.3912L17.8708 6.98069L17.3058 7.3912L17.5216 6.72694L16.9565 6.3164H17.655L17.8708 5.6521Z" fill="#FFDA44"/>
<path d="M18.2161 10.4346L18.4319 11.0989H19.1304L18.5654 11.5095L18.7812 12.1737L18.2161 11.7632L17.6511 12.1737L17.8669 11.5095L17.3018 11.0989H18.0003L18.2161 10.4346Z" fill="#FFDA44"/>
<path d="M11.9159 14.9592L12.5383 15.2763L13.0322 14.7825L12.923 15.4723L13.5453 15.7894L12.8553 15.8987L12.7461 16.5886L12.4291 15.9662L11.7391 16.0755L12.233 15.5817L11.9159 14.9592Z" fill="#FFDA44"/>
<path d="M11.9159 12.3506L12.5383 12.6677L13.0322 12.1738L12.923 12.8637L13.5453 13.1807L12.8553 13.29L12.7461 13.9799L12.4291 13.3576L11.7391 13.4669L12.233 12.973L11.9159 12.3506Z" fill="#FFDA44"/>
<path d="M14.0898 14.0227L14.7122 14.3398L15.2061 13.8459L15.0969 14.5358L15.7192 14.8529L15.0293 14.9622L14.92 15.652L14.603 15.0296L13.9131 15.139L14.4069 14.6451L14.0898 14.0227Z" fill="#FFDA44"/>
<path d="M14.0898 8.4375L14.7122 8.75461L15.2061 8.26074L15.0969 8.95059L15.7192 9.26766L15.0293 9.37695L14.92 10.0668L14.603 9.44449L13.9131 9.55379L14.4069 9.05992L14.0898 8.4375Z" fill="#FFDA44"/>
<path d="M16.1967 8.37061L16.8191 8.68771L17.313 8.19385L17.2037 8.88369L17.8261 9.20076L17.1362 9.31006L17.0269 9.99994L16.7099 9.3776L16.02 9.48689L16.5138 8.99303L16.1967 8.37061Z" fill="#FFDA44"/>
</g>
<defs>
<clipPath id="clip0_3366_16258">
<rect width="20" height="20" fill="white"/>
</clipPath>
</defs>
</svg>
