<svg width="20" height="20" viewBox="0 0 20 20" fill="none" xmlns="http://www.w3.org/2000/svg">
<g clip-path="url(#clip0_3366_16296)">
<path d="M10 20C15.5228 20 20 15.5228 20 10C20 4.47715 15.5228 0 10 0C4.47715 0 0 4.47715 0 10C0 15.5228 4.47715 20 10 20Z" fill="#F0F0F0"/>
<path d="M2.06718 3.91187C1.28167 4.93386 0.689365 6.11179 0.344482 7.39144H5.54675L2.06718 3.91187Z" fill="#0052B4"/>
<path d="M19.6555 7.3914C19.3106 6.11179 18.7183 4.93386 17.9328 3.91187L14.4533 7.3914H19.6555Z" fill="#0052B4"/>
<path d="M0.344482 12.6086C0.689404 13.8883 1.28171 15.0662 2.06718 16.0881L5.54663 12.6086H0.344482Z" fill="#0052B4"/>
<path d="M16.0882 2.06722C15.0662 1.28171 13.8883 0.689404 12.6086 0.344482V5.54671L16.0882 2.06722Z" fill="#0052B4"/>
<path d="M3.9118 17.9328C4.9338 18.7183 6.11173 19.3106 7.39134 19.6556V14.4534L3.9118 17.9328Z" fill="#0052B4"/>
<path d="M7.3913 0.344482C6.11169 0.689404 4.93376 1.28171 3.9118 2.06718L7.3913 5.54667V0.344482Z" fill="#0052B4"/>
<path d="M12.6087 19.6556C13.8883 19.3106 15.0662 18.7183 16.0882 17.9329L12.6087 14.4534V19.6556Z" fill="#0052B4"/>
<path d="M14.4533 12.6086L17.9328 16.0882C18.7183 15.0662 19.3106 13.8883 19.6555 12.6086H14.4533Z" fill="#0052B4"/>
<path d="M19.9154 8.69566H11.3044H11.3044V0.0846484C10.8774 0.0290625 10.4421 0 10 0C9.55785 0 9.12262 0.0290625 8.69566 0.0846484V8.69559V8.69563H0.0846484C0.0290625 9.12262 0 9.55793 0 10C0 10.4421 0.0290625 10.8774 0.0846484 11.3043H8.69559H8.69563V19.9154C9.12262 19.9709 9.55785 20 10 20C10.4421 20 10.8774 19.971 11.3043 19.9154V11.3044V11.3044H19.9154C19.9709 10.8774 20 10.4421 20 10C20 9.55793 19.9709 9.12262 19.9154 8.69566Z" fill="#D80027"/>
<path d="M12.6087 12.6087L17.071 17.071C17.2763 16.8659 17.4721 16.6514 17.6589 16.429L13.8385 12.6086H12.6087V12.6087Z" fill="#D80027"/>
<path d="M7.39128 12.6086H7.3912L2.92889 17.0709C3.13405 17.2762 3.34854 17.472 3.57089 17.6588L7.39128 13.8383V12.6086Z" fill="#D80027"/>
<path d="M7.39128 7.39142V7.39134L2.92894 2.92896C2.7237 3.13411 2.52792 3.3486 2.34113 3.57095L6.16155 7.39138H7.39128V7.39142Z" fill="#D80027"/>
<path d="M12.6087 7.39126L17.0711 2.92884C16.8659 2.7236 16.6514 2.52782 16.4291 2.34106L12.6087 6.16149V7.39126Z" fill="#D80027"/>
</g>
<defs>
<clipPath id="clip0_3366_16296">
<rect width="20" height="20" fill="white"/>
</clipPath>
</defs>
</svg>
