<svg width="20" height="20" viewBox="0 0 20 20" fill="none" xmlns="http://www.w3.org/2000/svg">
<g clip-path="url(#clip0_3366_16411)">
<path d="M0.472188 6.95653C0.165859 7.91622 -3.90556e-05 8.9386 6.89667e-09 9.99989C-3.90556e-05 11.0612 0.165898 12.0837 0.472227 13.0434L10 13.4782L19.5278 13.0434C19.8341 12.0837 20 11.0612 20 9.99997C20 8.93864 19.8341 7.91622 19.5278 6.95649L10 6.52173L0.472188 6.95653Z" fill="#F0F0F0"/>
<path d="M19.5277 6.95649L9.99994 6.52173L0.472124 6.95649C0.381343 7.24103 0.303179 7.53114 0.237671 7.82606H19.762C19.6966 7.5311 19.6185 7.24095 19.5277 6.95649Z" fill="#D80027"/>
<path d="M0.237793 12.1738C0.303223 12.4688 0.381387 12.7588 0.472168 13.0434L0.473105 13.0434L9.9999 13.4782L19.5277 13.0434C19.6185 12.7589 19.6966 12.4688 19.7621 12.1738H0.237793Z" fill="#D80027"/>
<path d="M9.9999 20C14.4615 20 18.24 17.078 19.5277 13.0435H0.472168C1.75986 17.0779 5.53846 20 9.9999 20Z" fill="#6DA544"/>
<path d="M9.99994 3.91644e-10C5.53846 3.90629e-05 1.75994 2.92203 0.472168 6.95652L19.5277 6.95656C18.2401 2.92199 14.4615 -3.90621e-05 9.99994 3.91644e-10Z" fill="#338AF3"/>
<path d="M4.56972 4.13031C4.56972 3.19371 5.22796 2.41129 6.10698 2.21934C5.9719 2.1898 5.83171 2.17383 5.68772 2.17383C4.60718 2.17383 3.7312 3.04977 3.7312 4.13035C3.7312 5.21094 4.6071 6.08688 5.68772 6.08688C5.83171 6.08688 5.97186 6.07086 6.10698 6.04137C5.228 5.84934 4.56972 5.06691 4.56972 4.13031Z" fill="#F0F0F0"/>
<path d="M7.26336 5.01978L7.39579 5.42739H7.82438L7.47766 5.67935L7.61008 6.08696L7.26336 5.83505L6.91657 6.08696L7.04903 5.67935L6.70227 5.42739H7.13086L7.26336 5.01978Z" fill="#F0F0F0"/>
<path d="M8.63133 5.01978L8.76379 5.42739H9.19238L8.84562 5.67935L8.97809 6.08696L8.63133 5.83505L8.28457 6.08696L8.41703 5.67935L8.07031 5.42739H8.49887L8.63133 5.01978Z" fill="#F0F0F0"/>
<path d="M9.99933 5.01978L10.1317 5.42739H10.5604L10.2136 5.67935L10.346 6.08696L9.99933 5.83505L9.65253 6.08696L9.78503 5.67935L9.43823 5.42739H9.86686L9.99933 5.01978Z" fill="#F0F0F0"/>
<path d="M11.3674 5.01978L11.4998 5.42739H11.9284L11.5817 5.67935L11.7141 6.08696L11.3674 5.83505L11.0206 6.08696L11.1531 5.67935L10.8063 5.42739H11.2349L11.3674 5.01978Z" fill="#F0F0F0"/>
<path d="M12.7353 5.01978L12.8678 5.42739H13.2964L12.9497 5.67935L13.0821 6.08696L12.7353 5.83505L12.3886 6.08696L12.521 5.67935L12.1743 5.42739H12.6029L12.7353 5.01978Z" fill="#F0F0F0"/>
<path d="M8.63133 3.59668L8.76379 4.00426H9.19238L8.84562 4.25625L8.97809 4.66383L8.63133 4.41191L8.28457 4.66383L8.41703 4.25625L8.07031 4.00426H8.49887L8.63133 3.59668Z" fill="#F0F0F0"/>
<path d="M9.99933 3.59668L10.1317 4.00426H10.5604L10.2136 4.25625L10.346 4.66383L9.99933 4.41191L9.65253 4.66383L9.78503 4.25625L9.43823 4.00426H9.86686L9.99933 3.59668Z" fill="#F0F0F0"/>
<path d="M11.3674 3.59668L11.4998 4.00426H11.9284L11.5817 4.25625L11.7141 4.66383L11.3674 4.41191L11.0206 4.66383L11.1531 4.25625L10.8063 4.00426H11.2349L11.3674 3.59668Z" fill="#F0F0F0"/>
<path d="M12.7353 3.59668L12.8678 4.00426H13.2964L12.9497 4.25625L13.0821 4.66383L12.7353 4.41191L12.3886 4.66383L12.521 4.25625L12.1743 4.00426H12.6029L12.7353 3.59668Z" fill="#F0F0F0"/>
<path d="M9.99933 2.17383L10.1317 2.58148H10.5604L10.2136 2.8334L10.346 3.24105L9.99933 2.98914L9.65253 3.24105L9.78503 2.8334L9.43823 2.58148H9.86686L9.99933 2.17383Z" fill="#F0F0F0"/>
<path d="M11.3674 2.17383L11.4998 2.58148H11.9284L11.5817 2.8334L11.7141 3.24105L11.3674 2.98914L11.0206 3.24105L11.1531 2.8334L10.8063 2.58148H11.2349L11.3674 2.17383Z" fill="#F0F0F0"/>
<path d="M12.7353 2.17383L12.8678 2.58148H13.2964L12.9497 2.8334L13.0821 3.24105L12.7353 2.98914L12.3886 3.24105L12.521 2.8334L12.1743 2.58148H12.6029L12.7353 2.17383Z" fill="#F0F0F0"/>
</g>
<defs>
<clipPath id="clip0_3366_16411">
<rect width="20" height="20" fill="white"/>
</clipPath>
</defs>
</svg>
