<svg width="20" height="20" viewBox="0 0 20 20" fill="none" xmlns="http://www.w3.org/2000/svg">
<g clip-path="url(#clip0_3366_16432)">
<path d="M20 10C20 9.55797 19.9709 9.12265 19.9153 8.6957H8.69553C6.65253 6.65282 2.92875 2.92927 2.92891 2.92896C-0.976322 6.83418 -0.976322 13.1658 2.92891 17.0711L8.69565 11.3044H19.9153C19.9709 10.8774 20 10.4421 20 10Z" fill="black"/>
<path d="M19.9971 10.2275C19.9967 10.2468 19.9963 10.2662 19.9957 10.2855C19.9962 10.2661 19.9967 10.2468 19.9971 10.2275Z" fill="#F0F0F0"/>
<path d="M19.9875 10.5007C19.9866 10.5198 19.9853 10.5389 19.9843 10.5579C19.9853 10.5389 19.9865 10.5198 19.9875 10.5007Z" fill="#F0F0F0"/>
<path d="M19.974 10.7188C19.972 10.7468 19.9701 10.7749 19.9678 10.8029C19.9701 10.7749 19.972 10.7468 19.974 10.7188Z" fill="#F0F0F0"/>
<path d="M19.9406 8.91016C19.9443 8.94359 19.948 8.97699 19.9513 9.01051C19.948 8.97695 19.9443 8.94359 19.9406 8.91016Z" fill="#F0F0F0"/>
<path d="M19.9842 9.44214C19.9853 9.4612 19.9866 9.48022 19.9875 9.49933C19.9865 9.48022 19.9853 9.46116 19.9842 9.44214Z" fill="#F0F0F0"/>
<path d="M19.9957 9.71484C19.9962 9.73414 19.9966 9.75352 19.9971 9.77281C19.9966 9.75344 19.9962 9.73414 19.9957 9.71484Z" fill="#F0F0F0"/>
<path d="M19.9678 9.19727C19.9701 9.22527 19.972 9.25336 19.974 9.28145C19.972 9.25336 19.9701 9.22527 19.9678 9.19727Z" fill="#F0F0F0"/>
<path d="M19.9153 8.69561C19.9198 8.72987 19.9238 8.76432 19.9279 8.79865C19.3344 3.84234 15.1162 0 9.99998 0C7.2385 0 4.73846 1.11933 2.92882 2.92906L8.69537 8.69565H19.9153V8.69561Z" fill="#D80027"/>
<path d="M19.9153 11.3045H8.69537L2.92882 17.0711C4.73846 18.8807 7.2385 20.0001 9.99998 20.0001C15.1162 20.0001 19.3344 16.1578 19.9279 11.2014C19.9238 11.2358 19.9197 11.2702 19.9153 11.3045Z" fill="#6DA544"/>
<path d="M19.9512 10.9895C19.9479 11.023 19.9443 11.0564 19.9406 11.0899C19.9443 11.0564 19.948 11.0231 19.9512 10.9895Z" fill="#F0F0F0"/>
<path d="M19.974 9.28125C19.9778 9.33473 19.9813 9.38832 19.9842 9.44203C19.9812 9.38832 19.9778 9.33473 19.974 9.28125Z" fill="black"/>
<path d="M19.9279 8.79858C19.9324 8.83565 19.9366 8.8728 19.9406 8.90999C19.9366 8.8728 19.9323 8.83569 19.9279 8.79858Z" fill="black"/>
<path d="M19.9512 9.0105C19.9573 9.07257 19.9629 9.13479 19.9678 9.19726C19.9629 9.13479 19.9574 9.07253 19.9512 9.0105Z" fill="black"/>
<path d="M20 10C20 10.0761 19.9988 10.1518 19.9971 10.2274C19.9988 10.1518 20 10.076 20 10Z" fill="black"/>
<path d="M19.9842 10.5579C19.9812 10.6116 19.9778 10.6652 19.9741 10.7186C19.9778 10.6652 19.9812 10.6116 19.9842 10.5579Z" fill="black"/>
<path d="M19.9678 10.803C19.9629 10.8654 19.9573 10.9276 19.9512 10.9897C19.9574 10.9276 19.9629 10.8654 19.9678 10.803Z" fill="black"/>
<path d="M19.9406 11.0898C19.9366 11.127 19.9324 11.1641 19.9279 11.2012C19.9323 11.1642 19.9366 11.127 19.9406 11.0898Z" fill="black"/>
<path d="M19.9971 9.77271C19.9988 9.84833 20 9.92411 20 10.0001C20 9.92411 19.9988 9.84833 19.9971 9.77271Z" fill="black"/>
<path d="M19.9875 9.49927C19.991 9.57083 19.9937 9.64267 19.9957 9.71462C19.9937 9.64263 19.9911 9.57083 19.9875 9.49927Z" fill="black"/>
<path d="M19.9957 10.2854C19.9936 10.3574 19.991 10.4292 19.9875 10.5008C19.9911 10.4292 19.9937 10.3574 19.9957 10.2854Z" fill="black"/>
<path d="M19.9904 9.56162H8.32815L2.33765 3.57202C2.14402 3.77624 1.93414 4.0614 1.80433 4.26448L7.53319 9.99635L1.79953 15.7301C1.91305 15.9321 2.16035 16.231 2.33398 16.4255L8.32827 10.4312H19.9918C19.9981 10.287 20 10.1421 20 9.99642C20 9.80119 19.9946 9.65724 19.9904 9.56162Z" fill="#FFDA44"/>
<path d="M2.42918 12.1318V11.2941C3.26503 11.2941 3.94499 10.6141 3.94499 9.77833C3.94499 9.18696 3.46386 8.70587 2.87253 8.70587C2.46968 8.70587 2.14191 9.0336 2.14191 9.43653C2.14191 9.69415 2.35148 9.90376 2.60914 9.90376C2.75476 9.90376 2.87324 9.7852 2.87324 9.63958H3.71081C3.71081 10.2471 3.2166 10.7413 2.60918 10.7413C1.88969 10.7414 1.30441 10.156 1.30441 9.43661C1.30441 8.57188 2.00793 7.86841 2.87257 7.86841C3.92578 7.86841 4.78265 8.72528 4.78265 9.77844C4.78261 11.076 3.72687 12.1318 2.42918 12.1318Z" fill="#FFDA44"/>
</g>
<defs>
<clipPath id="clip0_3366_16432">
<rect width="20" height="20" fill="white"/>
</clipPath>
</defs>
</svg>
