<svg width="20" height="20" viewBox="0 0 20 20" fill="none" xmlns="http://www.w3.org/2000/svg">
<g clip-path="url(#clip0_3366_16496)">
<path d="M10 20C15.5228 20 20 15.5228 20 10C20 4.47715 15.5228 0 10 0C4.47715 0 0 4.47715 0 10C0 15.5228 4.47715 20 10 20Z" fill="#F0F0F0"/>
<path d="M9.99999 20C14.2996 20 17.9651 17.2863 19.378 13.4783H0.621979C2.03491 17.2863 5.70034 20 9.99999 20Z" fill="black"/>
<path d="M9.99999 0C5.70034 0 2.03491 2.71375 0.621979 6.52176H19.378C17.9651 2.71375 14.2996 0 9.99999 0Z" fill="#D80027"/>
</g>
<defs>
<clipPath id="clip0_3366_16496">
<rect width="20" height="20" fill="white"/>
</clipPath>
</defs>
</svg>
