<?xml version="1.0" standalone="no"?>
<!DOCTYPE svg PUBLIC "-//W3C//DTD SVG 1.1//EN" "http://www.w3.org/Graphics/SVG/1.1/DTD/svg11.dtd" >
<svg xmlns="http://www.w3.org/2000/svg">
<metadata>Generated by IcoMoon</metadata>
<defs>
<font id="icomoon" horiz-adv-x="1024">
<font-face units-per-em="1024" ascent="960" descent="-64" />
<missing-glyph horiz-adv-x="1024" />
<glyph unicode="&#x20;" horiz-adv-x="512" d="" />
<glyph unicode="&#xe900;" glyph-name="arrow2-left" d="M457.929 126.029c12.796-12.002 33.054-11.52 45.244 1.079 12.19 12.604 11.695 32.546-1.101 44.548l-266.728 250.167h628.656c17.673 0 32 14.106 32 31.509 0 17.399-14.327 31.505-32 31.505h-628.66l266.732 250.171c12.796 12.002 13.286 31.947 1.101 44.547-12.19 12.601-32.448 13.085-45.244 1.083l-316.54-296.885c-7.208-6.763-11.472-15.386-12.794-24.35-0.39-1.963-0.594-3.994-0.594-6.071 0-2.086 0.205-4.117 0.596-6.089 1.324-8.96 5.588-17.574 12.792-24.333l316.54-296.883z" />
<glyph unicode="&#xe901;" glyph-name="arrow2-right" d="M566.071 780.64c-12.796 12.002-33.054 11.517-45.244-1.083s-11.695-32.545 1.101-44.547l266.726-250.167h-628.655c-17.673 0-32-14.106-32-31.509 0-17.399 14.327-31.505 32-31.505h628.659l-266.731-250.172c-12.796-12.002-13.291-31.945-1.101-44.548 12.19-12.599 32.448-13.082 45.244-1.079l316.54 296.883c7.206 6.763 11.473 15.381 12.796 24.346 0.388 1.967 0.593 3.998 0.593 6.076 0 2.086-0.205 4.122-0.597 6.089-1.323 8.96-5.589 17.574-12.791 24.333l-316.54 296.885z" />
<glyph unicode="&#xe902;" glyph-name="arrow2-up" d="M179.499 496.832c-12.193-12.996-11.7-33.574 1.1-45.956 12.8-12.386 33.062-11.883 45.254 1.118l254.13 270.953v-638.629c0-17.954 14.332-32.508 32.009-32.508 17.681 0 32.009 14.554 32.009 32.508v638.644l254.148-270.968c12.19-13.001 32.452-13.504 45.252-1.118 12.8 12.382 13.295 32.96 1.101 45.956l-301.598 321.567c-6.874 7.327-15.642 11.66-24.751 13-1.993 0.394-4.053 0.601-6.161 0.601-2.121 0-4.194-0.209-6.199-0.609-9.092-1.349-17.839-5.679-24.695-12.992l-301.598-321.567z" />
<glyph unicode="&#xe903;" glyph-name="arrow2-down" d="M844.501 386.974c12.194 13.001 11.699 33.579-1.101 45.961s-33.062 11.883-45.252-1.118l-254.131-270.955v638.63c0 17.953-14.332 32.508-32.009 32.508-17.681 0-32.009-14.554-32.009-32.508v-638.643l-254.147 270.967c-12.192 13.001-32.454 13.5-45.254 1.118s-13.293-32.96-1.1-45.961l301.598-321.562c6.874-7.33 15.642-11.661 24.751-13.001 1.997-0.397 4.053-0.602 6.161-0.602 2.121 0 4.194 0.209 6.199 0.61 9.092 1.348 17.839 5.679 24.695 12.992l301.598 321.562z" />
<glyph unicode="&#xe904;" glyph-name="close" d="M779.806 722.849l3.725-3.315c15.471-15.472 16.576-39.871 3.315-56.619l-3.315-3.721-211.191-211.189 211.191-211.187c15.471-15.475 16.576-39.872 3.315-56.619l-3.315-3.725c-15.475-15.471-39.872-16.576-56.619-3.315l-3.725 3.315-211.187 211.191-211.189-211.191c-15.472-15.471-39.871-16.576-56.618-3.315l-3.721 3.315c-15.472 15.475-16.577 39.872-3.316 56.619l3.316 3.725 211.19 211.187-211.19 211.189c-15.472 15.472-16.577 39.871-3.316 56.619l3.316 3.721c15.472 15.472 39.871 16.577 56.618 3.315l3.721-3.315 211.189-211.19 211.187 211.19c15.475 15.472 39.872 16.577 56.619 3.315v0z" />
<glyph unicode="&#xe905;" glyph-name="minus" d="M213.333 490.667h597.333c23.564 0 42.667-19.103 42.667-42.667s-19.103-42.667-42.667-42.667h-597.333c-23.564 0-42.667 19.103-42.667 42.667s19.103 42.667 42.667 42.667z" />
<glyph unicode="&#xe906;" glyph-name="dram" d="M691.119 64.785v193.937h116.361v77.577h-116.361v77.577h116.361v77.577h-116.361v38.788c0 193.938-87.62 310.302-247.45 310.302-159.825 0-256.794-116.364-256.794-310.302 25.859 0 51.717 0 77.576 0 0 135.756 58.182 232.726 174.547 232.726 133.030 0 174.545-116.364 174.545-232.726 0-77.577 0-90.505 0-38.788h-135.757v-77.577h135.757v-77.577h-135.757v-77.577h135.757v-193.937h77.577z" />
<glyph unicode="&#xe907;" glyph-name="percent" d="M277.333 746.667c-35.346 0-64-28.654-64-64s28.654-64 64-64c35.346 0 64 28.654 64 64s-28.654 64-64 64zM128 682.667c0 82.475 66.859 149.333 149.333 149.333s149.333-66.859 149.333-149.333c0-82.475-66.859-149.333-149.333-149.333s-149.333 66.859-149.333 149.333zM840.836 716.497l-597.333-597.333c-16.663-16.661-43.677-16.661-60.34 0s-16.662 43.678 0 60.339l597.334 597.334c16.661 16.662 43.678 16.662 60.339 0s16.661-43.677 0-60.34zM682.667 213.333c0 35.345 28.655 64 64 64s64-28.655 64-64c0-35.345-28.655-64-64-64s-64 28.655-64 64zM746.667 362.667c-82.475 0-149.333-66.859-149.333-149.333s66.859-149.333 149.333-149.333c82.475 0 149.333 66.859 149.333 149.333s-66.859 149.333-149.333 149.333z" />
<glyph unicode="&#xe908;" glyph-name="add" d="M507.025 831.713l4.975 0.287c21.879 0 39.915-16.471 42.381-37.691l0.286-4.976v-298.667h298.667c21.879 0 39.915-16.469 42.381-37.692l0.286-4.975c0-21.879-16.469-39.915-37.692-42.381l-4.975-0.286h-298.667v-298.667c0-21.879-16.469-39.915-37.692-42.381l-4.975-0.286c-21.879 0-39.915 16.469-42.381 37.692l-0.286 4.975v298.667h-298.667c-21.881 0-39.915 16.469-42.38 37.692l-0.287 4.975c0 21.879 16.471 39.915 37.691 42.381l4.976 0.286h298.667v298.667c0 21.881 16.469 39.915 37.692 42.38v0z" />
<glyph unicode="&#xe909;" glyph-name="mark" d="M800.017 653.45c9.506-10.086 9.037-25.968-1.050-35.473l-397.994-375.11c-11.913-11.23-30.615-10.884-42.105 0.777l-134.525 136.533c-9.728 9.873-9.61 25.762 0.263 35.49 9.872 9.724 25.761 9.609 35.488-0.265l120.744-122.547 383.705 361.645c10.086 9.506 25.967 9.036 35.473-1.050z" />
<glyph unicode="&#xe90a;" glyph-name="attach" d="M179.895 416.512l343.932 343.932c71.232 71.231 186.718 71.231 257.95 0s71.232-186.719 0-257.95l-408.419-408.418c-35.616-35.618-93.359-35.618-128.975 0-35.615 35.614-35.615 93.359 0 128.973l365.431 365.429c11.87 11.872 11.87 31.12 0 42.992-11.874 11.872-31.121 11.872-42.995 0l-365.427-365.43c-59.359-59.358-59.359-155.597 0-214.955 59.359-59.362 155.599-59.362 214.958 0l408.419 408.418c94.976 94.975 94.976 248.959 0 343.933-94.972 94.974-248.956 94.974-343.932 0l-343.933-343.933c-11.872-11.87-11.872-31.121 0-42.991 11.872-11.874 31.12-11.874 42.992 0z" />
<glyph unicode="&#xe90b;" glyph-name="wallet" d="M672 448c-17.673 0-32-14.327-32-32s14.327-32 32-32h64c17.673 0 32 14.327 32 32s-14.327 32-32 32h-64zM224 832c-53.019 0-96-42.981-96-96v-512c0-88.367 71.634-160 160-160h480c70.694 0 128 57.306 128 128v384c0 47.378-25.741 88.744-64 110.876v17.124c0 70.692-57.306 128-128 128h-480zM224 768h480c35.345 0 64-28.654 64-64h-544c-17.673 0-32 14.327-32 32s14.327 32 32 32zM224 640h544c35.345 0 64-28.654 64-64v-384c0-35.345-28.655-64-64-64h-480c-53.019 0-96 42.982-96 96v421.463c10.009-3.537 20.78-5.463 32-5.463z" />
<glyph unicode="&#xe90c;" glyph-name="more" d="M281.6 456.533c0-42.415-34.385-76.8-76.8-76.8s-76.8 34.385-76.8 76.8c0 42.415 34.385 76.8 76.8 76.8s76.8-34.385 76.8-76.8zM588.8 456.533c0-42.415-34.385-76.8-76.8-76.8s-76.8 34.385-76.8 76.8c0 42.415 34.385 76.8 76.8 76.8s76.8-34.385 76.8-76.8zM819.2 379.733c42.415 0 76.8 34.385 76.8 76.8s-34.385 76.8-76.8 76.8c-42.415 0-76.8-34.385-76.8-76.8s34.385-76.8 76.8-76.8z" />
<glyph unicode="&#xe90d;" glyph-name="filter" d="M581.82 238.545c19.277 0 34.906-15.629 34.906-34.91 0-19.277-15.629-34.91-34.906-34.91h-139.639c-19.278 0-34.908 15.633-34.908 34.91 0 19.281 15.63 34.91 34.908 34.91h139.639zM721.455 471.275c19.281 0 34.91-15.633 34.91-34.91 0-19.281-15.629-34.91-34.91-34.91h-418.909c-19.28 0-34.909 15.629-34.909 34.91 0 19.277 15.629 34.91 34.909 34.91h418.909zM861.090 704c19.281 0 34.91-15.629 34.91-34.909s-15.629-34.909-34.91-34.909h-698.181c-19.28 0-34.909 15.629-34.909 34.909s15.629 34.909 34.909 34.909h698.181z" />
<glyph unicode="&#xe90e;" glyph-name="add-user" d="M746.517 448.196c129.6 0 234.667-105.062 234.667-234.667 0-129.6-105.067-234.667-234.667-234.667-129.604 0-234.667 105.067-234.667 234.667 0 129.604 105.062 234.667 234.667 234.667zM512.798 362.893c-12.659-19.767-22.878-41.246-30.234-64.013l-301.279-0.013c-17.647 0-31.952-14.306-31.952-31.953v-24.649c0-22.852 8.154-44.958 22.996-62.34 53.475-62.622 137.352-94.438 254.186-94.438 25.448 0 49.337 1.506 71.69 4.518 10.462-21.116 23.582-40.683 38.891-58.3-33.941-6.835-70.844-10.219-110.581-10.219-134.223 0-236.027 38.618-302.856 116.881-24.736 28.966-38.327 65.809-38.327 103.898v24.649c0 52.992 42.959 95.953 95.952 95.953l331.512 0.026zM746.517 362.863l-3.836-0.341c-8.708-1.583-15.573-8.448-17.156-17.156l-0.341-3.836-0.043-106.667h-106.458l-3.836-0.341c-8.708-1.583-15.573-8.448-17.156-17.156l-0.341-3.836 0.341-3.836c1.583-8.704 8.448-15.573 17.156-17.152l3.836-0.346h106.458l0.043-106.667 0.341-3.831c1.583-8.708 8.448-15.578 17.156-17.156l3.836-0.346 3.831 0.346c8.708 1.579 15.578 8.448 17.156 17.156l0.346 3.831-0.043 106.667h106.876l3.831 0.346c8.708 1.579 15.578 8.448 17.156 17.152l0.346 3.836-0.346 3.836c-1.579 8.708-8.448 15.573-17.156 17.156l-3.831 0.341h-106.876l0.043 106.667-0.346 3.836c-1.579 8.708-8.448 15.573-17.156 17.156l-3.831 0.341zM426.516 874.667c117.821 0 213.335-95.513 213.335-213.333s-95.514-213.333-213.335-213.333c-117.821 0-213.333 95.513-213.333 213.333s95.512 213.333 213.333 213.333zM426.516 810.667c-82.475 0-149.333-66.859-149.333-149.333s66.859-149.333 149.333-149.333c82.476 0 149.335 66.859 149.335 149.333s-66.859 149.333-149.335 149.333z" />
<glyph unicode="&#xe90f;" glyph-name="link" d="M608 704h64c123.712 0 224-100.288 224-224 0-119.586-93.713-217.289-211.575-223.667l-12.279-0.333-64-0.294c-17.673-0.081-32.064 14.182-32.145 31.855-0.073 15.71 11.187 28.826 26.103 31.603l5.751 0.542 64.145 0.294c88.367 0 160 71.633 160 160 0 84.831-66.018 154.243-149.478 159.66l-10.522 0.34h-64c-17.673 0-32 14.327-32 32 0 15.709 11.319 28.775 26.249 31.485l5.751 0.515zM352 704h64c17.673 0 32-14.327 32-32 0-15.709-11.319-28.775-26.248-31.485l-5.752-0.515h-64c-88.366 0-160-71.634-160-160 0-84.83 66.018-154.244 149.48-159.659l10.52-0.341h64c17.673 0 32-14.327 32-32 0-15.71-11.319-28.774-26.248-31.484l-5.752-0.516h-64c-123.712 0-224 100.288-224 224 0 119.588 93.714 217.288 211.71 223.668l12.29 0.332zM352.015 512l319.998-0.145c17.677-0.009 31.996-14.345 31.987-32.017-0.009-15.71-11.332-28.77-26.261-31.471l-5.751-0.512-320.002 0.145c-17.673 0.009-31.994 14.34-31.985 32.013 0.007 15.71 11.333 28.77 26.263 31.475l5.752 0.512z" />
<glyph unicode="&#xe910;" glyph-name="project-product" d="M468.096 871.764c-21.107-4.64-35.029-14.15-43.147-29.461-3.479-6.263-4.407-14.383-5.103-40.364l-0.928-32.477-17.63-6.496c-9.975-3.479-25.053-9.743-34.101-14.151l-16.239-7.655-23.43 22.734c-18.326 17.63-25.75 23.198-33.637 25.286-21.11 5.799-40.828-1.624-69.594-26.214-33.637-28.765-52.891-55.907-54.979-78.176-1.624-17.167 5.567-30.621 29.461-54.283l20.646-20.414-8.815-19.022c-4.872-10.207-11.367-25.75-14.151-34.333l-5.335-15.311-32.709-0.928c-30.621-0.696-33.173-1.16-43.38-7.192-21.342-12.527-29.693-36.19-29.693-85.137s8.351-72.606 29.693-85.133c10.207-6.033 12.759-6.498 43.38-7.194l32.477-0.926 6.495-17.63c3.48-9.975 9.743-25.054 14.151-34.103l7.655-16.239-22.734-23.428c-17.63-18.325-23.197-25.749-25.286-33.638-5.799-21.342 1.624-40.828 26.446-70.054 17.862-20.646 41.756-41.293 56.835-48.486 22.502-10.901 45.932-6.494 64.258 12.297 4.872 4.873 9.743 9.050 10.671 9.050s1.856-22.967 1.856-50.803v-51.038l6.031-4.638c6.031-4.873 7.655-4.873 174.909-4.873 167.258 0 168.883 0 174.912 4.873l6.033 4.638v104.623l13.687-12.527c28.531-26.679 53.355-23.663 93.717 10.671 32.708 28.301 52.429 56.137 54.515 77.943 1.626 17.169-5.568 30.622-29.461 54.285l-20.646 20.412 8.815 19.025c4.873 10.206 11.366 25.749 14.153 34.33l5.333 15.313 32.708 0.926c29.231 0.695 33.408 1.161 42.223 6.263 21.342 12.297 28.766 31.087 30.387 75.857 1.856 55.445-6.263 81.89-28.996 95.343-10.441 6.032-12.992 6.496-43.614 7.192l-32.474 0.928-6.498 17.63c-3.477 9.975-9.741 25.286-14.148 34.101l-7.654 16.239 22.268 23.198c18.325 18.79 23.198 25.286 25.519 34.1 3.712 12.991 2.086 26.214-4.642 39.668-9.741 19.254-39.667 52.427-61.474 67.969-36.186 25.981-57.527 22.966-93.487-13.687l-19.251-19.718-19.025 8.815c-10.206 4.872-25.749 11.367-34.33 14.151l-15.313 5.335-0.926 32.709c-0.695 30.621-1.161 33.173-7.194 43.38-7.654 13.223-22.268 22.502-41.988 26.677-17.63 3.712-70.289 3.48-87.223-0.232zM557.641 832.56c3.942-2.088 7.889-5.567 8.815-7.423 0.695-2.088 1.391-20.182 1.391-40.132 0.235-27.373 0.93-37.58 3.247-40.596 1.856-2.32 15.778-8.351 30.857-13.455s37.577-14.615 49.873-21.11c17.865-9.279 23.663-11.367 28.996-9.975 3.712 0.928 17.399 12.295 33.173 28.070 16.704 16.47 28.766 26.445 31.782 26.445 14.383 0 66.807-51.499 71.45-70.289 1.621-5.8-0.93-8.815-25.054-33.637-15.543-16.006-27.605-30.157-28.535-33.869-1.161-5.103 0.93-11.135 10.21-28.765 6.494-12.295 16.004-34.797 21.107-49.875s11.136-28.999 13.457-30.855c3.017-2.317 13.453-3.012 40.828-3.247 20.181 0 38.507-0.926 40.828-2.317 8.35-4.412 10.671-15.543 10.671-53.359 0-37.811-2.321-48.947-10.671-53.355-2.321-1.391-20.646-2.317-40.828-2.317-27.375-0.235-37.811-0.93-40.828-3.247-2.321-1.856-8.354-15.778-13.457-30.857s-14.613-37.581-21.107-49.873c-9.28-17.865-11.371-23.663-9.975-28.996 0.926-3.712 12.292-17.399 28.066-33.173 16.474-16.704 26.449-28.766 26.449-31.782 0-14.383-51.499-66.807-70.289-71.45-5.803-1.621-8.815 0.695-30.622 22.037-13.222 13.222-23.663 24.823-22.967 25.749 2.321 3.947-4.177 34.103-10.441 47.791-3.708 7.654-11.827 19.486-18.091 25.98l-11.366 11.831 12.527 12.062c28.531 28.070 51.264 68.203 61.239 107.639 7.194 28.531 7.194 79.334 0 106.014-13.222 48.714-42.684 92.558-82.351 122.483-77.483 58.691-178.624 61.010-260.28 6.031-30.157-20.414-62.17-58.458-77.017-91.631-8.119-18.557-16.47-51.961-18.326-74.929-4.871-61.939 20.878-130.372 65.65-174.447l13.687-13.222-11.367-11.831c-6.263-6.494-14.383-18.325-18.095-25.98-6.263-13.687-12.991-44.774-10.207-47.556 2.551-2.551-46.164-49.182-51.267-49.182-16.006 0-72.841 57.997-72.841 74.466 0 1.391 11.831 14.848 26.446 29.692 15.311 15.774 27.373 29.926 28.301 33.638 1.16 5.103-0.928 11.136-10.207 28.766-6.495 12.292-16.006 34.795-21.11 49.873s-11.135 29.001-13.455 30.857c-3.016 2.317-13.455 3.012-41.292 3.247-43.612 0-45.932 0.926-49.644 18.556-3.247 15.313-3.247 58.923 0 74.236 3.712 17.63 6.032 18.556 49.644 18.556 27.837 0.235 38.276 0.93 41.292 3.247 2.32 1.856 8.351 15.778 13.455 30.855 5.103 15.078 14.615 37.58 21.11 49.875 9.279 17.862 11.367 23.662 9.975 28.997-0.928 3.712-12.295 17.398-28.069 33.173-16.239 16.471-26.446 28.765-26.446 31.549 0 16.239 57.995 72.841 74.465 72.841 1.392 0 14.847-11.831 29.693-26.445 15.774-15.311 29.925-27.374 33.637-28.302 5.103-1.16 11.135 0.928 28.765 10.207 12.295 6.496 34.797 16.006 49.875 21.11 15.077 5.103 28.999 11.135 30.855 13.455 2.317 3.016 3.012 13.455 3.247 41.524 0 42.684 1.161 45.468 17.395 49.411 5.107 1.392 24.358 2.088 42.918 1.856 26.214-0.464 35.26-1.623 40.828-4.64zM544.649 630.507c37.35-6.727 68.668-23.43 97.664-52.195 47.556-47.325 65.186-109.725 49.412-173.751-8.585-34.564-27.375-66.347-55.211-92.561-18.33-17.395-22.967-19.486-37.815-15.539-5.103 1.391-4.868 1.856 3.947 12.062 22.037 24.819 33.173 61.939 28.531 94.413-10.436 72.38-85.137 120.397-154.031 98.825-56.14-17.63-93.257-76.553-83.746-133.154 3.48-19.951 15.311-45.47 28.301-60.083 8.814-10.206 9.049-10.671 3.944-12.062-12.295-3.251-19.022-1.395-31.085 8.58-34.797 28.301-57.299 68.433-64.954 115.524-4.872 29.696-2.088 61.013 8.119 89.545 9.743 27.838 19.95 43.381 44.54 68.202 19.486 19.486 24.821 23.43 46.394 34.101 41.062 19.95 75.162 25.286 115.989 18.094zM546.274 462.093c36.885-16.934 57.067-58.692 46.161-96.038-5.103-17.634-12.062-28.070-26.675-41.527-44.075-39.437-114.598-19.021-132.924 38.276-12.063 37.815 6.263 79.804 42.453 98.129 23.198 11.831 46.626 12.062 70.985 1.161zM595.452 259.341c10.906-2.317 23.433-6.029 27.84-8.35 11.366-5.798 22.268-17.63 27.836-30.157 4.407-9.741 4.873-15.078 4.873-86.298v-76.087h-287.654v76.087c0 71.219 0.464 76.557 4.871 86.298 5.568 12.527 16.471 24.358 27.837 30.157 7.191 3.712 29.23 8.815 54.284 12.527 3.942 0.465 32.478 0.695 63.795 0.465 42.914-0.465 61.705-1.626 76.318-4.642z" />
<glyph unicode="&#xe911;" glyph-name="only-employee" d="M483.657 871.080c-32.747-8.678-61.027-32.259-75.911-63.574-27.908-58.481-4.093-128.657 53.4-158.275 6.882-3.395 16.371-7.168 21.022-8.489l8.559-2.075v-167.519h-88.748c-98.609 0-105.308-0.755-126.89-11.695-15.628-8.111-32.745-25.468-40.746-41.314-10.233-20.561-11.536-31.317-11.536-99.042v-60.553l-13.024-4.339c-34.979-11.319-62.515-38.673-75.911-75.085-6.14-16.977-7.814-48.482-3.349-66.402 10.233-41.502 45.025-77.534 83.911-87.343 34.607-8.678 66.608-3.396 94.889 16.034 17.861 11.887 30.885 26.978 40.188 45.841 22.885 46.784 14.14 99.985-22.327 136.96-15.628 15.846-28.28 23.77-47.072 30.182l-12.652 4.151v61.687c0 69.423 0.558 72.815 13.21 87.343 3.907 4.715 11.164 10.377 16.001 12.826l8.931 4.531 185.125 1.131v-167.898l-10.607-3.017c-35.721-10.564-65.862-39.241-78.327-75.081-6.326-18.112-7.814-49.429-3.349-67.349 10.233-41.502 45.026-77.534 83.913-87.343 34.607-8.678 66.607-3.396 94.886 16.034 17.86 11.887 30.886 26.978 40.188 45.841 22.886 46.784 14.14 99.985-22.327 136.96-15.629 15.846-28.279 23.77-47.070 30.182l-12.651 4.151v167.518l91.725-0.567c90.236-0.563 91.725-0.563 99.166-4.715 11.908-6.413 19.166-13.393 24.559-23.957l5.026-9.621 0.555-64.516 0.559-64.333-10.79-3.204c-39.070-11.507-70.327-44.335-80.563-85.082-15.812-62.443 19.166-124.506 80.934-144.124 19.349-6.229 47.074-5.85 66.982 0.751 18.603 6.037 30.882 13.205 44.467 25.847 18.231 16.977 32 41.502 36.651 65.459 2.607 14.148 1.306 44.523-2.79 57.161-11.349 36.599-40.559 66.782-75.166 77.909l-14.327 4.531-0.93 69.611c-0.93 65.459-1.114 69.986-5.022 79.42-12.838 31.881-39.258 54.895-71.074 61.875-9.489 2.074-32 2.641-101.026 2.641h-88.934v167.519l7.070 1.321c3.721 0.566 13.952 4.716 22.699 8.867 12.838 6.225 18.603 10.564 30.699 23.015 16.742 17.167 24.747 30.938 30.511 52.067 4.838 17.356 5.21 44.332 0.93 60.933-13.581 53.009-60.838 90.173-114.236 89.796-9.306 0-21.397-1.509-29.397-3.584zM543.381 822.597c15.441-7.546 27.908-20.185 35.537-36.409 5.21-10.941 5.764-14.148 5.764-30.183s-0.555-19.242-5.764-30.184c-7.629-16.224-20.096-28.863-35.725-36.409-11.349-5.471-13.952-6.037-31.070-6.037-16.375 0-19.908 0.566-29.21 5.094-14.886 6.98-28.284 20.185-35.537 35.277-5.585 11.507-5.956 13.583-5.956 32.259s0.371 20.751 6.14 32.447c9.118 18.676 27.908 34.334 47.633 39.427 3.162 0.754 12.463 1.321 20.651 0.943 12.279-0.378 17.301-1.509 27.537-6.225zM270.809 209.306c20.652-7.923 37.583-26.035 44.095-46.976 4.838-14.903 3.163-37.918-3.535-52.629-9.675-21.696-31.258-38.298-54.7-42.069-55.258-9.054-98.796 46.409-78.516 100.361 7.628 20.749 30.327 39.991 52.654 44.71 10.977 2.449 28.839 0.751 40.002-3.396zM538.731 209.306c20.651-7.923 37.581-26.035 44.092-46.976 4.838-14.903 3.166-37.918-3.533-52.629-9.677-21.696-31.258-38.298-54.703-42.069-55.258-9.054-98.794 46.409-78.515 100.361 7.629 20.749 30.327 39.991 52.655 44.71 10.978 2.449 28.838 0.751 40.004-3.396zM809.997 206.477c6.886-3.209 15.258-9.246 20.838-15.095 35.725-36.975 26.048-94.886-19.721-117.713-13.21-6.793-15.258-7.168-30.886-7.168-23.258 0.188-35.349 5.090-50.419 20.561-12.467 12.638-18.795 24.337-21.585 40.371-6.323 33.766 14.327 69.423 47.074 81.685 14.882 5.47 39.629 4.335 54.699-2.641z" />
<glyph unicode="&#xe912;" glyph-name="linkedin" d="M948.194 959.991h-872.591c-41.801 0-75.602-32.995-75.602-73.801v-876.181c0-40.799 33.801-74.002 75.602-74.002h872.591c41.804 0 75.806 33.194 75.806 73.803v876.383c0 40.8-34.003 73.801-75.806 73.801zM303.808 87.395h-151.998v488.793h151.998v-488.793zM227.816 642.792c-48.8 0-88.201 39.395-88.201 87.999s39.395 87.999 88.201 87.999c48.604 0 87.999-39.395 87.999-87.999 0-48.403-39.395-87.999-87.999-87.999zM872.61 87.395h-151.801v237.596c0 56.607-0.993 129.598-78.999 129.598-79.006 0-90.997-61.792-90.997-125.599v-241.597h-151.595v488.793h145.596v-66.793h2.003c20.197 38.397 69.797 79.002 143.6 79.002 153.795 0 182.196-101.204 182.196-232.798v-268.194z" />
<glyph unicode="&#xe913;" glyph-name="google" d="M718.511 680.601c-52.862 50.416-123.41 77.883-196.401 76.757-133.565 0-247.008-90.109-287.456-211.448v-0.002c-21.447-63.584-21.447-132.444 0-196.024h0.187c40.635-121.152 153.888-211.259 287.456-211.259 68.951 0 128.139 17.633 174.013 48.786v0.128c53.99 35.744 90.861 91.993 102.343 155.577h-276.543v197.152h482.912c6.021-34.238 8.848-69.227 8.848-104.032 0-155.721-55.648-287.378-152.481-376.543l0.098-0.085c-84.84-78.253-201.296-123.6-339.377-123.6-193.574 0-370.6 109.11-457.514 282.002v0c-72.61 144.672-72.61 315.104 0 459.775v0c86.914 173.076 263.94 282.189 457.514 282.189 127.179 1.505 250.016-46.279 342.572-133.193l-146.169-146.173z" />
<glyph unicode="&#xe914;" glyph-name="youtube" d="M1013.797 652.697c0 0-9.996 70.602-40.8 101.601-39.003 40.803-82.598 40.999-102.602 43.401-143.2 10.4-358.196 10.4-358.196 10.4h-0.402c0 0-215 0-358.198-10.4-20.002-2.402-63.599-2.598-102.602-43.401-30.802-30.998-40.6-101.601-40.6-101.601s-10.4-82.999-10.4-165.803v-77.6c0-82.801 10.197-165.803 10.197-165.803s10.001-70.602 40.6-101.599c39.003-40.804 90.199-39.407 113.003-43.803 81.998-7.8 348.197-10.195 348.197-10.195s215.201 0.397 358.401 10.6c20.004 2.4 63.599 2.596 102.602 43.401 30.804 30.993 40.8 101.599 40.8 101.599s10.2 82.801 10.2 165.804v77.6c0 82.801-10.2 165.803-10.2 165.803zM406.198 315.1v287.796l276.597-144.4-276.597-143.396z" />
<glyph unicode="&#xe915;" glyph-name="apple" d="M925.187 161.999c-15.486-35.774-33.817-68.707-55.055-98.981-28.95-41.278-52.649-69.848-70.918-85.714-28.32-26.037-58.656-39.378-91.145-40.137-23.327 0-51.451 6.634-84.192 20.103-32.848 13.403-63.037 20.034-90.639 20.034-28.953 0-60-6.631-93.208-20.034-33.257-13.469-60.056-20.48-80.541-21.177-31.152-1.324-62.21 12.387-93.208 41.211-19.785 17.257-44.528 46.837-74.173 88.745-31.806 44.752-57.952 96.642-78.439 155.808-21.936 63.904-32.935 125.786-32.935 185.695 0 68.623 14.825 127.812 44.528 177.412 23.342 39.84 54.398 71.264 93.266 94.338s80.864 34.829 126.086 35.579c24.743 0 57.196-7.651 97.522-22.695 40.217-15.093 66.032-22.752 77.349-22.752 8.468 0 37.151 8.949 85.775 26.791 45.984 16.544 84.791 23.397 116.583 20.703 86.15-6.951 150.879-40.916 193.921-102.102-77.051-46.688-115.168-112.075-114.405-195.956 0.697-65.341 24.402-119.712 70.987-162.879 21.106-20.039 44.685-35.524 70.918-46.521-5.687-16.494-11.689-32.295-18.080-47.463zM727.602 939.511c0-51.213-18.715-99.030-56.004-143.284-45.005-52.617-99.438-83.019-158.468-78.221-0.75 6.144-1.185 12.61-1.185 19.408 0 49.165 21.407 101.78 59.41 144.799 18.976 21.782 43.107 39.897 72.372 54.34 29.204 14.235 56.825 22.105 82.802 23.453 0.759-6.846 1.075-13.691 1.075-20.484v-0.002z" />
<glyph unicode="&#xe916;" glyph-name="instagram" d="M512.3 867.785c136.83 0 153.029-0.603 206.842-3.001 50.013-2.203 77.019-10.599 95.013-17.602 23.808-9.2 41.008-20.403 58.814-38.208 18.002-18.007 29.008-35.008 38.206-58.812 7.001-18.007 15.397-45.213 17.602-95.018 2.399-54.012 2.999-70.215 2.999-206.84 0-136.828-0.605-153.036-2.999-206.842-2.205-50.013-10.604-77.019-17.602-95.018-9.2-23.804-20.407-41.004-38.206-58.812-18.007-18.007-35.006-29.008-58.816-38.206-18.002-7.007-45.209-15.397-95.013-17.602-54.009-2.399-70.213-2.999-206.842-2.999-136.826 0-153.031 0.605-206.842 2.999-50.013 2.205-77.017 10.597-95.018 17.602-23.806 9.2-41.006 20.403-58.812 38.206-18.007 18.007-29.008 35.006-38.208 58.812-7.005 18.007-15.402 45.213-17.605 95.018-2.399 54.009-3.001 70.213-3.001 206.842 0 136.826 0.603 153.029 3.001 206.84 2.203 50.013 10.599 77.017 17.605 95.018 9.2 23.806 20.403 41.006 38.208 58.812 18.007 18.007 35.008 29.008 58.812 38.208 18.007 7.005 45.213 15.402 95.018 17.605 53.809 2.399 70.014 3.001 206.842 3.001zM512.3 960.002c-139.029 0-156.435-0.603-211.040-2.999-54.414-2.399-91.816-11.202-124.225-23.804-33.808-13.204-62.414-30.608-90.819-59.214-28.606-28.405-46.009-57.009-59.214-90.618-12.601-32.608-21.408-69.813-23.804-124.225-2.399-54.813-2.999-72.217-2.999-211.24s0.603-156.432 2.999-211.040c2.399-54.414 11.202-91.818 23.804-124.229 13.207-33.803 30.608-62.414 59.214-90.819 28.405-28.403 57.011-46.007 90.618-59.011 32.608-12.599 69.813-21.403 124.225-23.804 54.612-2.399 72.016-2.999 211.040-2.999s156.432 0.605 211.040 2.999c54.414 2.399 91.818 11.202 124.229 23.804 33.607 13.006 62.213 30.608 90.615 59.011s46.007 57.013 59.011 90.62c12.599 32.605 21.408 69.811 23.804 124.222 2.399 54.615 2.999 72.016 2.999 211.040s-0.598 156.435-2.999 211.040c-2.399 54.414-11.202 91.816-23.804 124.225-12.599 34.011-30.003 62.615-58.609 91.020-28.403 28.405-57.013 46.009-90.62 59.013-32.605 12.601-69.811 21.408-124.222 23.804-54.816 2.597-72.219 3.202-211.24 3.202zM512.3 710.948c-145.232 0-263.055-117.825-263.055-263.055s117.822-263.057 263.055-263.057c145.23 0 263.057 117.827 263.057 263.057s-117.827 263.055-263.057 263.055zM512.3 277.27c-94.22 0-170.636 76.414-170.636 170.634s76.416 170.636 170.636 170.636c94.22 0 170.634-76.416 170.634-170.636s-76.414-170.634-170.634-170.634zM847.169 721.356c0-34.009-27.609-61.409-61.411-61.409-34.011 0-61.408 27.609-61.408 61.409 0 34.011 27.604 61.409 61.408 61.409s61.411-27.607 61.411-61.409z" />
<glyph unicode="&#xe917;" glyph-name="facebook" d="M1023.994 444.891c0 282.77-229.225 511.994-511.994 511.994s-511.994-229.225-511.994-511.994c0-255.553 187.231-467.368 431.998-505.774v357.776h-129.996v147.998h129.996v112.801c0 128.321 76.439 199.197 193.39 199.197 56.002 0 114.607-10.002 114.607-10.002v-125.997h-64.561c-63.598 0-83.435-39.47-83.435-79.996v-96h142.001l-22.696-147.998h-119.301v-357.778c244.767 38.406 431.998 250.221 431.998 505.774z" />
<glyph unicode="&#xe918;" glyph-name="twitter" d="M322.141 31.984c386.317 0 597.682 320.143 597.682 597.682 0 9.001-0.201 18.2-0.597 27.2 41.115 29.732 76.6 66.564 104.779 108.763-38.297-17.035-78.951-28.161-120.577-32.996 43.835 26.278 76.654 67.552 92.381 116.18-41.235-24.437-86.337-41.68-133.36-50.982-31.686 33.669-73.572 55.956-119.199 63.423s-92.433-0.298-133.204-22.104c-40.763-21.809-73.21-56.433-92.329-98.523-19.111-42.096-23.825-89.314-13.409-134.352-83.495 4.185-165.183 25.879-239.762 63.67s-140.382 90.821-193.153 155.67c-26.818-46.241-35.024-100.956-22.955-153.023s43.521-97.591 87.954-127.313c-33.358 1.063-65.978 10.040-95.182 26.198v-2.6c-0.025-48.525 16.746-95.559 47.473-133.114s73.513-63.311 121.086-72.88c-30.901-8.449-63.328-9.686-94.776-3.602 13.425-41.732 39.543-78.232 74.702-104.396 35.168-26.179 77.623-40.715 121.45-41.595-74.404-58.447-166.324-90.145-260.937-89.997-16.777 0.025-33.542 1.056-50.202 3.084 96.125-61.664 207.934-94.419 322.138-94.357z" />
<glyph unicode="&#xe919;" glyph-name="medium" d="M121.6 691.2c0 12.8-6.4 25.6-12.8 32l-96 115.2v19.2h294.4l230.4-505.6 204.8 505.6h281.6v-19.2l-83.2-76.8c-6.4-6.4-12.8-12.8-6.4-25.6v-576c0-6.4 0-19.2 6.4-25.6l76.8-76.8v-19.2h-403.2v19.2l83.2 83.2c6.4 6.4 6.4 12.8 6.4 25.6v467.2l-230.4-582.4h-25.6l-268.8 582.4v-390.4c0-19.2 6.4-32 12.8-44.8l108.8-128v-19.2h-300.8v19.2l108.8 128c12.8 12.8 19.2 25.6 12.8 44.8v448z" />
<glyph unicode="&#xe91a;" glyph-name="telegram" d="M1024 448c0-282.773-229.227-512-512-512s-512 229.227-512 512c0 282.773 229.227 512 512 512s512-229.227 512-512zM530.347 582.021c-49.797-20.711-149.328-63.584-298.587-128.608-24.233-9.634-36.935-19.067-38.089-28.288-1.952-15.584 17.561-21.719 44.128-30.071 3.616-1.138 7.36-2.32 11.198-3.559 26.144-8.498 61.307-18.443 79.584-18.834 16.583-0.354 35.095 6.478 55.52 20.512 139.458 94.133 211.445 141.719 215.966 142.745 3.191 0.727 7.605 1.632 10.599-1.026s2.704-7.703 2.382-9.056c-1.934-8.235-78.528-79.454-118.169-116.304-12.357-11.488-21.12-19.632-22.912-21.495-4.011-4.169-8.103-8.114-12.037-11.904-24.288-23.41-42.501-40.971 1.006-69.641 20.903-13.781 37.643-25.17 54.325-36.533 18.229-12.416 36.411-24.8 59.936-40.222 5.993-3.927 11.717-8.011 17.296-11.982 21.216-15.129 40.277-28.706 63.819-26.542 13.68 1.257 27.81 14.121 34.987 52.491 16.96 90.677 50.304 287.138 58.007 368.101 0.674 7.093-0.169 16.167-0.855 20.155s-2.107 9.662-7.287 13.863c-6.133 4.974-15.6 6.027-19.84 5.952-19.259-0.341-48.8-10.61-190.997-69.753z" />
<glyph unicode="&#xe91b;" glyph-name="pos" d="M387.348 815.617v-310.615h249.29v310.615h-249.29zM328.299 815.617c0 32.612 26.437 59.049 59.049 59.049h249.29c32.61 0 59.046-26.437 59.046-59.049v-36.502h29.239c32.606 0 59.046-26.438 59.046-59.049v-639.682c0-32.614-26.441-59.051-59.046-59.051h-425.833c-32.61 0-59.049 26.436-59.049 59.051v639.682c0 32.611 26.439 59.049 59.049 59.049h29.207v36.502zM328.299 720.066h-29.207v-639.682h425.833v639.682h-29.239v-215.063c0-32.614-26.436-59.051-59.046-59.051h-249.29c-32.612 0-59.049 26.436-59.049 59.051v215.063zM541.662 318.771c0-16.371-13.269-29.641-29.641-29.641s-29.641 13.269-29.641 29.641c0 16.371 13.269 29.641 29.641 29.641s29.641-13.269 29.641-29.641zM512.021 181.269c16.371 0 29.641 13.269 29.641 29.641 0 16.367-13.269 29.641-29.641 29.641s-29.641-13.274-29.641-29.641c0-16.371 13.269-29.641 29.641-29.641zM659.989 318.771c0-16.371-13.269-29.641-29.641-29.641-16.367 0-29.641 13.269-29.641 29.641s13.274 29.641 29.641 29.641c16.371 0 29.641-13.269 29.641-29.641zM630.349 181.269c16.371 0 29.641 13.269 29.641 29.641 0 16.367-13.269 29.641-29.641 29.641-16.367 0-29.641-13.274-29.641-29.641 0-16.371 13.274-29.641 29.641-29.641zM423.331 318.771c0-16.371-13.271-29.641-29.64-29.641s-29.64 13.269-29.64 29.641c0 16.371 13.27 29.641 29.64 29.641s29.64-13.269 29.64-29.641zM393.691 181.269c16.369 0 29.64 13.269 29.64 29.641 0 16.367-13.271 29.641-29.64 29.641s-29.64-13.274-29.64-29.641c0-16.371 13.27-29.641 29.64-29.641z" />
<glyph unicode="&#xe91c;" glyph-name="units-employee" d="M625.668 870.333c-5.837-3-10.5-6.833-14.17-12-5.333-7.834-5.333-8-6.165-32.833l-0.832-25-100.834-1.667-4.501-4.667-4.668-4.5-0.499-161.667-0.333-161.666h-74.999v22.498c0 30.003-3.833 38.835-20.833 48.001l-6.667 3.667h-137.5c-110.5 0-138.667-0.5-143.833-2.167-9.167-3.334-16.167-9.834-20.5-19.498-4-8.337-4-8.67-4-70.835s0-62.498 4-70.835c4.333-9.664 11.334-16.166 20.5-19.499 5.167-1.664 33.333-2.167 143.833-2.167h137.5l6.667 3.669c17 9.165 20.833 17.997 20.833 48v22.498h74.999l0.333-161.668 0.499-161.664 4.668-4.501 4.501-4.668 100.834-1.664 0.832-25.003c0.832-24.832 0.832-24.998 6.165-32.832 3.669-5.167 8.333-8.998 14.17-11.998l8.666-4.335h135.834c94.332 0 138.001 0.666 142.665 1.835 9.169 2.5 21.5 15.164 24 24.333 1.335 4.834 1.835 26.833 1.502 70.165l-0.499 63.168-5.001 8c-3.669 5.999-7.501 9.498-13.999 12.834l-9.003 4.663-280.499-0.832-7.002-4.668c-3.831-2.5-8.998-7.667-11.499-11.499-4.501-6.669-4.668-7.834-5.167-31.667l-0.499-24.666h-74.833v296.666h74.999v-22.498c0-30.003 3.831-38.835 20.834-48l6.665-3.669h137.502c110.498 0 138.667 0.503 143.834 2.167 9.165 3.332 16.166 9.835 20.497 19.499 4.002 8.337 4.002 8.67 4.002 70.835s0 62.498-4.002 70.835c-4.331 9.664-11.332 16.165-20.497 19.498-5.167 1.667-33.335 2.167-143.834 2.167h-137.502l-6.665-3.667c-17.003-9.166-20.834-17.998-20.834-48.001v-22.498h-74.999v296.666h74.833l0.499-24.666c0.499-23.834 0.666-25 5.167-31.667 2.5-3.833 7.667-9 11.499-11.5l7.002-4.667 280.499-0.833 9.003 4.667c6.498 3.333 10.33 6.833 13.999 12.833l5.001 8 0.499 63.167c0.333 43.333-0.166 65.333-1.502 70.167-2.5 9.167-14.831 21.833-24 24.333-4.663 1.167-48.333 1.833-142.665 1.833h-135.834l-8.666-4.333zM901.999 782.167v-55.833h-259.998v111.666h259.998v-55.833zM382 448v-55.002h-260v110.003h260v-55.002zM901.999 448v-55.002h-259.998v110.003h259.998v-55.002zM901.999 113.835v-55.834h-259.998v111.667h259.998v-55.834z" />
<glyph unicode="&#xe91d;" glyph-name="search" d="M595.767 318.98c-49.271-39.415-111.765-62.985-179.767-62.985-159.058 0-288 128.943-288 288.003 0 159.059 128.942 288.001 288 288.001s288-128.943 288-288.001c0-68.001-23.565-130.495-62.976-179.766l245.602-245.606c12.497-12.497 12.497-32.755 0-45.252s-32.755-12.497-45.252 0l-245.606 245.606zM640 543.999c0 123.712-100.288 224.001-224 224.001s-224-100.288-224-224.001c0-123.711 100.288-223.999 224-223.999s224 100.288 224 223.999z" />
<glyph unicode="&#xe91e;" glyph-name="error" d="M512 832c212.083 0 384-171.955 384-384s-171.917-384-384-384c-212.083 0-384 171.955-384 384s171.917 384 384 384zM512.068 332.655c-21.18 0-38.349-17.169-38.349-38.345 0-21.18 17.169-38.349 38.349-38.349s38.349 17.169 38.349 38.349c0 21.175-17.169 38.345-38.349 38.345zM511.987 640c-19.695-0.007-35.921-14.837-38.131-33.935l-0.256-4.478 0.068-192.033 0.26-4.48c2.227-19.098 18.462-33.916 38.153-33.907 19.695 0.009 35.921 14.835 38.131 33.937l0.256 4.476-0.068 192.035-0.26 4.478c-2.223 19.097-18.462 33.915-38.153 33.908z" />
<glyph unicode="&#xe91f;" glyph-name="trash" d="M452.924 722.286h118.153c0 30.297-26.449 54.857-59.076 54.857s-59.076-24.561-59.076-54.857zM393.846 722.286c0 60.593 52.899 109.714 118.154 109.714s118.153-49.121 118.153-109.714h236.309c16.311 0 29.538-12.28 29.538-27.429s-13.227-27.428-29.538-27.428h-33.293l-71.198-484.815c-9.98-67.951-72.482-118.613-146.338-118.613h-207.267c-73.856 0-136.359 50.662-146.338 118.613l-71.197 484.815h-33.293c-16.314 0-29.539 12.28-29.539 27.428s13.225 27.429 29.539 27.429h236.308zM452.924 530.287c0 15.147-13.227 27.427-29.539 27.427-16.314 0-29.539-12.28-29.539-27.427v-274.287c0-15.147 13.225-27.43 29.539-27.43 16.312 0 29.539 12.284 29.539 27.43v274.287zM600.614 557.714c16.316 0 29.538-12.28 29.538-27.427v-274.287c0-15.147-13.222-27.43-29.538-27.43-16.311 0-29.538 12.284-29.538 27.43v274.287c0 15.147 13.227 27.427 29.538 27.427zM320.564 190.025c5.987-40.772 43.488-71.168 87.802-71.168h207.267c44.314 0 81.818 30.396 87.804 71.168l70.11 477.404h-523.092l70.109-477.404z" />
<glyph unicode="&#xe920;" glyph-name="trash-hover" d="M435.2 700.878h153.6c0 41.381-34.385 74.927-76.8 74.927s-76.8-33.546-76.8-74.927zM377.6 700.878c0 72.416 60.173 131.122 134.4 131.122s134.4-58.705 134.4-131.122h220.8c15.906 0 28.8-12.58 28.8-28.098s-12.894-28.097-28.8-28.097h-50.654l-45.005-453.728c-7.142-72.009-69.175-126.955-143.33-126.955h-232.422c-74.156 0-136.187 54.946-143.33 126.955l-45.007 453.728h-50.653c-15.906 0-28.8 12.579-28.8 28.097s12.894 28.098 28.8 28.098h220.8zM454.4 522.927c0 15.518-12.894 28.097-28.8 28.097s-28.8-12.579-28.8-28.097v-280.977c0-15.518 12.894-28.096 28.8-28.096s28.8 12.578 28.8 28.096v280.977zM598.4 551.024c-15.906 0-28.8-12.579-28.8-28.097v-280.977c0-15.518 12.894-28.096 28.8-28.096s28.8 12.578 28.8 28.096v280.977c0 15.518-12.894 28.097-28.8 28.097z" />
<glyph unicode="&#xe921;" glyph-name="menu" horiz-adv-x="1067" d="M138.703 192.137h789.335c17.673 0 32-14.323 32-32 0-16.201-12.041-29.589-27.661-31.706l-4.339-0.294h-789.335c-17.673 0-32 14.327-32 32 0 16.201 12.038 29.589 27.658 31.71l4.342 0.29zM138.703 469.342h789.335c17.673 0 32-14.327 32-32 0-16.201-12.041-29.589-27.661-31.706l-4.339-0.294h-789.335c-17.673 0-32 14.327-32 32 0 16.201 12.038 29.589 27.658 31.71l4.342 0.29zM138.667 746.667h789.333c17.673 0 32-14.327 32-32 0-16.201-12.041-29.589-27.657-31.708l-4.343-0.292h-789.333c-17.673 0-32 14.327-32 32 0 16.201 12.038 29.589 27.658 31.708l4.342 0.292z" />
<glyph unicode="&#xe922;" glyph-name="menu-hover" horiz-adv-x="1067" d="M149.333 234.667h768c23.565 0 42.667-19.102 42.667-42.667 0-21.879-16.469-39.915-37.692-42.381l-4.975-0.286h-768c-23.564 0-42.667 19.102-42.667 42.667 0 21.879 16.471 39.915 37.691 42.381l4.976 0.286zM149.328 490.667l768.001 0.094c23.565 0 42.671-19.098 42.671-42.662 0-21.879-16.465-39.919-37.687-42.385l-4.975-0.286-767.999-0.094c-23.564-0.004-42.672 19.098-42.672 42.662 0 21.879 16.467 39.915 37.686 42.385l4.976 0.286zM149.333 746.667h768c23.565 0 42.667-19.103 42.667-42.667 0-21.881-16.469-39.915-37.692-42.38l-4.975-0.287h-768c-23.564 0-42.667 19.103-42.667 42.667 0 21.881 16.471 39.915 37.691 42.38l4.976 0.287z" />
<glyph unicode="&#xe923;" glyph-name="eye-on" d="M190.314 408.017l-0.063-0.218c-4.546-17.067-22.080-27.26-39.17-22.733-27.613 7.313-22.751 39.134-22.751 39.134l1.132 3.93c0 0 1.672 5.385 3.020 9.289 2.692 7.812 6.809 18.726 12.661 31.714 11.674 25.911 30.437 60.48 58.901 95.159 57.496 70.044 154.152 139.709 307.581 139.709 153.434 0 250.086-69.664 307.584-139.709 28.463-34.679 47.228-69.247 58.901-95.159 5.854-12.988 9.971-23.902 12.663-31.714 1.344-3.904 2.338-7.044 3.017-9.289 0.341-1.122 0.602-2.022 0.789-2.679l0.226-0.811 0.073-0.265 0.026-0.098 0.017-0.077c4.535-17.084-5.649-34.603-22.75-39.134-17.071-4.523-34.581 5.619-39.147 22.652l-0.021 0.081-0.064 0.218-0.469 1.604c-0.457 1.506-1.199 3.866-2.266 6.959-2.138 6.191-5.551 15.275-10.509 26.283-9.954 22.093-25.95 51.52-50.022 80.845-47.573 57.956-127.083 116.292-258.048 116.292-130.96 0-210.473-58.336-258.046-116.292-24.070-29.325-40.067-58.752-50.020-80.845-4.961-11.008-8.374-20.092-10.508-26.283-1.066-3.093-1.809-5.453-2.265-6.959l-0.471-1.604zM511.633 512c-88.452 0-160.154-71.633-160.154-160s71.703-160 160.154-160c88.448 0 160.149 71.633 160.149 160s-71.701 160-160.149 160zM415.54 352c0 53.018 43.020 96 96.093 96 53.069 0 96.090-42.982 96.090-96s-43.021-96-96.090-96c-53.073 0-96.093 42.982-96.093 96z" />
<glyph unicode="&#xe924;" glyph-name="eye-off" d="M628.275 292.937l220.902-220.902c10.709-10.714 28.079-10.714 38.788 0 10.714 10.709 10.714 28.079 0 38.788l-713.142 713.144c-10.712 10.711-28.079 10.711-38.79 0s-10.711-28.078 0-38.79l177.177-177.177c-26.060-18.375-47.376-39.328-64.592-60.321-24.375-29.722-40.442-59.354-50.439-81.562-5.012-11.136-8.537-20.493-10.842-27.183-1.154-3.349-2.586-7.966-2.586-7.966l-0.969-3.366c0 0-4.163-27.277 19.482-33.54 14.634-3.883 29.65 4.851 33.542 19.482l0.054 0.188 0.403 1.374c0.39 1.289 1.027 3.311 1.94 5.965 1.828 5.308 4.751 13.090 8.998 22.528 8.523 18.935 22.222 44.16 42.833 69.295 15.997 19.507 36.212 39.066 61.657 55.626l86.544-86.543c-38.662-24.252-64.366-67.255-64.366-116.262 0-75.742 61.4-137.143 137.142-137.143 49.007 0 92.006 25.707 116.262 64.367zM587.742 333.47c-12.544-29.419-41.728-50.039-75.729-50.039-45.444 0-82.287 36.838-82.287 82.283 0 34.001 20.625 63.185 50.044 75.729l107.972-107.972zM419.819 656.538l46.869-46.869c14.242 1.886 29.333 2.902 45.321 2.902 112.145 0 180.237-50.002 220.975-99.68 20.612-25.135 34.308-50.359 42.833-69.295 4.245-9.438 7.168-17.22 8.998-22.528 0.913-2.654 1.549-4.676 1.941-5.965l0.456-1.562 0.017-0.068c3.908-14.601 18.901-23.292 33.523-19.413 14.643 3.878 23.364 18.897 19.482 33.54l-0.017 0.064-0.021 0.085-0.064 0.226-0.192 0.695c-0.158 0.563-0.384 1.335-0.674 2.295-0.58 1.924-1.429 4.617-2.586 7.966-2.304 6.69-5.828 16.047-10.842 27.183-9.997 22.208-26.065 51.84-50.441 81.562-49.233 60.038-132.002 119.75-263.39 119.75-33.877 0-64.521-3.97-92.189-10.891z" />
<glyph unicode="&#xe925;" glyph-name="repeat" d="M602.035 865.26l-3.277 2.874c-12.544 9.581-30.524 8.623-41.98-2.874l-2.863-3.289c-9.545-12.588-8.593-30.633 2.863-42.13l84.117-84.344-309.51-0.176c-148.56-5.256-267.386-127.784-267.386-278.164 0-72.128 27.337-137.852 72.179-187.298l3.088-2.965c5.585-4.77 12.824-7.65 20.733-7.65 17.673 0 32 14.379 32 32.115 0 7.39-2.487 14.199-6.668 19.627l-8.505 9.843c-30.501 37.030-48.827 84.531-48.827 136.329 0 118.248 95.513 214.108 213.333 214.108h293.589l-78.144-78.519-2.863-3.289c-9.545-12.588-8.593-30.633 2.863-42.13 12.497-12.542 32.759-12.542 45.257 0l135.765 136.258 2.863 3.289c9.545 12.588 8.589 30.633-2.863 42.13l-135.765 136.258zM841.813 647.634c-5.551 4.644-12.689 7.437-20.48 7.437-17.673 0-32-14.379-32-32.116 0-7.965 2.889-15.254 7.642-20.81 34.991-38.138 56.358-89.062 56.358-144.989 0-118.251-95.514-214.11-213.333-214.11h-296.192l81.296 81.54 3.12 3.635c8.422 11.418 8.337 27.166-0.256 38.498l-2.864 3.29-3.62 3.132c-11.377 8.448-27.069 8.363-38.358-0.26l-3.277-2.871-135.764-136.26-3.122-3.631c-8.419-11.418-8.334-27.17 0.258-38.498l2.864-3.29 135.764-136.256 3.589-3.11c12.527-9.331 30.305-8.294 41.666 3.11 11.457 11.494 12.409 29.542 2.864 42.129l-2.864 3.29-81.040 81.323 305.882 0.175c148.561 5.257 267.388 127.782 267.388 278.165 0 72.252-27.43 138.077-72.41 187.552l-3.11 2.926z" />
<glyph unicode="&#xe926;" glyph-name="repeat-hover" d="M627.725 862.179l-3.721 3.313c-16.747 13.253-41.148 12.148-56.619-3.313l-3.315-3.719c-13.261-16.736-12.156-41.117 3.315-56.579l55.42-55.338-249.105-0.182c-160.177-5.408-288.367-136.87-288.367-298.251 0-61.641 18.702-118.916 50.715-166.327 7.749-10.726 20.368-17.707 34.618-17.707 23.564 0 42.667 19.089 42.667 42.637 0 9.22-2.93 17.758-7.883 24.691l-5.767 9.306c-18.446 31.535-29.017 68.237-29.017 107.401 0 117.719 95.497 213.15 213.3 213.15l238.754 0.009-55.334-55.355-3.315-3.719c-13.261-16.736-12.156-41.117 3.315-56.579 16.661-16.653 43.678-16.653 60.339 0l128.222 128.132 3.315 3.719c13.261 16.736 12.156 41.117-3.315 56.579l-128.222 128.132zM886.891 615.935c-7.812 9.925-19.942 16.299-33.557 16.299-23.565 0-42.667-19.089-42.667-42.637 0-8.882 2.718-17.13 7.326-23.936 22.336-33.697 35.341-74.107 35.341-117.55 0-117.722-95.497-213.15-213.299-213.15l-238.327 0.026 55.198 55.1 3.567 4.041c11.989 15.433 11.904 37.197-0.252 52.535l-3.315 3.721-4.045 3.567c-15.441 11.981-37.222 11.895-52.574-0.252l-3.721-3.315-128.222-128.132-3.569-4.041c-11.988-15.433-11.904-37.197 0.253-52.54l3.315-3.716 128.222-128.132 4.019-3.546c16.738-13.009 40.94-11.823 56.321 3.546 15.471 15.462 16.576 39.842 3.315 56.576l-3.315 3.721-55.625 55.595 249.020 0.149c160.179 5.406 288.367 136.866 288.367 298.249 0 62.289-19.098 120.124-51.763 167.971l-0.013-0.148z" />
<glyph unicode="&#xe927;" glyph-name="bookmark" d="M223.754 61.082c-22.682-15.147-53.087 1.114-53.087 28.386v647.931c0 75.31 60.979 136.398 136.289 136.533l409.601 0.734c75.405 0.135 136.64-60.884 136.777-136.289v-648.91c0-27.273-30.404-43.533-53.086-28.386l-288.247 192.457-288.246-192.457zM785.067 738.133l-0.474 8.082c-4.006 33.945-32.905 60.247-67.917 60.184l-409.599-0.734c-37.655-0.067-68.144-30.612-68.144-68.266v-584.098l254.114 169.668c11.473 7.663 26.432 7.663 37.905 0l254.114-169.668v584.832z" />
<glyph unicode="&#xe928;" glyph-name="bookmark-hover" d="M170.667 746.667c0 70.692 63.675 128 142.222 128h398.224c78.545 0 142.221-57.308 142.221-128v-665.6c0-9.63-6.003-18.445-15.535-22.814-9.536-4.369-20.988-3.554-29.641 2.112l-296.158 193.847-296.159-193.847c-8.652-5.666-20.104-6.481-29.638-2.112s-15.537 13.184-15.537 22.814v665.6z" />
<glyph unicode="&#xe929;" glyph-name="calendar" d="M757.333 832c76.582 0 138.667-62.083 138.667-138.667v-490.667c0-76.582-62.084-138.667-138.667-138.667h-490.667c-76.584 0-138.667 62.084-138.667 138.667v490.667c0 76.584 62.083 138.667 138.667 138.667h490.667zM832 597.333h-640v-394.667c0-41.237 33.429-74.667 74.667-74.667h490.667c41.237 0 74.667 33.429 74.667 74.667v394.667zM330.667 341.333c29.455 0 53.333-23.876 53.333-53.333s-23.878-53.333-53.333-53.333c-29.455 0-53.333 23.876-53.333 53.333s23.878 53.333 53.333 53.333zM512 341.333c29.457 0 53.333-23.876 53.333-53.333s-23.876-53.333-53.333-53.333c-29.457 0-53.333 23.876-53.333 53.333s23.876 53.333 53.333 53.333zM330.667 512c29.455 0 53.333-23.876 53.333-53.333s-23.878-53.333-53.333-53.333c-29.455 0-53.333 23.876-53.333 53.333s23.878 53.333 53.333 53.333zM512 512c29.457 0 53.333-23.876 53.333-53.333s-23.876-53.333-53.333-53.333c-29.457 0-53.333 23.876-53.333 53.333s23.876 53.333 53.333 53.333zM693.333 512c29.457 0 53.333-23.876 53.333-53.333s-23.876-53.333-53.333-53.333c-29.457 0-53.333 23.876-53.333 53.333s23.876 53.333 53.333 53.333zM757.333 768h-490.667c-41.237 0-74.667-33.429-74.667-74.667v-32h640v32c0 41.237-33.429 74.667-74.667 74.667z" />
<glyph unicode="&#xe92a;" glyph-name="calendar-hover" d="M896 597.333v-394.667c0-76.582-62.084-138.667-138.667-138.667h-490.667c-76.584 0-138.667 62.084-138.667 138.667v394.667h768zM309.333 320c-29.455 0-53.333-23.876-53.333-53.333s23.878-53.333 53.333-53.333c29.455 0 53.333 23.876 53.333 53.333s-23.878 53.333-53.333 53.333zM512 320c-29.457 0-53.333-23.876-53.333-53.333s23.876-53.333 53.333-53.333c29.457 0 53.333 23.876 53.333 53.333s-23.876 53.333-53.333 53.333zM309.333 512c-29.455 0-53.333-23.876-53.333-53.333s23.878-53.333 53.333-53.333c29.455 0 53.333 23.876 53.333 53.333s-23.878 53.333-53.333 53.333zM512 512c-29.457 0-53.333-23.876-53.333-53.333s23.876-53.333 53.333-53.333c29.457 0 53.333 23.876 53.333 53.333s-23.876 53.333-53.333 53.333zM714.667 512c-29.457 0-53.333-23.876-53.333-53.333s23.876-53.333 53.333-53.333c29.457 0 53.333 23.876 53.333 53.333s-23.876 53.333-53.333 53.333zM757.333 832c76.582 0 138.667-62.083 138.667-138.667v-32h-768v32c0 76.584 62.083 138.667 138.667 138.667h490.667z" />
<glyph unicode="&#xe92b;" glyph-name="phone" d="M290.429 854.647l49.792 15.008c56.427 17.009 116.713-10.479 140.879-64.231l38.473-85.577c20.595-45.817 9.741-99.663-26.995-133.922l-63.757-59.452c-1.865-1.741-3.045-4.087-3.328-6.618-1.893-16.947 9.596-49.946 36.058-95.782 19.247-33.335 36.663-56.708 51.49-69.858 10.33-9.161 16.017-11.14 18.436-10.419l85.777 26.223c48.026 14.686 100.070-2.825 129.455-43.55l54.643-75.733c34.394-47.667 28.207-113.429-14.468-153.847l-37.82-35.814c-40.806-38.647-98.901-53.047-153.033-37.939-117.508 32.802-222.866 131.964-317.239 295.424-94.505 163.686-127.665 304.674-97.096 422.937 13.989 54.122 55.211 97.018 108.733 113.152zM308.9 793.37c-32.113-9.68-56.846-35.418-65.239-67.891-25.713-99.478 3.678-224.444 90.558-374.921 86.764-150.281 180.158-238.187 279.017-265.779 32.482-9.067 67.337-0.427 91.823 22.763l37.815 35.814c19.401 18.372 22.212 48.265 6.579 69.931l-54.643 75.733c-13.359 18.513-37.018 26.47-58.846 19.797l-85.986-26.291c-49.907-14.878-95.206 25.293-143.851 109.547-32.781 56.777-48.060 100.668-44.238 134.886 1.98 17.724 10.239 34.155 23.283 46.319l63.759 59.454c16.7 15.572 21.632 40.048 12.271 60.873l-38.473 85.577c-10.984 24.433-38.388 36.928-64.036 29.196l-49.792-15.009z" />
<glyph unicode="&#xe92c;" glyph-name="phone-hover" d="M314.151 855.936l45.935 14.678c43.043 13.754 89.033-8.474 107.465-51.94l36.681-86.5c15.987-37.694 7.117-82.021-21.931-109.588l-80.822-76.715c4.987-45.885 20.411-91.069 46.275-135.554 25.86-44.48 58.159-81.378 96.896-110.694l97.075 32.371c36.796 12.271 76.868-1.83 99.439-34.991l52.582-77.248c26.236-38.545 21.517-91.725-11.038-124.407l-34.889-35.025c-34.731-34.863-84.331-47.509-130.214-33.199-108.326 33.792-207.923 134.11-298.793 300.954-91.002 167.091-123.12 308.856-96.352 425.293 11.264 48.995 46.144 88.013 91.692 102.566z" />
<glyph unicode="&#xe92d;" glyph-name="caret-down" d="M512 320l-256 256h512l-256-256z" />
<glyph unicode="&#xe92e;" glyph-name="caret-up" d="M512 576l256-256h-512l256 256z" />
<glyph unicode="&#xe92f;" glyph-name="checkmark" d="M512 832c212.079 0 384-171.923 384-384 0-212.079-171.921-384-384-384-212.077 0-384 171.921-384 384 0 212.077 171.923 384 384 384zM512 774.4c-180.266 0-326.4-146.134-326.4-326.4s146.134-326.4 326.4-326.4c180.267 0 326.4 146.133 326.4 326.4s-146.133 326.4-326.4 326.4zM464 392.73l171.635 171.635c11.247 11.247 29.483 11.247 40.73 0 10.223-10.225 11.153-26.225 2.79-37.5l-2.79-3.23-192-192c-10.223-10.223-26.223-11.153-37.5-2.79l-3.23 2.79-96 96c-11.247 11.247-11.247 29.483 0 40.73 10.225 10.223 26.225 11.153 37.499 2.79l3.23-2.79 75.635-75.635z" />
<glyph unicode="&#xe930;" glyph-name="checkmark-hover" d="M512 832c212.079 0 384-171.923 384-384 0-212.079-171.921-384-384-384-212.077 0-384 171.921-384 384 0 212.077 171.923 384 384 384zM635.635 564.365l-171.635-171.635-75.635 75.635c-11.247 11.247-29.482 11.247-40.73 0s-11.247-29.483 0-40.73l96-96c11.247-11.247 29.483-11.247 40.73 0l192 192c11.247 11.247 11.247 29.482 0 40.73s-29.483 11.247-40.73 0z" />
<glyph unicode="&#xe931;" glyph-name="arrow-left" d="M691.503 776.837c16.661-16.663 16.661-43.677 0-60.34l-268.497-268.497 268.497-268.497c16.661-16.661 16.661-43.678 0-60.339s-43.678-16.661-60.339 0l-298.667 298.667c-16.662 16.661-16.662 43.678 0 60.339l298.667 298.667c16.661 16.662 43.678 16.662 60.339 0z" />
<glyph unicode="&#xe932;" glyph-name="arrow-right" d="M332.497 776.837c-16.662-16.663-16.662-43.677 0-60.34l268.497-268.497-268.497-268.497c-16.662-16.661-16.662-43.678 0-60.339s43.677-16.661 60.34 0l298.666 298.667c16.661 16.661 16.661 43.678 0 60.339l-298.666 298.667c-16.663 16.662-43.677 16.662-60.34 0z" />
<glyph unicode="&#xe933;" glyph-name="arrow-up" d="M183.163 268.497c16.663-16.661 43.677-16.661 60.34 0l268.497 268.497 268.497-268.497c16.661-16.661 43.678-16.661 60.339 0s16.661 43.678 0 60.339l-298.667 298.667c-16.661 16.662-43.678 16.662-60.339 0l-298.667-298.667c-16.662-16.661-16.662-43.678 0-60.339z" />
<glyph unicode="&#xe934;" glyph-name="arrow-down" d="M140.497 627.503c16.663 16.662 43.677 16.662 60.34 0l268.497-268.497 268.497 268.497c16.661 16.662 43.678 16.662 60.339 0s16.661-43.677 0-60.34l-298.667-298.666c-16.661-16.661-43.678-16.661-60.339 0l-298.667 298.666c-16.662 16.663-16.662 43.677 0 60.34z" />
<glyph unicode="&#xe935;" glyph-name="comment" horiz-adv-x="1067" d="M149.333 650.059c0 76.919 61.401 139.275 137.143 139.275h493.713c75.742 0 137.143-62.355 137.143-139.275v-278.551c0-76.915-61.402-139.273-137.143-139.273h-209.122l-168.002-149.286c-34.761-30.891-89.161-5.82-89.161 41.088v108.198h-27.428c-75.742 0-137.143 62.357-137.143 139.273v278.551zM286.476 733.623c-45.445 0-82.286-37.413-82.286-83.565v-278.551c0-46.148 36.841-83.563 82.286-83.563h82.286v-161.455l181.693 161.455h229.734c45.444 0 82.287 37.414 82.287 83.563v278.551c0 46.152-36.843 83.565-82.287 83.565h-493.713z" />
<glyph unicode="&#xe936;" glyph-name="comment-hover" horiz-adv-x="1067" d="M379.683 121.438c-21.228-15.667-51.309-11.388-67.187 9.562-6.208 8.192-9.562 18.146-9.562 28.365l-0.030 104.209h-28.77c-68.925 0-124.8 55.138-124.8 123.157v322.11c0 68.019 55.875 123.159 124.8 123.159h518.4c68.924 0 124.8-55.14 124.8-123.159v-322.11c0-68.019-55.876-123.157-124.8-123.157h-220.322l-192.529-142.135z" />
<glyph unicode="&#xe937;" glyph-name="copy" horiz-adv-x="1067" d="M256.119 762.58l-0.119-90.58v-448.179c0-76.582 62.083-138.667 138.667-138.667l367.629-0.013c-13.184-37.278-48.738-63.987-90.534-63.987h-277.094c-111.93 0-202.667 90.735-202.667 202.667v448.179c0 41.844 26.771 77.435 64.119 90.58zM778.667 874.667c53.018 0 96-42.981 96-96v-554.667c0-53.018-42.982-96-96-96h-384c-53.019 0-96 42.982-96 96v554.667c0 53.019 42.981 96 96 96h384zM778.667 810.667h-384c-17.673 0-32-14.327-32-32v-554.667c0-17.673 14.327-32 32-32h384c17.673 0 32 14.327 32 32v554.667c0 17.673-14.327 32-32 32z" />
<glyph unicode="&#xe938;" glyph-name="copy-hover" horiz-adv-x="1067" d="M256.119 762.58l-0.119-90.58v-448.179c0-76.582 62.083-138.667 138.667-138.667l367.629-0.013c-13.184-37.278-48.738-63.987-90.534-63.987h-277.094c-111.93 0-202.667 90.735-202.667 202.667v448.179c0 41.844 26.771 77.435 64.119 90.58zM778.667 874.667c53.018 0 96-42.981 96-96v-554.667c0-53.018-42.982-96-96-96h-384c-53.019 0-96 42.982-96 96v554.667c0 53.019 42.981 96 96 96h384z" />
<glyph unicode="&#xe939;" glyph-name="edit" d="M855.701 791.756c-53.662 53.661-140.663 53.658-194.321-0.006l-458.85-458.903c-15.601-15.603-26.568-35.23-31.679-56.695l-42.068-176.683c-2.316-9.728 0.58-19.964 7.651-27.034s17.305-9.967 27.034-7.65l176.675 42.065c21.472 5.111 41.103 16.081 56.71 31.689l458.851 458.907c53.653 53.66 53.649 140.653-0.004 194.31zM702.106 751.026c31.168 31.169 81.702 31.171 112.866 0.003 31.168-31.165 31.168-81.693 0.004-112.859l-34.223-34.229-112.862 112.862 34.214 34.223zM627.166 676.075l112.862-112.862-383.902-383.948c-8.069-8.068-18.22-13.743-29.322-16.384l-131.151-31.228 31.229 131.157c2.642 11.102 8.312 21.248 16.378 29.312l383.907 383.953z" />
<glyph unicode="&#xe93a;" glyph-name="edit-hover" d="M661.38 791.75c53.658 53.664 140.659 53.667 194.321 0.006 53.653-53.657 53.658-140.65 0.004-194.31l-34.244-34.249-194.317 194.316 34.236 34.238zM586.419 716.784l-383.889-383.937c-15.601-15.603-26.568-35.23-31.679-56.695l-42.068-176.683c-2.316-9.728 0.58-19.964 7.651-27.034s17.305-9.967 27.034-7.65l176.675 42.065c21.472 5.111 41.103 16.081 56.71 31.689l383.882 383.932-194.317 194.313z" />
<glyph unicode="&#xe93b;" glyph-name="favorite" d="M482.645 727.431c-81.392 82.21-213.068 82.609-294.107 0.755s-80.644-214.855 0.748-297.065l301.291-304.32c12.497-12.625 32.759-12.625 45.257 0l299.725 302.562c80.849 82.121 80.597 214.746-0.811 296.971-81.536 82.357-213.274 82.757-294.46 0.756l-28.625-28.97-29.018 29.31zM790.174 474.944l-276.971-279.578-278.661 281.468c-56.457 57.024-56.731 149.093-0.748 205.64s147.136 56.271 203.594-0.755l51.802-52.322c12.71-12.839 33.391-12.587 45.794 0.557l50.56 51.424c56.128 56.693 147.345 56.416 203.947-0.756 56.474-57.040 56.649-148.834 0.683-205.679z" />
<glyph unicode="&#xe93c;" glyph-name="favorite-hover" d="M482.645 727.431c-81.392 82.21-213.068 82.609-294.107 0.755s-80.644-214.855 0.748-297.065l301.291-304.32c12.497-12.625 32.759-12.625 45.257 0l299.725 302.562c80.849 82.121 80.593 214.746-0.811 296.971-81.536 82.357-213.274 82.757-294.46 0.756l-28.625-28.97-29.018 29.31z" />
<glyph unicode="&#xe93d;" glyph-name="home" d="M450.112 851.18c35.75 31.316 88.026 31.316 123.776 0l288-252.271c21.628-18.947 34.112-46.841 34.112-76.23v-434.453c0-42.833-33.429-77.559-74.667-77.559h-149.333c-41.237 0-74.667 34.722-74.667 77.559v243.755c0 6.118-4.774 11.081-10.667 11.081h-149.333c-5.892 0-10.667-4.962-10.667-11.081v-243.755c0-42.833-33.429-77.559-74.667-77.559h-149.333c-41.237 0-74.667 34.722-74.667 77.559v434.453c0 29.389 12.482 57.283 34.113 76.23l287.999 252.271zM532.629 800.359c-11.917 10.438-29.342 10.438-41.259 0l-288-252.271c-7.21-6.316-11.371-15.613-11.371-25.409v-434.453c0-6.118 4.776-11.081 10.667-11.081h149.333c5.891 0 10.667 4.962 10.667 11.081v243.755c0 42.837 33.429 77.559 74.667 77.559h149.333c41.237 0 74.667-34.722 74.667-77.559v-243.755c0-6.118 4.774-11.081 10.667-11.081h149.333c5.892 0 10.667 4.962 10.667 11.081v434.453c0 9.796-4.16 19.093-11.371 25.409l-288 252.271z" />
<glyph unicode="&#xe93e;" glyph-name="home-hover" d="M450.099 852.043c35.755 30.165 88.047 30.165 123.802 0l288-242.967c21.623-18.24 34.099-45.088 34.099-73.376v-418.26c0-41.237-33.429-74.667-74.667-74.667h-128c-41.237 0-74.667 33.429-74.667 74.667v213.333c0 17.673-14.327 32-32 32h-149.333c-17.673 0-32-14.327-32-32v-213.333c0-41.237-33.429-74.667-74.667-74.667h-128c-41.237 0-74.667 33.429-74.667 74.667v418.26c0 28.288 12.476 55.136 34.097 73.376l288.002 242.967z" />
<glyph unicode="&#xe93f;" glyph-name="image" d="M736 607.867c0-35.419-28.715-64.133-64.132-64.133-35.422 0-64.132 28.713-64.132 64.133s28.71 64.133 64.132 64.133c35.418 0 64.132-28.713 64.132-64.133zM128 672c0 88.366 71.634 160 160 160h448c88.367 0 160-71.634 160-160v-448c0-88.367-71.633-160-160-160h-448c-88.366 0-160 71.633-160 160v448zM288 768c-53.019 0-96-42.981-96-96v-448c0-14.822 3.359-28.86 9.357-41.391l233.711 233.711c42.492 42.492 111.377 42.492 153.869 0l233.707-233.707c5.999 12.531 9.357 26.564 9.357 41.387v448c0 53.019-42.982 96-96 96h-448zM777.391 137.357l-233.711 233.711c-17.493 17.493-45.862 17.493-63.356 0l-233.711-233.711c12.532-5.999 26.567-9.357 41.387-9.357h448c14.822 0 28.86 3.358 41.391 9.357z" />
<glyph unicode="&#xe940;" glyph-name="image-hover" d="M288 832c-88.366 0-160-71.634-160-160v-448c0-32.61 9.757-62.946 26.51-88.239l280.558 280.559c42.492 42.492 111.377 42.492 153.869 0l280.555-280.555c16.751 25.293 26.509 55.625 26.509 88.235v448c0 88.366-71.633 160-160 160h-448zM736 607.867c0-35.419-28.715-64.133-64.132-64.133-35.422 0-64.132 28.713-64.132 64.133s28.71 64.133 64.132 64.133c35.418 0 64.132-28.713 64.132-64.133zM824.239 90.509l-280.559 280.559c-17.493 17.493-45.862 17.493-63.356 0l-280.559-280.559c25.294-16.755 55.625-26.509 88.235-26.509h448c32.61 0 62.942 9.758 88.239 26.509z" />
<glyph unicode="&#xe941;" glyph-name="info" d="M512 832c212.079 0 384-171.923 384-384 0-212.079-171.921-384-384-384-212.077 0-384 171.921-384 384 0 212.077 171.923 384 384 384zM512 774.409c-180.271 0-326.409-146.138-326.409-326.409s146.138-326.409 326.409-326.409c180.271 0 326.409 146.138 326.409 326.409s-146.138 326.409-326.409 326.409zM511.859 505.63c14.579 0.009 26.633-10.816 28.548-24.87l0.269-3.908 0.137-211.23c0.009-15.902-12.873-28.804-28.779-28.813-14.575-0.009-26.633 10.816-28.548 24.87l-0.265 3.908-0.137 211.226c-0.013 15.906 12.873 28.804 28.774 28.817zM512.017 639.921c21.175 0 38.345-17.167 38.345-38.343s-17.169-38.342-38.345-38.342c-21.175 0-38.345 17.167-38.345 38.342s17.169 38.343 38.345 38.343z" />
<glyph unicode="&#xe942;" glyph-name="info-hover" d="M512 832.042c212.079 0 384-171.923 384-383.999 0-212.079-171.921-384-384-384-212.077 0-384 171.921-384 384 0 212.076 171.923 383.999 384 383.999zM511.855 515.268c-19.691-0.013-35.908-14.844-38.114-33.941l-0.256-4.476 0.137-211.23 0.265-4.48c2.227-19.093 18.466-33.903 38.157-33.89s35.908 14.844 38.114 33.941l0.256 4.48-0.141 211.226-0.26 4.48c-2.231 19.093-18.466 33.903-38.157 33.89zM512.017 659.229c-26.539 0-48.051-21.513-48.051-48.051s21.513-48.051 48.051-48.051c26.539 0 48.051 21.513 48.051 48.051s-21.513 48.051-48.051 48.051z" />
<glyph unicode="&#xe943;" glyph-name="lock" horiz-adv-x="1067" d="M522.112 874.304l11.221 0.363c90.487 0 164.527-70.42 170.304-159.445l0.363-11.221v-68.267h68.267c56.555 0 102.4-45.846 102.4-102.4v-409.6c0-56.555-45.845-102.4-102.4-102.4h-477.867c-56.554 0-102.4 45.845-102.4 102.4v409.6c0 56.554 45.846 102.4 102.4 102.4h68.267v68.267c0 90.486 70.421 164.525 159.445 170.304zM772.267 567.467h-477.867c-18.851 0-34.133-15.282-34.133-34.133v-409.6c0-18.85 15.282-34.133 34.133-34.133h477.867c18.85 0 34.133 15.283 34.133 34.133v409.6c0 18.851-15.283 34.133-34.133 34.133zM533.333 396.8c37.705 0 68.267-30.562 68.267-68.267s-30.562-68.267-68.267-68.267c-37.705 0-68.267 30.562-68.267 68.267s30.562 68.267 68.267 68.267zM543.194 805.931l-9.86 0.469c-53.227 0-96.969-40.611-101.931-92.538l-0.469-9.862v-68.267h204.8v68.267c0 53.227-40.61 96.969-92.54 101.931z" />
<glyph unicode="&#xe944;" glyph-name="lock-hover" horiz-adv-x="1067" d="M521.899 874.324l11.435 0.343c99.844 0 181.478-77.94 187.392-176.297l0.341-11.436v-34.133h51.2c56.555 0 102.4-45.846 102.4-102.4v-409.6c0-56.555-45.845-102.4-102.4-102.4h-477.867c-56.554 0-102.4 45.845-102.4 102.4v409.6c0 56.554 45.846 102.4 102.4 102.4h51.2v34.133c0 99.842 77.94 181.481 176.299 187.391v0zM533.333 413.867c-37.705 0-68.267-30.562-68.267-68.267s30.562-68.267 68.267-68.267c37.705 0 68.267 30.562 68.267 68.267s-30.562 68.267-68.267 68.267zM542.059 771.826l-8.725 0.441c-44.181 0-80.525-33.579-84.894-76.608l-0.439-8.725v-34.133h170.667v34.133c0 44.183-33.579 80.523-76.608 84.893v0z" />
<glyph unicode="&#xe945;" glyph-name="mail" horiz-adv-x="1067" d="M245.333 789.333h576c73.941 0 134.366-57.875 138.449-130.798l0.218-7.869v-405.333c0-73.941-57.877-134.366-130.799-138.449l-7.868-0.218h-576c-73.943 0-134.368 57.877-138.447 130.799l-0.219 7.868v405.333c0 73.943 57.875 134.368 130.798 138.447l7.869 0.219zM896 560.085l-347.763-183.070c-7.996-4.207-17.331-4.809-25.707-1.805l-4.1 1.805-347.763 183.027v-314.709c0-39.177 30.17-71.305 68.543-74.419l6.124-0.247h576c39.177 0 71.305 30.17 74.419 68.544l0.247 6.123v314.752zM821.333 725.333h-576c-39.175 0-71.304-30.17-74.419-68.543l-0.247-6.124v-18.304l362.667-190.869 362.667 190.912v18.261c0 39.175-30.17 71.304-68.544 74.419l-6.123 0.247z" />
<glyph unicode="&#xe946;" glyph-name="mail-hover" horiz-adv-x="1067" d="M960 592.725v-347.392c0-73.941-57.877-134.366-130.799-138.449l-7.868-0.218h-576c-73.943 0-134.368 57.877-138.447 130.799l-0.219 7.868v347.392l411.819-215.74c9.301-4.868 20.395-4.868 29.696 0l411.819 215.74zM245.333 789.333h576c71.881 0 130.991-54.695 137.975-124.738l-425.975-223.136-425.976 223.136c6.727 67.449 61.787 120.666 130.044 124.515l7.932 0.223z" />
<glyph unicode="&#xe947;" glyph-name="notification2" d="M497.161 832c-147.533 0-267.131-124.611-267.131-278.326v-148.529l-57.243-149.248c-3.654-9.523-2.535-20.322 2.987-28.817s14.728-13.581 24.576-13.581h178.087c0-68.553 52.929-123.699 118.726-123.699 65.792 0 118.724 55.147 118.724 123.699h178.086c9.847 0 19.055 5.086 24.576 13.581s6.639 19.29 2.987 28.817l-57.242 149.248v117.602c-21.107 0-41.186 4.591-59.366 12.867v-136.417c0-3.93 0.721-7.825 2.121-11.477l43.102-112.371h-505.976l43.1 112.371c1.4 3.652 2.119 7.548 2.119 11.477v154.476c0 119.556 93.021 216.476 207.769 216.476 47.428 0 91.149-16.56 126.123-44.433 6.357 20.148 16.585 38.467 29.76 54.004-43.87 32.9-97.702 52.278-155.883 52.278zM556.523 213.5c0-34.394-26.355-61.85-59.362-61.85-33.011 0-59.362 27.456-59.362 61.85h118.724zM697.101 738.256c-13.611-16.294-21.854-37.584-21.854-60.881 0-4.71 0.337-9.338 0.986-13.859 2.432-16.919 9.25-32.343 19.209-44.978 16.009-20.313 40.137-33.415 67.217-33.923 0.542-0.010 1.088-0.015 1.63-0.015 49.178 0 89.045 41.537 89.045 92.775s-39.868 92.775-89.045 92.775c-26.816 0-50.863-12.352-67.187-31.894z" />
<glyph unicode="&#xe948;" glyph-name="notification2-hover" d="M497.161 832c-147.533 0-267.131-119.626-267.131-267.193v-142.586l-57.243-143.279c-3.654-9.143-2.535-19.507 2.987-27.665 5.522-8.154 14.728-13.039 24.576-13.039h593.623c9.847 0 19.055 4.885 24.576 13.039 5.521 8.158 6.639 18.522 2.987 27.665l-57.242 143.279v112.899c-81.963 0-148.407 66.459-148.407 148.44 0 37.678 14.033 72.077 37.158 98.253-43.87 31.584-97.702 50.187-155.883 50.187zM497.156 89.801c-55.317 0-101.803 37.845-114.982 89.062h229.969c-13.18-51.217-59.665-89.062-114.987-89.062zM764.288 594.496c49.178 0 89.045 39.875 89.045 89.064s-39.868 89.064-89.045 89.064c-49.178 0-89.041-39.875-89.041-89.064s39.863-89.064 89.041-89.064z" />
<glyph unicode="&#xe949;" glyph-name="notification" d="M512 832c-154.238 0-279.272-124.166-279.272-277.333v-147.998l-59.846-148.715c-3.82-9.493-2.65-20.25 3.122-28.715s15.398-13.534 25.693-13.534h186.182c0-68.309 55.334-123.26 124.121-123.26 68.783 0 124.122 54.95 124.122 123.26h186.18c10.295 0 19.921 5.069 25.694 13.534s6.942 19.221 3.123 28.715l-59.844 148.715v147.998c0 153.167-125.035 277.333-279.275 277.333zM574.059 215.706c0-34.274-27.55-61.632-62.059-61.632s-62.059 27.358-62.059 61.632h124.117zM294.788 554.667c0 119.13 97.249 215.704 217.212 215.704s217.212-96.574 217.212-215.704v-153.929c0-3.917 0.751-7.795 2.214-11.435l45.060-111.97h-528.973l45.059 111.97c1.464 3.639 2.216 7.518 2.216 11.435v153.929z" />
<glyph unicode="&#xe94a;" glyph-name="notification-hover" d="M631.33 184.815c-11.332-52.706-60.548-92.369-119.539-92.369-58.995 0-108.209 39.663-119.542 92.369h239.081zM511.676 832c153.664 0 280.294-107.923 292.032-247.539l0.653-10.271 0.222-10.378-0.051-166.671 46.545-119.582 1.246-3.908 0.759-4.011 0.252-4.075c0-14.562-9.549-27.29-25.472-32.687l-5.538-1.523-5.589-0.457h-609.87c-4.318 0-8.603 0.725-12.655 2.138-14 4.89-23.212 17.19-23.543 33.101l0.224 5.431 1.632 5.986 46.426 119.445 0.053 167.243 0.21 10.38c5.984 144.079 135.008 257.376 292.464 257.376z" />
<glyph unicode="&#xe94b;" glyph-name="user" d="M757.359 362.867c52.996 0 95.953-42.961 95.953-95.953v-24.55c0-38.157-13.636-75.055-38.447-104.043-66.961-78.229-168.815-116.834-303.014-116.834-134.225 0-236.029 38.618-302.857 116.881-24.736 28.966-38.327 65.809-38.327 103.898v24.649c0 52.992 42.959 95.953 95.952 95.953h490.74zM757.359 298.867h-490.74c-17.647 0-31.952-14.306-31.952-31.953v-24.649c0-22.852 8.154-44.958 22.996-62.34 53.475-62.622 137.352-94.438 254.188-94.438 116.834 0 200.785 31.821 254.391 94.451 14.891 17.391 23.070 39.531 23.070 62.426v24.55c0 17.647-14.306 31.953-31.953 31.953zM511.851 874.667c117.82 0 213.333-95.513 213.333-213.333s-95.514-213.333-213.333-213.333c-117.823 0-213.335 95.513-213.335 213.333s95.512 213.333 213.335 213.333zM511.851 810.667c-82.475 0-149.335-66.859-149.335-149.333s66.86-149.333 149.335-149.333c82.475 0 149.333 66.859 149.333 149.333s-66.859 149.333-149.333 149.333z" />
<glyph unicode="&#xe94c;" glyph-name="user-hover" d="M757.359 362.867c52.996 0 95.953-42.961 95.953-95.953v-39.185c0-24.465-7.646-48.316-21.871-68.22-65.958-92.301-173.662-138.022-319.59-138.022-145.963 0-253.609 45.743-319.408 138.091-14.164 19.878-21.776 43.678-21.776 68.087v39.249c0 52.992 42.959 95.953 95.952 95.953h490.74zM511.851 874.667c117.82 0 213.333-95.513 213.333-213.333s-95.514-213.333-213.333-213.333c-117.823 0-213.335 95.513-213.335 213.333s95.512 213.333 213.335 213.333z" />
<glyph unicode="&#xe94d;" glyph-name="settings-hover" d="M129.149 555.395c17.478 53.704 46.27 102.999 84.261 144.777 6.424 7.065 16.503 9.583 25.527 6.377l90.789-32.251c24.614-8.739 51.699 4.001 60.495 28.455 0.865 2.405 1.531 4.875 1.992 7.383l17.297 94.324c1.719 9.378 8.969 16.797 18.353 18.781 27.46 5.807 55.616 8.76 84.139 8.76 28.506 0 56.644-2.95 84.087-8.749 9.382-1.983 16.631-9.396 18.355-18.771l17.344-94.34c4.689-25.548 29.338-42.481 55.053-37.822 2.53 0.458 5.013 1.12 7.433 1.978l90.79 32.253c9.024 3.206 19.106 0.688 25.527-6.377 37.99-41.777 66.782-91.073 84.262-144.777 2.948-9.060 0.102-18.992-7.202-25.155l-73.587-62.071c-19.925-16.806-22.362-46.481-5.444-66.278 1.664-1.946 3.486-3.755 5.444-5.406l73.587-62.071c7.305-6.161 10.15-16.094 7.202-25.156-17.481-53.7-46.272-102.997-84.262-144.777-6.421-7.061-16.503-9.583-25.527-6.374l-90.786 32.252c-24.614 8.738-51.699-4.002-60.497-28.459-0.866-2.402-1.532-4.873-1.993-7.39l-17.344-94.336c-1.724-9.374-8.973-16.789-18.355-18.769-27.443-5.803-55.582-8.751-84.087-8.751-28.523 0-56.678 2.953-84.139 8.759-9.384 1.984-16.634 9.404-18.353 18.782l-17.296 94.319c-4.689 25.549-29.337 42.479-55.051 37.824-2.529-0.461-5.015-1.122-7.432-1.98l-90.793-32.252c-9.024-3.209-19.102-0.687-25.527 6.374-37.99 41.779-66.783 91.076-84.261 144.777-2.948 9.062-0.105 18.995 7.201 25.156l73.588 62.071c19.924 16.811 22.362 46.481 5.443 66.278-1.664 1.946-3.484 3.755-5.442 5.406l-73.589 62.071c-7.306 6.163-10.149 16.095-7.201 25.155zM417.344 432.329c0-51.938 42.377-94.042 94.656-94.042s94.656 42.103 94.656 94.042c0 51.934-42.377 94.037-94.656 94.037s-94.656-42.103-94.656-94.037z" />
<glyph unicode="&#xe94e;" glyph-name="settings" d="M512.004 574.893c-78.929 0-142.916-63.887-142.916-142.697 0-78.805 63.987-142.694 142.916-142.694 78.933 0 142.916 63.889 142.916 142.694 0 78.81-63.983 142.697-142.916 142.697zM426.255 432.196c0 47.287 38.394 85.619 85.749 85.619 47.36 0 85.751-38.332 85.751-85.619 0-47.283-38.391-85.615-85.751-85.615-47.356 0-85.749 38.332-85.749 85.615zM421.689 43.268c29.588-7.057 59.903-10.62 90.324-10.615 30.383 0.047 60.659 3.639 90.21 10.701 8.482 2.005 16.141 6.579 21.918 13.099s9.395 14.665 10.351 23.317l6.716 60.791c0.96 10.014 5.491 19.354 12.766 26.317 7.279 6.959 16.815 11.081 26.88 11.61 6.665 0.277 13.303-0.973 19.409-3.652l55.881-24.461c5.338-2.342 11.106-3.55 16.934-3.55 5.833 0 11.597 1.207 16.934 3.55 5.265 2.287 9.997 5.641 13.892 9.847 41.293 44.42 72.111 97.493 90.21 155.337 2.59 8.367 2.509 17.331-0.23 25.651s-8.004 15.582-15.061 20.783l-49.421 36.386c-8.137 5.914-13.897 14.528-16.247 24.299-2.355 9.766-1.143 20.053 3.413 29.013 3.055 5.969 7.484 11.132 12.919 15.070l49.165 36.271c7.1 5.184 12.399 12.454 15.155 20.8 2.752 8.341 2.82 17.335 0.192 25.719-18.069 57.855-48.905 110.928-90.236 155.309-5.978 6.38-13.79 10.753-22.357 12.516s-17.476 0.831-25.493-2.67l-55.62-24.43c-6.097-2.653-12.736-3.837-19.375-3.456s-13.094 2.317-18.846 5.651c-5.751 3.334-10.641 7.973-14.263 13.541s-5.884 11.909-6.601 18.511l-6.746 60.502c-0.943 8.76-4.612 17.004-10.492 23.572-5.884 6.568-13.679 11.13-22.293 13.043-29.35 6.548-59.307 10.020-89.378 10.36-30.251-0.358-60.386-3.829-89.924-10.36-8.63-1.894-16.442-6.458-22.323-13.042-5.894-6.523-9.559-14.749-10.462-23.488l-6.774-60.559c-0.74-6.612-3.020-12.959-6.658-18.533s-8.533-10.219-14.293-13.565c-5.76-3.345-12.224-5.298-18.875-5.701s-13.304 0.754-19.427 3.38l-55.623 24.458c-5.291 2.252-10.984 3.412-16.736 3.412s-11.444-1.16-16.736-3.412c-5.423-2.272-10.297-5.679-14.292-9.989-41.332-44.435-72.183-97.54-90.295-155.423-2.579-8.362-2.49-17.318 0.255-25.625 2.745-8.311 8.010-15.561 15.065-20.749l49.306-36.305c8.103-5.952 13.83-14.579 16.165-24.35s1.123-20.053-3.416-29.018c-2.997-5.948-7.366-11.102-12.748-15.040l-49.306-36.386c-7.077-5.197-12.353-12.467-15.094-20.8-2.741-8.337-2.81-17.314-0.198-25.69 18.103-57.92 48.955-111.066 90.295-155.537 3.908-4.181 8.637-7.514 13.891-9.788 5.338-2.304 11.092-3.49 16.907-3.49s11.569 1.186 16.907 3.49l55.881 24.512c6.095 2.633 12.723 3.797 19.351 3.405s13.071-2.334 18.812-5.666c5.741-3.328 10.618-7.957 14.242-13.513s5.89-11.883 6.62-18.47l6.717-60.676c0.981-8.602 4.595-16.695 10.349-23.177s13.369-11.034 21.807-13.039zM578.927 96.525c-44.105-9.033-89.583-9.033-133.683 0l-5.577 49.655c-2.722 24.294-14.324 46.733-32.585 63.014-14.295 12.57-31.857 20.843-50.661 23.872-18.804 3.034-38.083 0.691-55.611-6.75l-45.905-19.977c-29.612 33.856-52.401 73.105-67.113 115.584l40.703 30.025c12.575 9.25 22.796 21.321 29.841 35.243 7.045 13.918 10.715 29.295 10.715 44.894 0 15.595-3.67 30.972-10.715 44.894-7.045 13.918-17.266 25.993-29.841 35.243l-40.646 29.937c14.73 42.439 37.517 81.644 67.113 115.469l45.734-19.978c12.605-5.557 26.237-8.416 40.017-8.39 24.538 0.077 48.193 9.155 66.464 25.51s29.888 38.843 32.636 63.189l5.542 49.858c22.114 4.268 44.565 6.56 67.085 6.849 22.353-0.283 44.629-2.566 66.573-6.821l5.346-49.658c2.641-24.372 14.217-46.908 32.499-63.27 14.306-12.641 31.915-20.963 50.773-23.995 18.863-3.031 38.199-0.648 55.757 6.872l45.73 19.977c29.628-33.818 52.429-73.037 67.145-115.497l-40.644-29.85c-12.642-9.22-22.925-21.291-30.012-35.226s-10.782-29.342-10.782-44.971c0-15.629 3.695-31.036 10.782-44.971s17.37-26.005 30.012-35.221l40.644-29.939c-14.724-42.402-37.47-81.583-66.999-115.413l-45.734 19.981c-14.31 6.357-29.922 9.246-45.564 8.427s-30.865-5.321-44.429-13.141c-13.564-7.817-25.084-18.731-33.617-31.842-8.533-13.116-13.837-28.058-15.475-43.61l-5.517-49.971z" />
<glyph unicode="&#xe94f;" glyph-name="share" horiz-adv-x="1067" d="M643.046 694.775c0 75.788 61.44 137.225 137.229 137.225 75.785 0 137.225-61.438 137.225-137.225s-61.44-137.226-137.225-137.226c-43.887 0-82.961 20.6-108.079 52.658l-253.24-126.619c3.041-11.349 4.663-23.279 4.663-35.588 0-12.305-1.62-24.226-4.658-35.571l253.308-126.656c25.105 31.974 64.115 52.514 107.921 52.514 75.742 0 137.143-61.402 137.143-137.143s-61.402-137.143-137.143-137.143c-75.742 0-137.143 61.402-137.143 137.143 0 12.305 1.621 24.23 4.659 35.58l-253.303 126.652c-25.107-31.979-64.118-52.518-107.927-52.518-75.742 0-137.143 61.402-137.143 137.143s61.401 137.143 137.143 137.143c43.803 0 82.81-20.536 107.917-52.505l253.286 126.644c-3.021 11.321-4.634 23.218-4.634 35.492zM780.275 777.143c-45.491 0-82.372-36.878-82.372-82.368s36.881-82.368 82.372-82.368c45.487 0 82.368 36.878 82.368 82.368s-36.881 82.368-82.368 82.368zM780.19 283.43c-45.444 0-82.287-36.843-82.287-82.287s36.843-82.287 82.287-82.287c45.444 0 82.287 36.843 82.287 82.287s-36.843 82.287-82.287 82.287zM204.19 448c0-45.444 36.841-82.287 82.286-82.287s82.286 36.843 82.286 82.287c0 45.444-36.841 82.287-82.286 82.287s-82.286-36.843-82.286-82.287z" />
<glyph unicode="&#xe950;" glyph-name="share-hover" horiz-adv-x="1067" d="M917.333 694.857c0-75.742-61.402-137.143-137.143-137.143-43.806 0-82.816 20.539-107.921 52.512l-253.308-126.655c3.038-11.345 4.658-23.266 4.658-35.571s-1.62-24.23-4.66-35.58l253.306-126.652c25.105 31.974 64.119 52.518 107.925 52.518 75.742 0 137.143-61.402 137.143-137.143s-61.402-137.143-137.143-137.143c-75.742 0-137.143 61.402-137.143 137.143 0 12.301 1.621 24.226 4.659 35.571l-253.306 126.656c-25.108-31.974-64.117-52.514-107.923-52.514-75.742 0-137.143 61.402-137.143 137.143s61.401 137.143 137.143 137.143c43.808 0 82.819-20.541 107.927-52.518l253.303 126.654c-3.038 11.346-4.659 23.273-4.659 35.578 0 75.742 61.402 137.143 137.143 137.143s137.143-61.401 137.143-137.143z" />
<glyph unicode="&#xe951;" glyph-name="warning" d="M550.349 232.388c0 21.184-17.169 38.353-38.353 38.353-21.18 0-38.353-17.169-38.353-38.353 0-21.18 17.173-38.353 38.353-38.353 21.184 0 38.353 17.173 38.353 38.353zM540.395 533.993c-1.916 14.058-13.978 24.884-28.561 24.873-15.906-0.013-28.791-12.919-28.779-28.826l0.137-172.885 0.269-3.908c1.916-14.054 13.978-24.883 28.561-24.87 15.906 0.013 28.791 12.919 28.779 28.826l-0.137 172.885-0.269 3.907zM587.601 744.752c-32.883 59.443-118.34 59.442-151.223-0.002l-297.456-537.722c-31.859-57.596 9.796-128.239 75.613-128.239h594.929c65.822 0 107.473 70.647 75.614 128.239l-297.476 537.725zM486.788 716.865c10.961 19.815 39.445 19.815 50.406 0.001l297.476-537.725c10.62-19.196-3.264-42.743-25.207-42.743h-594.929c-21.939 0-35.824 23.548-25.204 42.743l297.458 537.725z" />
<glyph unicode="&#xe952;" glyph-name="warning-hover" d="M436.378 744.75c32.883 59.444 118.34 59.445 151.223 0.002l297.476-537.725c31.859-57.591-9.792-128.239-75.614-128.239h-594.929c-65.817 0-107.472 70.643-75.613 128.239l297.456 537.722zM550.349 232.354c0 21.18-17.169 38.353-38.353 38.353-21.18 0-38.353-17.173-38.353-38.353 0-21.184 17.173-38.353 38.353-38.353 21.184 0 38.353 17.169 38.353 38.353zM540.395 533.957c-1.916 14.057-13.978 24.884-28.561 24.872-15.906-0.012-28.791-12.919-28.779-28.828l0.137-172.881 0.269-3.908c1.916-14.059 13.978-24.883 28.561-24.87 15.906 0.013 28.791 12.915 28.779 28.826l-0.137 172.881-0.269 3.909z" />
<glyph unicode="&#xe953;" glyph-name="moneybox" d="M438.315 777.213c20.352-14.045 39.804-23.301 55.838-25.341-8.738-17.361-14.839-36.005-18.022-55.268-25.86 5.673-50.393 19.305-70.53 33.201-9.955 6.869-19.379 14.189-28 21.396v-85.759c0-11.76-7.15-22.337-18.058-26.722l-0.238-0.098c-0.239-0.099-0.647-0.271-1.21-0.515-1.128-0.488-2.875-1.263-5.131-2.324-4.521-2.127-11.032-5.38-18.674-9.746-15.436-8.821-34.721-21.756-51.524-38.56-17.415-17.415-28.151-40.804-34.214-58.969-7.777-23.296-27.578-44.766-55.765-49.468-4.146-0.687-7.185-4.275-7.185-8.478v-67.315c0-6.353 4.593-11.772 10.86-12.817 23.958-3.994 42.833-19.635 53.446-38.635 9.653-17.28 26.814-43.942 52.059-69.188 19.616-19.618 42.461-32.196 60.844-39.889 9.111-3.814 16.896-6.327 22.281-7.868 2.685-0.764 4.753-1.284 6.065-1.591 0.656-0.154 1.121-0.256 1.378-0.311l0.226-0.047c13.499-2.654 23.241-14.494 23.241-28.258v-48c0-5.303 4.298-9.6 9.6-9.6h48c0 31.812 25.788 57.6 57.6 57.6h76.8c31.812 0 57.6-25.788 57.6-57.6h48c5.303 0 9.6 4.297 9.6 9.6v86.4c0 10.859 6.131 20.804 15.812 25.707l0.512 0.273c0.533 0.29 1.451 0.802 2.697 1.545 2.487 1.481 6.272 3.866 10.918 7.223 9.314 6.729 21.939 17.229 34.594 31.996 25.050 29.222 50.667 75.567 50.667 144.457 0 38.652-7.228 69.901-19.533 95.522 13.743 18.239 24.102 38.764 30.643 60.517 3.81-5.218 7.424-10.634 10.829-16.259 23.202-38.331 35.661-84.599 35.661-139.78 0-84.71-31.983-143.966-64.533-181.943-16.145-18.837-32.32-32.333-44.604-41.203-2.142-1.549-4.169-2.957-6.063-4.233v-70.221c0-37.116-30.089-67.2-67.2-67.2h-48c-31.812 0-57.6 25.788-57.6 57.6h-76.8c0-31.812-25.788-57.6-57.6-57.6h-48c-37.114 0-67.2 30.084-67.2 67.2v26.21c-5.302 1.788-11.316 4.006-17.828 6.733-22.889 9.579-52.845 25.801-79.337 52.292-30.106 30.106-50.271 61.521-61.615 81.83-3.348 5.99-8.349 9.19-12.63 9.903-34.040 5.675-58.99 35.127-58.99 69.636v67.315c0 32.358 23.395 59.977 55.316 65.296 3.337 0.556 8.256 3.87 10.598 10.889 7.386 22.127 21.718 55.056 48.121 81.459 21.597 21.597 45.512 37.461 63.676 47.84 5.236 2.993 10.058 5.565 14.289 7.718v109.504c0 36.015 43.416 50.799 66.81 27.503 12.689-12.636 31.112-29.487 51.504-43.56zM553.088 594.478c-18.82 7.793-34.701 22.589-38.481 42.604-13.21 69.945 23.834 141.937 92.198 170.262 78.374 32.47 168.226-4.74 200.695-83.11 28.326-68.366 3.627-145.471-55.168-185.597-16.823-11.481-38.515-10.721-57.331-2.927l-141.914 58.768zM721.822 587.584c35.311 25.426 49.826 72.703 32.465 114.602-20.292 48.982-76.45 72.238-125.431 51.944-41.899-17.359-65.058-61.056-58.061-104.003 0.222-0.175 0.495-0.375 0.819-0.592 0.909-0.604 2.086-1.251 3.511-1.841l141.914-58.768c1.425-0.59 2.714-0.966 3.785-1.18 0.384-0.077 0.717-0.128 0.998-0.163zM396.8 550.243c0-21.206-17.192-38.401-38.4-38.401s-38.4 17.195-38.4 38.401c0 21.208 17.192 38.4 38.4 38.4s38.4-17.192 38.4-38.4z" />
<glyph unicode="&#xe954;" glyph-name="moneybox-hover" d="M773.982 506.918c36.932 25.207 63.113 62.072 75.529 103.362 3.81-5.217 7.424-10.634 10.829-16.258 23.202-38.331 35.661-84.599 35.661-139.78 0-84.71-31.983-143.966-64.533-181.943-16.145-18.837-32.32-32.333-44.604-41.203-2.142-1.549-4.169-2.957-6.063-4.233v-70.221c0-37.116-30.089-67.2-67.2-67.2h-48c-31.812 0-57.6 25.788-57.6 57.6h-76.8c0-31.812-25.788-57.6-57.6-57.6h-48c-37.114 0-67.2 30.084-67.2 67.2v26.21c-5.302 1.788-11.316 4.006-17.828 6.733-22.889 9.579-52.845 25.801-79.337 52.292-30.106 30.106-50.271 61.521-61.615 81.83-3.348 5.99-8.349 9.19-12.63 9.903-34.040 5.675-58.99 35.127-58.99 69.636v67.315c0 32.358 23.395 59.977 55.316 65.296 3.337 0.556 8.256 3.87 10.598 10.889 7.386 22.127 21.718 55.056 48.121 81.459 21.597 21.597 45.512 37.461 63.676 47.84 5.236 2.993 10.058 5.565 14.289 7.718v109.504c0 36.015 43.416 50.799 66.81 27.503 12.689-12.636 31.112-29.487 51.504-43.56 20.352-14.045 39.804-23.301 55.838-25.342-18.603-36.957-25.242-79.734-17.276-121.917 6.946-36.773 35.085-60.009 61.521-70.956l141.914-58.766c26.432-10.948 62.763-14.413 93.67 6.686zM358.4 511.842c21.208 0 38.4 17.195 38.4 38.4 0 21.207-17.192 38.4-38.4 38.4s-38.4-17.193-38.4-38.4c0-21.206 17.192-38.4 38.4-38.4zM752.337 538.635c36.565 24.958 59.947 64.221 65.579 106.789 0 0 0-0.001 0 0 3.426 25.872 0.294 52.966-10.415 78.81-32.469 78.371-122.321 115.581-200.691 83.111-68.369-28.325-105.412-100.318-92.203-170.263 0.947-5.004 2.65-9.682 4.962-14.007 1.92-3.581 4.254-6.918 6.933-9.997 7.019-8.075 16.367-14.371 26.586-18.603l141.914-58.768c18.82-7.794 40.512-8.558 57.335 2.927z" />
<glyph unicode="&#xe955;" glyph-name="caret-left" d="M384 448l256 256v-512l-256 256z" />
<glyph unicode="&#xe956;" glyph-name="caret-right" d="M640 448l-256-256v512l256-256z" />
<glyph unicode="&#xe957;" glyph-name="add-circle" d="M512 874.667c235.639 0 426.667-191.025 426.667-426.667 0-235.639-191.027-426.667-426.667-426.667-235.642 0-426.667 191.027-426.667 426.667 0 235.642 191.025 426.667 426.667 426.667zM512 810.667c-200.295 0-362.667-162.371-362.667-362.667s162.371-362.667 362.667-362.667c200.294 0 362.667 162.372 362.667 362.667s-162.372 362.667-362.667 362.667zM512 661.333c17.673 0 32-14.327 32-32v-149.333h149.333c17.673 0 32-14.327 32-32s-14.327-32-32-32h-149.333v-149.333c0-17.673-14.327-32-32-32s-32 14.327-32 32v149.333h-149.333c-17.673 0-32 14.327-32 32s14.327 32 32 32h149.333v149.333c0 17.673 14.327 32 32 32z" />
<glyph unicode="&#xe958;" glyph-name="select-all" d="M838.255 692.736c33.634-11.82 57.745-43.862 57.745-81.536v-384c0-90.133-73.067-163.2-163.2-163.2h-384c-37.674 0-69.716 24.111-81.536 57.745l80.536-0.128 385-0.017c58.321 0 105.6 47.279 105.6 105.6v384l-0.154 1.958 0.009 79.578zM713.476 832c47.718 0 86.4-38.682 86.4-86.4v-499.076c0-47.718-38.682-86.4-86.4-86.4h-499.076c-47.718 0-86.4 38.682-86.4 86.4v499.076c0 47.718 38.682 86.4 86.4 86.4h499.076zM713.476 774.4h-499.076c-15.906 0-28.8-12.894-28.8-28.8v-499.076c0-15.906 12.894-28.8 28.8-28.8h499.076c15.906 0 28.8 12.894 28.8 28.8v499.076c0 15.906-12.894 28.8-28.8 28.8zM419.116 472.644l149.319 149.321c11.247 11.247 29.483 11.247 40.73 0 10.223-10.225 11.153-26.225 2.79-37.499l-2.79-3.23-172.8-172.8c-11.36-11.362-29.529-11.085-40.579-0.158l-2.826 3.243-57.6 76.8c-9.544 12.723-6.964 30.775 5.76 40.32 11.568 8.676 27.538 7.334 37.517-2.543l2.803-3.217 37.676-50.236z" />
<glyph unicode="&#xe959;" glyph-name="logout" d="M586.667 149.333c17.673 0 32 14.327 32 32s-14.327 32-32 32h-266.667c-47.128 0-85.333 38.204-85.333 85.333v341.333c0 47.128 38.205 85.333 85.333 85.333h266.667c17.673 0 32 14.327 32 32s-14.327 32-32 32h-266.667c-82.475 0-149.333-66.859-149.333-149.333v-341.333c0-82.475 66.859-149.333 149.333-149.333h266.667zM628.962 631.514c12.988 11.987 33.229 11.177 45.218-1.809l128-138.667c11.315-12.258 11.315-31.151 0-43.409l-128-138.667c-11.989-12.988-32.23-13.798-45.218-1.809-12.988 11.985-13.798 32.23-1.809 45.218l78.426 84.962h-332.245c-17.673 0-32 14.327-32 32s14.327 32 32 32h332.245l-78.426 84.962c-11.989 12.986-11.179 33.231 1.809 45.219z" />
<glyph unicode="&#xe95a;" glyph-name="login" d="M458.667 149.333c-17.673 0-32 14.327-32 32s14.327 32 32 32h266.667c47.13 0 85.333 38.204 85.333 85.333v341.333c0 47.128-38.204 85.333-85.333 85.333h-266.667c-17.673 0-32 14.327-32 32s14.327 32 32 32h266.667c82.475 0 149.333-66.859 149.333-149.333v-341.333c0-82.475-66.859-149.333-149.333-149.333h-266.667zM458.295 631.514c12.988 11.987 33.229 11.177 45.218-1.809l128-138.667c11.315-12.258 11.315-31.151 0-43.409l-128-138.667c-11.989-12.988-32.23-13.798-45.218-1.809-12.988 11.985-13.798 32.23-1.809 45.218l78.426 84.962h-332.245c-17.673 0-32 14.327-32 32s14.327 32 32 32h332.245l-78.426 84.962c-11.989 12.986-11.179 33.231 1.809 45.219z" />
<glyph unicode="&#xe95b;" glyph-name="add-user-hover" d="M469.184 213.53c0 54.997 16.004 106.253 43.614 149.363l-331.512-0.026c-52.993 0-95.952-42.961-95.952-95.953v-39.249c0-24.41 7.612-48.209 21.776-68.087 65.799-92.348 173.445-138.091 319.407-138.091 39.737 0 76.64 3.388 110.581 10.219-42.304 48.687-67.913 112.265-67.913 181.824zM639.851 661.333c0 117.821-95.514 213.333-213.335 213.333s-213.333-95.513-213.333-213.333c0-117.821 95.512-213.333 213.333-213.333s213.335 95.513 213.335 213.333zM981.184 213.53c0 129.604-105.067 234.667-234.667 234.667-129.604 0-234.667-105.062-234.667-234.667 0-129.6 105.062-234.667 234.667-234.667 129.6 0 234.667 105.067 234.667 234.667zM742.682 362.522l3.836 0.346 3.831-0.346c8.708-1.579 15.578-8.448 17.156-17.156l0.346-3.831-0.043-106.671h106.876l3.831-0.341c8.708-1.583 15.578-8.448 17.156-17.156l0.346-3.836-0.346-3.831c-1.579-8.708-8.448-15.578-17.156-17.156l-3.831-0.346h-106.876l0.043-106.662-0.346-3.836c-1.579-8.708-8.448-15.573-17.156-17.156l-3.831-0.341-3.836 0.341c-8.708 1.583-15.573 8.448-17.156 17.156l-0.341 3.836-0.043 106.662h-106.458l-3.836 0.346c-8.708 1.579-15.573 8.448-17.156 17.156l-0.341 3.831 0.341 3.836c1.583 8.708 8.448 15.573 17.156 17.156l3.836 0.341h106.458l0.043 106.671 0.341 3.831c1.583 8.708 8.448 15.578 17.156 17.156z" />
</font>
</defs>
</svg>
