<svg xmlns="http://www.w3.org/2000/svg" width="128" height="20" viewBox="0 0 128 20" fill="none">
<path d="M92.0697 9.71023C92.6204 9.57496 93.0526 9.307 93.3665 8.90599C93.6804 8.50536 93.8375 8.02467 93.8375 7.46429C93.8375 6.68192 93.5262 6.06373 92.9028 5.60972C92.2802 5.15572 91.4274 4.92853 90.3456 4.92853H86.9448C86.334 4.92853 85.8389 5.42367 85.8389 6.03445V13.966C85.8389 14.5768 86.334 15.072 86.9448 15.072H90.4757C91.6349 15.072 92.55 14.8233 93.2216 14.3259C93.8931 13.8285 94.2285 13.1447 94.2285 12.2753C94.2285 11.5993 94.0377 11.0341 93.6563 10.5801C93.2746 10.1261 92.7457 9.83624 92.0697 9.7106V9.71023ZM87.7805 6.60928H90.2437C90.7458 6.59964 91.1398 6.70119 91.4248 6.91355C91.7094 7.12592 91.8521 7.42575 91.8521 7.81193C91.8521 8.20812 91.7094 8.51722 91.4248 8.73922C91.1398 8.96159 90.7458 9.0724 90.2437 9.0724H87.7805V6.60891V6.60928ZM91.6928 13.0432C91.3451 13.2848 90.8618 13.4008 90.2437 13.3908H87.7805V10.7102H90.2437C90.8618 10.7005 91.3448 10.8139 91.6928 11.0508C92.0404 11.2876 92.2146 11.6134 92.2146 12.0288C92.2146 12.4635 92.0408 12.8016 91.6928 13.0432Z" fill="#222222"/>
<path d="M116.059 4.92817H114.422C114.353 4.92817 114.298 4.98339 114.298 5.05121V11.9269L109.435 5.41998C109.204 5.11051 108.84 4.9278 108.453 4.9278C107.776 4.9278 107.227 5.47668 107.227 6.1538V14.9482C107.227 15.0164 107.282 15.0716 107.35 15.0716H109.002C109.07 15.0716 109.125 15.0164 109.125 14.9482V8.08694L113.952 14.5494C114.19 14.8681 114.56 15.072 114.958 15.0716C115.634 15.0705 116.182 14.5223 116.182 13.8456V5.05121C116.182 4.98302 116.126 4.92817 116.059 4.92817H116.059Z" fill="#222222"/>
<path d="M127.739 14.8774L123.732 9.21732L127.443 5.13422C127.515 5.05491 127.459 4.92816 127.352 4.92816H125.395C125.36 4.92816 125.327 4.94299 125.304 4.96893L120.762 9.98561V5.05195C120.762 4.98375 120.707 4.92853 120.639 4.92853H118.943C118.875 4.92853 118.82 4.98375 118.82 5.05195V14.9489C118.82 15.0171 118.875 15.072 118.943 15.072H120.639C120.707 15.072 120.762 15.0167 120.762 14.9489V12.478L122.356 10.7246L125.507 15.0216C125.53 15.0531 125.567 15.072 125.606 15.072H127.639C127.739 15.072 127.797 14.9593 127.739 14.8774H127.739Z" fill="#222222"/>
<path d="M45.9642 4.92816C45.4335 4.92816 44.9524 5.24022 44.7364 5.72499L41.7592 12.398L38.7542 5.72091C38.5371 5.23837 38.0571 4.92816 37.5282 4.92816H37.5253C36.7825 4.92816 36.1807 5.53004 36.1807 6.27276V14.9482C36.1807 15.0164 36.2359 15.0716 36.3037 15.0716H37.8251C37.8929 15.0716 37.9481 15.0164 37.9481 14.9482V7.79711L40.8642 14.4812C40.9846 14.7573 41.2214 14.9726 41.5142 15.0438C41.9782 15.1565 42.4352 14.9159 42.6161 14.4994L45.5265 7.79711V14.9482C45.5265 15.0164 45.5817 15.0716 45.6496 15.0716H47.1854C47.2536 15.0716 47.3084 15.0164 47.3084 14.9482V6.27276C47.3084 5.53004 46.7066 4.92816 45.9638 4.92816H45.9642Z" fill="#72BF44"/>
<path d="M57.4304 13.3764H51.8878V10.8262H56.6914C56.7596 10.8262 56.8144 10.7709 56.8144 10.7031V9.254C56.8144 9.18581 56.7592 9.13096 56.6914 9.13096H51.8878V6.6241H57.2566C57.3248 6.6241 57.3796 6.56888 57.3796 6.50069V5.05157C57.3796 4.98338 57.3244 4.92853 57.2566 4.92853H51.0521C50.4413 4.92853 49.9462 5.42367 49.9462 6.03445V13.966C49.9462 14.5768 50.4413 15.072 51.0521 15.072H57.4304C57.4986 15.072 57.5538 15.0167 57.5538 14.9485V13.4998C57.5538 13.4316 57.4986 13.3764 57.4304 13.3764Z" fill="#72BF44"/>
<path d="M72.109 4.92816H70.4135C70.3453 4.92816 70.2904 4.98338 70.2904 5.05121V14.9482C70.2904 15.0164 70.3453 15.0716 70.4135 15.0716H72.109C72.1772 15.0716 72.2321 15.0164 72.2321 14.9482V5.05121C72.2321 4.98301 72.1768 4.92816 72.109 4.92816Z" fill="#72BF44"/>
<path d="M66.0427 11.7064C66.2176 11.6345 66.3855 11.55 66.5367 11.4503C66.9274 11.1927 67.2572 10.848 67.5014 10.4492C67.8443 9.88925 68.0159 9.21287 68.0159 8.42049C68.0159 7.30975 67.6582 6.44992 66.9437 5.84099C66.2284 5.23244 65.2144 4.92816 63.9005 4.92816H60.7755C60.1647 4.92816 59.6696 5.42331 59.6696 6.03408V14.9485C59.6696 15.0167 59.7248 15.0716 59.7926 15.0716H61.4882C61.5564 15.0716 61.6116 15.0167 61.6116 14.9485V12.0866H63.9009H63.9035L66.0557 15.0216C66.079 15.0531 66.1157 15.072 66.155 15.072H68.1875C68.2875 15.072 68.3457 14.9593 68.2879 14.8774L66.0431 11.7064H66.0427ZM65.5813 9.89814C65.1947 10.2169 64.6343 10.3766 63.9002 10.3766H61.6108V6.62374H63.9002C64.6343 6.62374 65.1943 6.77828 65.5813 7.08738C65.9675 7.39684 66.1609 7.86049 66.1609 8.47868C66.1609 9.10687 65.9675 9.58015 65.5813 9.89851V9.89814Z" fill="#72BF44"/>
<path d="M25.9009 14.9963L29.3777 7.06921L32.8541 14.9963C32.8737 15.0412 32.9182 15.0701 32.9667 15.0701H34.623C34.7116 15.0701 34.7716 14.9789 34.7357 14.8974L30.7605 5.83357C30.2319 4.6287 28.5227 4.6287 27.9942 5.83357L24.0193 14.8974C23.9833 14.9789 24.043 15.0701 24.132 15.0701H25.7879C25.8368 15.0701 25.8813 15.0412 25.9009 14.9963Z" fill="#72BF44"/>
<path d="M75.5595 14.9964L79.0359 7.06923L82.5123 14.9964C82.5319 15.0412 82.5764 15.0701 82.6253 15.0701H84.2816C84.3702 15.0701 84.4302 14.9789 84.3943 14.8974L80.419 5.83359C79.8905 4.62871 78.1812 4.62871 77.6527 5.83359L73.6779 14.8974C73.6419 14.9789 73.7016 15.0701 73.7905 15.0701H75.4464C75.4954 15.0701 75.5395 15.0412 75.5595 14.9964Z" fill="#72BF44"/>
<path d="M96.9478 14.9964L100.424 7.06923L103.901 14.9964C103.92 15.0412 103.965 15.0701 104.014 15.0701H105.67C105.758 15.0701 105.819 14.9789 105.783 14.8974L101.807 5.83359C101.279 4.62871 99.5695 4.62871 99.041 5.83359L95.0662 14.8974C95.0302 14.9789 95.0899 15.0701 95.1788 15.0701H96.8348C96.8837 15.0701 96.9278 15.0412 96.9478 14.9964Z" fill="#222222"/>
<path d="M6.52306 14.9964L9.99945 7.06923L13.4758 14.9964C13.4955 15.0412 13.54 15.0701 13.5889 15.0701H15.2452C15.3337 15.0701 15.3938 14.9789 15.3578 14.8974L11.3826 5.83359C10.8541 4.62871 9.14481 4.62871 8.61631 5.83359L4.64106 14.8974C4.60548 14.9789 4.66515 15.0701 4.75373 15.0701H6.40965C6.45857 15.0701 6.50305 15.0412 6.52269 14.9964H6.52306Z" fill="#72BF44"/>
<path d="M18.126 20.0001H1.87371C0.840434 20.0001 0.000244141 19.1595 0.000244141 18.1262V1.8739C0.000244141 0.840621 0.840804 6.10352e-05 1.87371 6.10352e-05H18.126C19.1593 6.10352e-05 19.9995 0.840621 19.9995 1.8739V18.1262C19.9995 19.1595 19.1589 20.0001 18.126 20.0001ZM1.87371 0.616027C1.17992 0.616027 0.615839 1.18011 0.615839 1.8739V18.1262C0.615839 18.82 1.17992 19.3841 1.87371 19.3841H18.126C18.8194 19.3841 19.3843 18.82 19.3843 18.1262V1.8739C19.3843 1.18011 18.8198 0.616027 18.126 0.616027H1.87371Z" fill="#72BF44"/>
</svg>