<svg width="20" height="20" viewBox="0 0 20 20" fill="none" xmlns="http://www.w3.org/2000/svg">
<g id="Layer_x0020_1">
<g id="_2306800040480">
<path id="Vector" d="M6.52433 14.9954L9.99994 7.0686L13.4756 14.9954C13.4943 15.04 13.5389 15.0681 13.5881 15.0681H15.2439C15.333 15.0681 15.3916 14.9767 15.3564 14.8946L11.3813 5.83032C10.8536 4.62488 9.14394 4.62488 8.61392 5.83032L4.63877 14.8946C4.6036 14.9767 4.66223 15.0681 4.75135 15.0681H6.40707C6.45632 15.0681 6.50088 15.04 6.51964 14.9954H6.52433Z" fill="#72BF44"/>
<path id="Vector_2" d="M18.1262 20.0003H1.87383C0.839588 20.0003 0 19.1607 0 18.1264V1.87407C0 0.839833 0.839588 0.000244141 1.87383 0.000244141H18.1262C19.1604 0.000244141 20 0.839833 20 1.87407V18.1264C20 19.1607 19.1604 20.0003 18.1262 20.0003ZM1.87383 0.617037C1.17964 0.617037 0.616793 1.18223 0.616793 1.87407V18.1264C0.616793 18.8206 1.18199 19.3835 1.87383 19.3835H18.1262C18.8204 19.3835 19.3832 18.8183 19.3832 18.1264V1.87407C19.3832 1.17989 18.818 0.617037 18.1262 0.617037H1.87383Z" fill="#72BF44"/>
</g>
</g>
</svg>
